<?xml version="1.0" encoding="UTF-8" standalone="no"?>
<!DOCTYPE svg PUBLIC "-//W3C//DTD SVG 1.1//EN"
 "http://www.w3.org/Graphics/SVG/1.1/DTD/svg11.dtd">
<!-- Generated by graphviz version 2.42.4 (0)
 -->
<!-- Title: VERA_Audio Pages: 1 -->
<svg width="2742pt" height="886pt"
 viewBox="0.00 0.00 2741.98 886.00" xmlns="http://www.w3.org/2000/svg" xmlns:xlink="http://www.w3.org/1999/xlink">
<g id="graph0" class="graph" transform="scale(1 1) rotate(0) translate(36 850)">
<title>VERA_Audio</title>
<polygon fill="#fafafa" stroke="transparent" points="-36,36 -36,-850 2705.98,-850 2705.98,36 -36,36"/>
<text text-anchor="middle" x="1334.99" y="-797.2" font-family="Helvetica,sans-Serif" font-size="16.00">VERA Audio System — Signal Chain Design</text>
<text text-anchor="middle" x="1334.99" y="-779.2" font-family="Helvetica,sans-Serif" font-size="16.00">Current (red) vs Proposed (green)</text>
<g id="clust1" class="cluster">
<title>cluster_pi</title>
<polygon fill="#e8f0fe" stroke="#3c6bc4" points="686,-360 686,-559 1171,-559 1171,-360 686,-360"/>
<text text-anchor="middle" x="928.5" y="-544.6" font-family="Helvetica Bold" font-size="13.00">Raspberry Pi 5</text>
</g>
<g id="clust2" class="cluster">
<title>cluster_cm108</title>
<polygon fill="#fff8e1" stroke="#f9a825" points="1002.5,-587 1002.5,-699 1563,-699 1563,-587 1002.5,-587"/>
<text text-anchor="middle" x="1282.75" y="-686.2" font-family="Helvetica Bold" font-size="11.00">USB Audio Adapter</text>
<text text-anchor="middle" x="1282.75" y="-674.2" font-family="Helvetica Bold" font-size="11.00">Unitek Y&#45;247A / C&#45;Media CM108</text>
<text text-anchor="middle" x="1282.75" y="-662.2" font-family="Helvetica Bold" font-size="11.00">(card 2, 0d8c:0014)</text>
</g>
<g id="clust3" class="cluster">
<title>cluster_out_current</title>
<polygon fill="#fce4ec" stroke="#c62828" points="1702,-613 1702,-727 2384.49,-727 2384.49,-613 1702,-613"/>
<text text-anchor="middle" x="2043.25" y="-714.2" font-family="Helvetica Bold" font-size="11.00">OUTPUT — Current (fix in place)</text>
</g>
<g id="clust4" class="cluster">
<title>cluster_out_proposed</title>
<polygon fill="#e8f5e9" stroke="#2e7d32" points="1686,-491 1686,-605 2661.98,-605 2661.98,-491 1686,-491"/>
<text text-anchor="middle" x="2173.99" y="-592.2" font-family="Helvetica Bold" font-size="11.00">OUTPUT — Proposed Improvement</text>
</g>
<g id="clust5" class="cluster">
<title>cluster_mic_current</title>
<polygon fill="#fce4ec" stroke="#c62828" points="46.66,-628 46.66,-762 826.5,-762 826.5,-628 46.66,-628"/>
<text text-anchor="middle" x="436.58" y="-749.2" font-family="Helvetica Bold" font-size="11.00">MIC INPUT — Current (replace entirely)</text>
</g>
<g id="clust6" class="cluster">
<title>cluster_mic_optA</title>
<polygon fill="#e8f5e9" stroke="#2e7d32" points="45.5,-460 45.5,-620 542,-620 542,-460 45.5,-460"/>
<text text-anchor="middle" x="293.75" y="-607.2" font-family="Helvetica Bold" font-size="11.00">MIC INPUT — Option A (Recommended)</text>
<text text-anchor="middle" x="293.75" y="-595.2" font-family="Helvetica Bold" font-size="11.00">ReSpeaker USB Mic Array v2.0</text>
</g>
<g id="clust7" class="cluster">
<title>cluster_mic_optB</title>
<polygon fill="#e3f2fd" stroke="#1565c0" points="43.5,-316 43.5,-452 559,-452 559,-316 43.5,-316"/>
<text text-anchor="middle" x="301.25" y="-439.2" font-family="Helvetica Bold" font-size="11.00">MIC INPUT — Option B (DIY)</text>
<text text-anchor="middle" x="301.25" y="-427.2" font-family="Helvetica Bold" font-size="11.00">I2S MEMS via Pi GPIO</text>
</g>
<g id="clust8" class="cluster">
<title>cluster_sw_fixes</title>
<polygon fill="#f3e5f5" stroke="#6a1b9a" points="8,-8 8,-308 541,-308 541,-8 8,-8"/>
<text text-anchor="middle" x="274.5" y="-295.2" font-family="Helvetica Bold" font-size="11.00">Software Fixes (immediate)</text>
</g>
<!-- ALSA -->
<g id="node1" class="node">
<title>ALSA</title>
<path fill="#b3c8f5" stroke="#3c6bc4" d="M815,-444C815,-444 714,-444 714,-444 708,-444 702,-438 702,-432 702,-432 702,-420 702,-420 702,-414 708,-408 714,-408 714,-408 815,-408 815,-408 821,-408 827,-414 827,-420 827,-420 827,-432 827,-432 827,-438 821,-444 815,-444"/>
<text text-anchor="middle" x="764.5" y="-429.2" font-family="Helvetica,sans-Serif" font-size="11.00">ALSA / PipeWire</text>
<text text-anchor="middle" x="764.5" y="-417.2" font-family="Helvetica,sans-Serif" font-size="11.00">(kernel audio layer)</text>
</g>
<!-- VERA_SW -->
<g id="node2" class="node">
<title>VERA_SW</title>
<path fill="#b3c8f5" stroke="#3c6bc4" d="M1143,-521C1143,-521 1007,-521 1007,-521 1001,-521 995,-515 995,-509 995,-509 995,-489 995,-489 995,-483 1001,-477 1007,-477 1007,-477 1143,-477 1143,-477 1149,-477 1155,-483 1155,-489 1155,-489 1155,-509 1155,-509 1155,-515 1149,-521 1143,-521"/>
<text text-anchor="middle" x="1075" y="-508.2" font-family="Helvetica,sans-Serif" font-size="11.00">VERA Software</text>
<text text-anchor="middle" x="1075" y="-496.2" font-family="Helvetica,sans-Serif" font-size="11.00">AVService + TTS</text>
<text text-anchor="middle" x="1075" y="-484.2" font-family="Helvetica,sans-Serif" font-size="11.00">Piper ONNX (Lessac High)</text>
</g>
<!-- ALSA&#45;&gt;VERA_SW -->
<g id="edge1" class="edge">
<title>ALSA&#45;&gt;VERA_SW</title>
<path fill="none" stroke="#3c6bc4" d="M818.98,-454.25C818.98,-454.25 818.98,-483.67 818.98,-483.67 818.98,-483.67 984.7,-483.67 984.7,-483.67"/>
<polygon fill="#3c6bc4" stroke="#3c6bc4" points="822.48,-454.25 818.98,-444.25 815.48,-454.25 822.48,-454.25"/>
<polygon fill="#3c6bc4" stroke="#3c6bc4" points="984.7,-487.17 994.7,-483.67 984.7,-480.17 984.7,-487.17"/>
<text text-anchor="middle" x="911" y="-438.8" font-family="Helvetica,sans-Serif" font-size="9.00">capture</text>
<text text-anchor="middle" x="911" y="-428.8" font-family="Helvetica,sans-Serif" font-size="9.00">(44.1 kHz, mono)</text>
</g>
<!-- VERA_SW&#45;&gt;ALSA -->
<!-- CM_USB -->
<g id="node5" class="node">
<title>CM_USB</title>
<path fill="#ffe082" stroke="#f9a825" d="M1338,-636C1338,-636 1302,-636 1302,-636 1296,-636 1290,-630 1290,-624 1290,-624 1290,-612 1290,-612 1290,-606 1296,-600 1302,-600 1302,-600 1338,-600 1338,-600 1344,-600 1350,-606 1350,-612 1350,-612 1350,-624 1350,-624 1350,-630 1344,-636 1338,-636"/>
<text text-anchor="middle" x="1320" y="-621.2" font-family="Helvetica,sans-Serif" font-size="11.00">USB 2.0</text>
<text text-anchor="middle" x="1320" y="-609.2" font-family="Helvetica,sans-Serif" font-size="11.00">UAC1</text>
</g>
<!-- VERA_SW&#45;&gt;CM_USB -->
<g id="edge18" class="edge">
<title>VERA_SW&#45;&gt;CM_USB</title>
<path fill="none" stroke="#f9a825" d="M1142.98,-521.25C1142.98,-554.78 1142.98,-614.4 1142.98,-614.4 1142.98,-614.4 1279.97,-614.4 1279.97,-614.4"/>
<polygon fill="#f9a825" stroke="#f9a825" points="1279.97,-617.9 1289.97,-614.4 1279.97,-610.9 1279.97,-617.9"/>
<text text-anchor="middle" x="1222.5" y="-602.8" font-family="Helvetica,sans-Serif" font-size="9.00">USB audio</text>
<text text-anchor="middle" x="1222.5" y="-592.8" font-family="Helvetica,sans-Serif" font-size="9.00">(playback)</text>
</g>
<!-- CM_DAC -->
<g id="node3" class="node">
<title>CM_DAC</title>
<path fill="#ffe082" stroke="#f9a825" d="M1539,-636C1539,-636 1449,-636 1449,-636 1443,-636 1437,-630 1437,-624 1437,-624 1437,-612 1437,-612 1437,-606 1443,-600 1449,-600 1449,-600 1539,-600 1539,-600 1545,-600 1551,-606 1551,-612 1551,-612 1551,-624 1551,-624 1551,-630 1545,-636 1539,-636"/>
<text text-anchor="middle" x="1494" y="-621.2" font-family="Helvetica,sans-Serif" font-size="11.00">CM108 DAC</text>
<text text-anchor="middle" x="1494" y="-609.2" font-family="Helvetica,sans-Serif" font-size="11.00">44.1kHz → analog</text>
</g>
<!-- OUT_JACK -->
<g id="node6" class="node">
<title>OUT_JACK</title>
<path fill="#ef9a9a" stroke="#c62828" d="M1807,-677C1807,-677 1726,-677 1726,-677 1720,-677 1714,-671 1714,-665 1714,-665 1714,-653 1714,-653 1714,-647 1720,-641 1726,-641 1726,-641 1807,-641 1807,-641 1813,-641 1819,-647 1819,-653 1819,-653 1819,-665 1819,-665 1819,-671 1813,-677 1807,-677"/>
<text text-anchor="middle" x="1766.5" y="-662.2" font-family="Helvetica,sans-Serif" font-size="11.00">3.5mm TRS Jack</text>
<text text-anchor="middle" x="1766.5" y="-650.2" font-family="Helvetica,sans-Serif" font-size="11.00">(stereo out)</text>
</g>
<!-- CM_DAC&#45;&gt;OUT_JACK -->
<g id="edge19" class="edge">
<title>CM_DAC&#45;&gt;OUT_JACK</title>
<path fill="none" stroke="#c62828" d="M1494.98,-636.09C1494.98,-642.66 1494.98,-648.5 1494.98,-648.5 1494.98,-648.5 1703.83,-648.5 1703.83,-648.5"/>
<polygon fill="#c62828" stroke="#c62828" points="1703.83,-652 1713.83,-648.5 1703.83,-645 1703.83,-652"/>
<text text-anchor="middle" x="1624.5" y="-666.8" font-family="Helvetica,sans-Serif" font-size="9.00">3.5mm</text>
<text text-anchor="middle" x="1624.5" y="-656.8" font-family="Helvetica,sans-Serif" font-size="9.00">TRS</text>
</g>
<!-- GLI -->
<g id="node9" class="node">
<title>GLI</title>
<path fill="#a5d6a7" stroke="#2e7d32" d="M1823,-573C1823,-573 1710,-573 1710,-573 1704,-573 1698,-567 1698,-561 1698,-561 1698,-529 1698,-529 1698,-523 1704,-517 1710,-517 1710,-517 1823,-517 1823,-517 1829,-517 1835,-523 1835,-529 1835,-529 1835,-561 1835,-561 1835,-567 1829,-573 1823,-573"/>
<text text-anchor="middle" x="1766.5" y="-560.2" font-family="Helvetica,sans-Serif" font-size="11.00">Ground Loop Isolator</text>
<text text-anchor="middle" x="1766.5" y="-548.2" font-family="Helvetica,sans-Serif" font-size="11.00">(e.g. Mpow/Aukey)</text>
<text text-anchor="middle" x="1766.5" y="-536.2" font-family="Helvetica,sans-Serif" font-size="11.00">1:1 audio transformer</text>
<text text-anchor="middle" x="1766.5" y="-524.2" font-family="Helvetica,sans-Serif" font-size="11.00">← eliminates AC hum</text>
</g>
<!-- CM_DAC&#45;&gt;GLI -->
<g id="edge20" class="edge">
<title>CM_DAC&#45;&gt;GLI</title>
<path fill="none" stroke="#2e7d32" stroke-dasharray="5,2" d="M1551.08,-618C1614.16,-618 1706.98,-618 1706.98,-618 1706.98,-618 1706.98,-583.01 1706.98,-583.01"/>
<polygon fill="#2e7d32" stroke="#2e7d32" points="1710.48,-583.01 1706.98,-573.01 1703.48,-583.01 1710.48,-583.01"/>
<text text-anchor="middle" x="1624.5" y="-586.8" font-family="Helvetica,sans-Serif" font-size="9.00">3.5mm TRS</text>
<text text-anchor="middle" x="1624.5" y="-576.8" font-family="Helvetica,sans-Serif" font-size="9.00">→ insert GLI</text>
<text text-anchor="middle" x="1624.5" y="-566.8" font-family="Helvetica,sans-Serif" font-size="9.00">between jack</text>
<text text-anchor="middle" x="1624.5" y="-556.8" font-family="Helvetica,sans-Serif" font-size="9.00">and amp</text>
</g>
<!-- CM_ADC -->
<g id="node4" class="node">
<title>CM_ADC</title>
<path fill="#ffe082" stroke="#f9a825" d="M1123.5,-643C1123.5,-643 1026.5,-643 1026.5,-643 1020.5,-643 1014.5,-637 1014.5,-631 1014.5,-631 1014.5,-611 1014.5,-611 1014.5,-605 1020.5,-599 1026.5,-599 1026.5,-599 1123.5,-599 1123.5,-599 1129.5,-599 1135.5,-605 1135.5,-611 1135.5,-611 1135.5,-631 1135.5,-631 1135.5,-637 1129.5,-643 1123.5,-643"/>
<text text-anchor="middle" x="1075" y="-630.2" font-family="Helvetica,sans-Serif" font-size="11.00">CM108 ADC</text>
<text text-anchor="middle" x="1075" y="-618.2" font-family="Helvetica,sans-Serif" font-size="11.00">analog → 44.1kHz</text>
<text text-anchor="middle" x="1075" y="-606.2" font-family="Helvetica,sans-Serif" font-size="11.00">SNR ~60 dB (poor)</text>
</g>
<!-- CM_ADC&#45;&gt;CM_USB -->
<g id="edge4" class="edge">
<title>CM_ADC&#45;&gt;CM_USB</title>
<path fill="none" stroke="#f9a825" d="M1135.56,-621.6C1135.56,-621.6 1279.87,-621.6 1279.87,-621.6"/>
<polygon fill="#f9a825" stroke="#f9a825" points="1279.87,-625.1 1289.87,-621.6 1279.87,-618.1 1279.87,-625.1"/>
</g>
<!-- CM_ADC&#45;&gt;CM_USB -->
<g id="edge22" class="edge">
<title>CM_ADC&#45;&gt;CM_USB</title>
<path fill="none" stroke="#f9a825" d="M1135.56,-628.8C1135.56,-628.8 1279.87,-628.8 1279.87,-628.8"/>
<polygon fill="#f9a825" stroke="#f9a825" points="1279.87,-632.3 1289.87,-628.8 1279.87,-625.3 1279.87,-632.3"/>
</g>
<!-- CM_USB&#45;&gt;VERA_SW -->
<g id="edge23" class="edge">
<title>CM_USB&#45;&gt;VERA_SW</title>
<path fill="none" stroke="#f9a825" d="M1289.82,-607.2C1240.72,-607.2 1148.98,-607.2 1148.98,-607.2 1148.98,-607.2 1148.98,-531.16 1148.98,-531.16"/>
<polygon fill="#f9a825" stroke="#f9a825" points="1152.48,-531.16 1148.98,-521.16 1145.48,-531.16 1152.48,-531.16"/>
<text text-anchor="middle" x="1222.5" y="-522.8" font-family="Helvetica,sans-Serif" font-size="9.00">USB audio</text>
<text text-anchor="middle" x="1222.5" y="-512.8" font-family="Helvetica,sans-Serif" font-size="9.00">(capture)</text>
</g>
<!-- CM_USB&#45;&gt;CM_DAC -->
<g id="edge3" class="edge">
<title>CM_USB&#45;&gt;CM_DAC</title>
<path fill="none" stroke="#f9a825" d="M1350.31,-618C1350.31,-618 1426.99,-618 1426.99,-618"/>
<polygon fill="#f9a825" stroke="#f9a825" points="1426.99,-621.5 1436.99,-618 1426.99,-614.5 1426.99,-621.5"/>
</g>
<!-- PAM8403 -->
<g id="node7" class="node">
<title>PAM8403</title>
<path fill="#ef9a9a" stroke="#c62828" d="M2071,-695C2071,-695 1985,-695 1985,-695 1979,-695 1973,-689 1973,-683 1973,-683 1973,-663 1973,-663 1973,-657 1979,-651 1985,-651 1985,-651 2071,-651 2071,-651 2077,-651 2083,-657 2083,-663 2083,-663 2083,-683 2083,-683 2083,-689 2077,-695 2071,-695"/>
<text text-anchor="middle" x="2028" y="-682.2" font-family="Helvetica,sans-Serif" font-size="11.00">PAM8403</text>
<text text-anchor="middle" x="2028" y="-670.2" font-family="Helvetica,sans-Serif" font-size="11.00">Class&#45;D Amplifier</text>
<text text-anchor="middle" x="2028" y="-658.2" font-family="Helvetica,sans-Serif" font-size="11.00">2× 3W @ 5V</text>
</g>
<!-- OUT_JACK&#45;&gt;PAM8403 -->
<g id="edge5" class="edge">
<title>OUT_JACK&#45;&gt;PAM8403</title>
<path fill="none" stroke="#c62828" d="M1819.1,-664C1819.1,-664 1962.77,-664 1962.77,-664"/>
<polygon fill="#c62828" stroke="#c62828" points="1962.77,-667.5 1972.77,-664 1962.77,-660.5 1962.77,-667.5"/>
<text text-anchor="middle" x="1898" y="-687.8" font-family="Helvetica,sans-Serif" font-size="9.00">line level</text>
<text text-anchor="middle" x="1898" y="-677.8" font-family="Helvetica,sans-Serif" font-size="9.00">~1 Vpp</text>
</g>
<!-- SPEAKERS -->
<g id="node8" class="node">
<title>SPEAKERS</title>
<ellipse fill="#ef9a9a" stroke="#c62828" cx="2298.25" cy="-672" rx="74.49" ry="22.76"/>
<text text-anchor="middle" x="2298.25" y="-675.2" font-family="Helvetica,sans-Serif" font-size="11.00">2× 8Ω Speakers</text>
<text text-anchor="middle" x="2298.25" y="-663.2" font-family="Helvetica,sans-Serif" font-size="11.00">(L + R)</text>
</g>
<!-- PAM8403&#45;&gt;SPEAKERS -->
<g id="edge6" class="edge">
<title>PAM8403&#45;&gt;SPEAKERS</title>
<path fill="none" stroke="#c62828" d="M2083.01,-672.81C2083.01,-672.81 2213.84,-672.81 2213.84,-672.81"/>
<polygon fill="#c62828" stroke="#c62828" points="2213.84,-676.31 2223.84,-672.81 2213.84,-669.31 2213.84,-676.31"/>
<text text-anchor="middle" x="2159.5" y="-687.8" font-family="Helvetica,sans-Serif" font-size="9.00">amplified</text>
<text text-anchor="middle" x="2159.5" y="-677.8" font-family="Helvetica,sans-Serif" font-size="9.00">~1–2 W</text>
</g>
<!-- PAM8403B -->
<g id="node10" class="node">
<title>PAM8403B</title>
<path fill="#a5d6a7" stroke="#2e7d32" d="M2083,-573C2083,-573 1973,-573 1973,-573 1967,-573 1961,-567 1961,-561 1961,-561 1961,-517 1961,-517 1961,-511 1967,-505 1973,-505 1973,-505 2083,-505 2083,-505 2089,-505 2095,-511 2095,-517 2095,-517 2095,-561 2095,-561 2095,-567 2089,-573 2083,-573"/>
<text text-anchor="middle" x="2028" y="-560.2" font-family="Helvetica,sans-Serif" font-size="11.00">PAM8403 (same)</text>
<text text-anchor="middle" x="2028" y="-548.2" font-family="Helvetica,sans-Serif" font-size="11.00">Class&#45;D Amp</text>
<text text-anchor="middle" x="2028" y="-536.2" font-family="Helvetica,sans-Serif" font-size="11.00">2× 3W @ 5V</text>
<text text-anchor="middle" x="2028" y="-524.2" font-family="Helvetica,sans-Serif" font-size="11.00">← add 470µF + 0.1µF</text>
<text text-anchor="middle" x="2028" y="-512.2" font-family="Helvetica,sans-Serif" font-size="11.00"> &#160;&#160;&#160;decoupling on VCC</text>
</g>
<!-- GLI&#45;&gt;PAM8403B -->
<g id="edge7" class="edge">
<title>GLI&#45;&gt;PAM8403B</title>
<path fill="none" stroke="#2e7d32" d="M1835.21,-545C1835.21,-545 1950.66,-545 1950.66,-545"/>
<polygon fill="#2e7d32" stroke="#2e7d32" points="1950.66,-548.5 1960.66,-545 1950.66,-541.5 1950.66,-548.5"/>
<text text-anchor="middle" x="1898" y="-565.8" font-family="Helvetica,sans-Serif" font-size="9.00">isolated</text>
<text text-anchor="middle" x="1898" y="-555.8" font-family="Helvetica,sans-Serif" font-size="9.00">line level</text>
</g>
<!-- CAP_OUT -->
<g id="node11" class="node">
<title>CAP_OUT</title>
<path fill="#a5d6a7" stroke="#2e7d32" d="M2344.25,-571C2344.25,-571 2252.25,-571 2252.25,-571 2246.25,-571 2240.25,-565 2240.25,-559 2240.25,-559 2240.25,-527 2240.25,-527 2240.25,-521 2246.25,-515 2252.25,-515 2252.25,-515 2344.25,-515 2344.25,-515 2350.25,-515 2356.25,-521 2356.25,-527 2356.25,-527 2356.25,-559 2356.25,-559 2356.25,-565 2350.25,-571 2344.25,-571"/>
<text text-anchor="middle" x="2298.25" y="-558.2" font-family="Helvetica,sans-Serif" font-size="11.00">Output Filter</text>
<text text-anchor="middle" x="2298.25" y="-546.2" font-family="Helvetica,sans-Serif" font-size="11.00">10µF cap in series</text>
<text text-anchor="middle" x="2298.25" y="-534.2" font-family="Helvetica,sans-Serif" font-size="11.00">per channel</text>
<text text-anchor="middle" x="2298.25" y="-522.2" font-family="Helvetica,sans-Serif" font-size="11.00">(blocks DC offset)</text>
</g>
<!-- PAM8403B&#45;&gt;CAP_OUT -->
<g id="edge8" class="edge">
<title>PAM8403B&#45;&gt;CAP_OUT</title>
<path fill="none" stroke="#2e7d32" d="M2095.15,-543C2095.15,-543 2230.15,-543 2230.15,-543"/>
<polygon fill="#2e7d32" stroke="#2e7d32" points="2230.15,-546.5 2240.15,-543 2230.15,-539.5 2230.15,-546.5"/>
</g>
<!-- SPEAKERS2 -->
<g id="node12" class="node">
<title>SPEAKERS2</title>
<ellipse fill="#a5d6a7" stroke="#2e7d32" cx="2575.74" cy="-550" rx="74.49" ry="22.76"/>
<text text-anchor="middle" x="2575.74" y="-553.2" font-family="Helvetica,sans-Serif" font-size="11.00">2× 8Ω Speakers</text>
<text text-anchor="middle" x="2575.74" y="-541.2" font-family="Helvetica,sans-Serif" font-size="11.00">(L + R)</text>
</g>
<!-- CAP_OUT&#45;&gt;SPEAKERS2 -->
<g id="edge9" class="edge">
<title>CAP_OUT&#45;&gt;SPEAKERS2</title>
<path fill="none" stroke="#2e7d32" d="M2356.42,-549.19C2356.42,-549.19 2491.52,-549.19 2491.52,-549.19"/>
<polygon fill="#2e7d32" stroke="#2e7d32" points="2491.52,-552.69 2501.52,-549.19 2491.52,-545.69 2491.52,-552.69"/>
<text text-anchor="middle" x="2436.99" y="-565.8" font-family="Helvetica,sans-Serif" font-size="9.00">clean</text>
<text text-anchor="middle" x="2436.99" y="-555.8" font-family="Helvetica,sans-Serif" font-size="9.00">amplified</text>
</g>
<!-- CAPSULE -->
<g id="node13" class="node">
<title>CAPSULE</title>
<ellipse fill="#ef9a9a" stroke="#c62828" cx="123" cy="-690" rx="64.19" ry="18"/>
<text text-anchor="middle" x="123" y="-687.2" font-family="Helvetica,sans-Serif" font-size="11.00">Electret Capsule</text>
</g>
<!-- MAX4466 -->
<g id="node14" class="node">
<title>MAX4466</title>
<path fill="#ef9a9a" stroke="#c62828" d="M519.5,-718C519.5,-718 400.5,-718 400.5,-718 394.5,-718 388.5,-712 388.5,-706 388.5,-706 388.5,-674 388.5,-674 388.5,-668 394.5,-662 400.5,-662 400.5,-662 519.5,-662 519.5,-662 525.5,-662 531.5,-668 531.5,-674 531.5,-674 531.5,-706 531.5,-706 531.5,-712 525.5,-718 519.5,-718"/>
<text text-anchor="middle" x="460" y="-705.2" font-family="Helvetica,sans-Serif" font-size="11.00">MAX4466 Preamp</text>
<text text-anchor="middle" x="460" y="-693.2" font-family="Helvetica,sans-Serif" font-size="11.00">+10–50 dB analog gain</text>
<text text-anchor="middle" x="460" y="-681.2" font-family="Helvetica,sans-Serif" font-size="11.00">VCC from Pi 3.3V</text>
<text text-anchor="middle" x="460" y="-669.2" font-family="Helvetica,sans-Serif" font-size="11.00">← noisy PSU rail</text>
</g>
<!-- CAPSULE&#45;&gt;MAX4466 -->
<g id="edge10" class="edge">
<title>CAPSULE&#45;&gt;MAX4466</title>
<path fill="none" stroke="#c62828" d="M187.58,-690C187.58,-690 378.35,-690 378.35,-690"/>
<polygon fill="#c62828" stroke="#c62828" points="378.35,-693.5 388.35,-690 378.35,-686.5 378.35,-693.5"/>
<text text-anchor="middle" x="299.5" y="-692.8" font-family="Helvetica,sans-Serif" font-size="9.00">~1 mV</text>
</g>
<!-- MIC_JACK -->
<g id="node15" class="node">
<title>MIC_JACK</title>
<path fill="#ef9a9a" stroke="#c62828" d="M802.5,-698C802.5,-698 726.5,-698 726.5,-698 720.5,-698 714.5,-692 714.5,-686 714.5,-686 714.5,-666 714.5,-666 714.5,-660 720.5,-654 726.5,-654 726.5,-654 802.5,-654 802.5,-654 808.5,-654 814.5,-660 814.5,-666 814.5,-666 814.5,-686 814.5,-686 814.5,-692 808.5,-698 802.5,-698"/>
<text text-anchor="middle" x="764.5" y="-685.2" font-family="Helvetica,sans-Serif" font-size="11.00">3.5mm TRRS</text>
<text text-anchor="middle" x="764.5" y="-673.2" font-family="Helvetica,sans-Serif" font-size="11.00">Mic Jack</text>
<text text-anchor="middle" x="764.5" y="-661.2" font-family="Helvetica,sans-Serif" font-size="11.00">(CM108 mic in)</text>
</g>
<!-- MAX4466&#45;&gt;MIC_JACK -->
<g id="edge11" class="edge">
<title>MAX4466&#45;&gt;MIC_JACK</title>
<path fill="none" stroke="#c62828" stroke-dasharray="5,2" d="M531.78,-680C531.78,-680 704.13,-680 704.13,-680"/>
<polygon fill="#c62828" stroke="#c62828" points="704.13,-683.5 714.13,-680 704.13,-676.5 704.13,-683.5"/>
<text text-anchor="middle" x="624.5" y="-722.8" font-family="Helvetica,sans-Serif" font-size="9.00">analog</text>
<text text-anchor="middle" x="624.5" y="-712.8" font-family="Helvetica,sans-Serif" font-size="9.00">~0.5 Vpp</text>
<text text-anchor="middle" x="624.5" y="-702.8" font-family="Helvetica,sans-Serif" font-size="9.00">← AC hum</text>
<text text-anchor="middle" x="624.5" y="-692.8" font-family="Helvetica,sans-Serif" font-size="9.00"> &#160;ground loop</text>
</g>
<!-- MIC_JACK&#45;&gt;CM_ADC -->
<!-- MIC_JACK&#45;&gt;CM_ADC -->
<g id="edge21" class="edge">
<title>MIC_JACK&#45;&gt;CM_ADC</title>
<path fill="none" stroke="#c62828" d="M814.85,-669.33C907.58,-669.33 1095.98,-669.33 1095.98,-669.33 1095.98,-669.33 1095.98,-653.19 1095.98,-653.19"/>
<polygon fill="#c62828" stroke="#c62828" points="1099.48,-653.19 1095.98,-643.19 1092.48,-653.19 1099.48,-653.19"/>
<text text-anchor="middle" x="911" y="-637.8" font-family="Helvetica,sans-Serif" font-size="9.00">3.5mm TRRS</text>
<text text-anchor="middle" x="911" y="-627.8" font-family="Helvetica,sans-Serif" font-size="9.00">mic input</text>
</g>
<!-- RESPEAKER -->
<g id="node16" class="node">
<title>RESPEAKER</title>
<path fill="#a5d6a7" stroke="#2e7d32" d="M176.5,-576C176.5,-576 69.5,-576 69.5,-576 63.5,-576 57.5,-570 57.5,-564 57.5,-564 57.5,-484 57.5,-484 57.5,-478 63.5,-472 69.5,-472 69.5,-472 176.5,-472 176.5,-472 182.5,-472 188.5,-478 188.5,-484 188.5,-484 188.5,-564 188.5,-564 188.5,-570 182.5,-576 176.5,-576"/>
<text text-anchor="middle" x="123" y="-563.2" font-family="Helvetica,sans-Serif" font-size="11.00">ReSpeaker USB</text>
<text text-anchor="middle" x="123" y="-551.2" font-family="Helvetica,sans-Serif" font-size="11.00">Mic Array v2.0</text>
<text text-anchor="middle" x="123" y="-539.2" font-family="Helvetica,sans-Serif" font-size="11.00">4× MEMS mics</text>
<text text-anchor="middle" x="123" y="-527.2" font-family="Helvetica,sans-Serif" font-size="11.00">Beamforming DSP</text>
<text text-anchor="middle" x="123" y="-515.2" font-family="Helvetica,sans-Serif" font-size="11.00">EchoCancellation</text>
<text text-anchor="middle" x="123" y="-503.2" font-family="Helvetica,sans-Serif" font-size="11.00">Noise Suppression</text>
<text text-anchor="middle" x="123" y="-491.2" font-family="Helvetica,sans-Serif" font-size="11.00">← zero analog path</text>
<text text-anchor="middle" x="123" y="-479.2" font-family="Helvetica,sans-Serif" font-size="11.00"> &#160;&#160;zero code changes</text>
</g>
<!-- USB_MIC -->
<g id="node17" class="node">
<title>USB_MIC</title>
<path fill="#a5d6a7" stroke="#2e7d32" d="M518,-531C518,-531 402,-531 402,-531 396,-531 390,-525 390,-519 390,-519 390,-499 390,-499 390,-493 396,-487 402,-487 402,-487 518,-487 518,-487 524,-487 530,-493 530,-499 530,-499 530,-519 530,-519 530,-525 524,-531 518,-531"/>
<text text-anchor="middle" x="460" y="-518.2" font-family="Helvetica,sans-Serif" font-size="11.00">USB 2.0</text>
<text text-anchor="middle" x="460" y="-506.2" font-family="Helvetica,sans-Serif" font-size="11.00">(separate port</text>
<text text-anchor="middle" x="460" y="-494.2" font-family="Helvetica,sans-Serif" font-size="11.00">from speaker adapter)</text>
</g>
<!-- RESPEAKER&#45;&gt;USB_MIC -->
<g id="edge13" class="edge">
<title>RESPEAKER&#45;&gt;USB_MIC</title>
<path fill="none" stroke="#2e7d32" d="M188.78,-509C188.78,-509 379.74,-509 379.74,-509"/>
<polygon fill="#2e7d32" stroke="#2e7d32" points="379.74,-512.5 389.74,-509 379.74,-505.5 379.74,-512.5"/>
</g>
<!-- USB_MIC&#45;&gt;ALSA -->
<g id="edge24" class="edge">
<title>USB_MIC&#45;&gt;ALSA</title>
<path fill="none" stroke="#2e7d32" stroke-dasharray="5,2" d="M530.02,-504C603.66,-504 708.98,-504 708.98,-504 708.98,-504 708.98,-454.09 708.98,-454.09"/>
<polygon fill="#2e7d32" stroke="#2e7d32" points="712.48,-454.09 708.98,-444.09 705.48,-454.09 712.48,-454.09"/>
<text text-anchor="middle" x="624.5" y="-516.8" font-family="Helvetica,sans-Serif" font-size="9.00">USB audio</text>
<text text-anchor="middle" x="624.5" y="-506.8" font-family="Helvetica,sans-Serif" font-size="9.00">new ALSA card</text>
<text text-anchor="middle" x="624.5" y="-496.8" font-family="Helvetica,sans-Serif" font-size="9.00">(card 3)</text>
</g>
<!-- INMP441 -->
<g id="node18" class="node">
<title>INMP441</title>
<path fill="#90caf9" stroke="#1565c0" d="M178.5,-408C178.5,-408 67.5,-408 67.5,-408 61.5,-408 55.5,-402 55.5,-396 55.5,-396 55.5,-340 55.5,-340 55.5,-334 61.5,-328 67.5,-328 67.5,-328 178.5,-328 178.5,-328 184.5,-328 190.5,-334 190.5,-340 190.5,-340 190.5,-396 190.5,-396 190.5,-402 184.5,-408 178.5,-408"/>
<text text-anchor="middle" x="123" y="-395.2" font-family="Helvetica,sans-Serif" font-size="11.00">INMP441 or ICS43434</text>
<text text-anchor="middle" x="123" y="-383.2" font-family="Helvetica,sans-Serif" font-size="11.00">MEMS I2S Mic</text>
<text text-anchor="middle" x="123" y="-371.2" font-family="Helvetica,sans-Serif" font-size="11.00">SNR 61 dB (INMP441)</text>
<text text-anchor="middle" x="123" y="-359.2" font-family="Helvetica,sans-Serif" font-size="11.00"> &#160;&#160;&#160;&#160;65 dB (ICS43434)</text>
<text text-anchor="middle" x="123" y="-347.2" font-family="Helvetica,sans-Serif" font-size="11.00">Flat 60–15kHz</text>
<text text-anchor="middle" x="123" y="-335.2" font-family="Helvetica,sans-Serif" font-size="11.00">3.3V, no PSU noise</text>
</g>
<!-- I2S_PIN -->
<g id="node19" class="node">
<title>I2S_PIN</title>
<path fill="#90caf9" stroke="#1565c0" d="M535,-408C535,-408 385,-408 385,-408 379,-408 373,-402 373,-396 373,-396 373,-352 373,-352 373,-346 379,-340 385,-340 385,-340 535,-340 535,-340 541,-340 547,-346 547,-352 547,-352 547,-396 547,-396 547,-402 541,-408 535,-408"/>
<text text-anchor="middle" x="460" y="-395.2" font-family="Helvetica,sans-Serif" font-size="11.00">Pi 5 GPIO</text>
<text text-anchor="middle" x="460" y="-383.2" font-family="Helvetica,sans-Serif" font-size="11.00">I2S BCK/WS/DIN</text>
<text text-anchor="middle" x="460" y="-371.2" font-family="Helvetica,sans-Serif" font-size="11.00">(needs dtoverlay</text>
<text text-anchor="middle" x="460" y="-359.2" font-family="Helvetica,sans-Serif" font-size="11.00">= googlevoicehat&#45;soundcard</text>
<text text-anchor="middle" x="460" y="-347.2" font-family="Helvetica,sans-Serif" font-size="11.00"> &#160;or i2s&#45;mmap)</text>
</g>
<!-- INMP441&#45;&gt;I2S_PIN -->
<g id="edge14" class="edge">
<title>INMP441&#45;&gt;I2S_PIN</title>
<path fill="none" stroke="#1565c0" d="M190.79,-374C190.79,-374 362.77,-374 362.77,-374"/>
<polygon fill="#1565c0" stroke="#1565c0" points="362.77,-377.5 372.77,-374 362.77,-370.5 362.77,-377.5"/>
<text text-anchor="middle" x="299.5" y="-390.8" font-family="Helvetica,sans-Serif" font-size="9.00">digital I2S</text>
<text text-anchor="middle" x="299.5" y="-380.8" font-family="Helvetica,sans-Serif" font-size="9.00">32&#45;bit frames</text>
</g>
<!-- I2S_PIN&#45;&gt;ALSA -->
<g id="edge25" class="edge">
<title>I2S_PIN&#45;&gt;ALSA</title>
<path fill="none" stroke="#1565c0" stroke-dasharray="5,2" d="M539.98,-408.1C539.98,-417.91 539.98,-426 539.98,-426 539.98,-426 691.96,-426 691.96,-426"/>
<polygon fill="#1565c0" stroke="#1565c0" points="691.96,-429.5 701.96,-426 691.96,-422.5 691.96,-429.5"/>
<text text-anchor="middle" x="624.5" y="-401.8" font-family="Helvetica,sans-Serif" font-size="9.00">I2S → snd&#45;soc</text>
<text text-anchor="middle" x="624.5" y="-391.8" font-family="Helvetica,sans-Serif" font-size="9.00">ALSA card</text>
</g>
<!-- SW1 -->
<g id="node20" class="node">
<title>SW1</title>
<path fill="#ce93d8" stroke="#6a1b9a" d="M189.5,-276C189.5,-276 56.5,-276 56.5,-276 50.5,-276 44.5,-270 44.5,-264 44.5,-264 44.5,-232 44.5,-232 44.5,-226 50.5,-220 56.5,-220 56.5,-220 189.5,-220 189.5,-220 195.5,-220 201.5,-226 201.5,-232 201.5,-232 201.5,-264 201.5,-264 201.5,-270 195.5,-276 189.5,-276"/>
<text text-anchor="middle" x="123" y="-263.2" font-family="Helvetica,sans-Serif" font-size="11.00">Speaker Volume</text>
<text text-anchor="middle" x="123" y="-251.2" font-family="Helvetica,sans-Serif" font-size="11.00">amixer sset Speaker 85%</text>
<text text-anchor="middle" x="123" y="-239.2" font-family="Helvetica,sans-Serif" font-size="11.00">current: 30% (&#45;26dB)</text>
<text text-anchor="middle" x="123" y="-227.2" font-family="Helvetica,sans-Serif" font-size="11.00">→ target: 85% (&#45;4dB)</text>
</g>
<!-- SW4 -->
<g id="node23" class="node">
<title>SW4</title>
<path fill="#ce93d8" stroke="#6a1b9a" d="M517,-219C517,-219 403,-219 403,-219 397,-219 391,-213 391,-207 391,-207 391,-187 391,-187 391,-181 397,-175 403,-175 403,-175 517,-175 517,-175 523,-175 529,-181 529,-187 529,-187 529,-207 529,-207 529,-213 523,-219 517,-219"/>
<text text-anchor="middle" x="460" y="-206.2" font-family="Helvetica,sans-Serif" font-size="11.00">Persist via ALSA state</text>
<text text-anchor="middle" x="460" y="-194.2" font-family="Helvetica,sans-Serif" font-size="11.00">sudo alsactl store</text>
<text text-anchor="middle" x="460" y="-182.2" font-family="Helvetica,sans-Serif" font-size="11.00">→ survives reboot</text>
</g>
<!-- SW1&#45;&gt;SW4 -->
<!-- SW2 -->
<g id="node21" class="node">
<title>SW2</title>
<path fill="#ce93d8" stroke="#6a1b9a" d="M214,-170C214,-170 32,-170 32,-170 26,-170 20,-164 20,-158 20,-158 20,-138 20,-138 20,-132 26,-126 32,-126 32,-126 214,-126 214,-126 220,-126 226,-132 226,-138 226,-138 226,-158 226,-158 226,-164 220,-170 214,-170"/>
<text text-anchor="middle" x="123" y="-157.2" font-family="Helvetica,sans-Serif" font-size="11.00">Disable AGC</text>
<text text-anchor="middle" x="123" y="-145.2" font-family="Helvetica,sans-Serif" font-size="11.00">amixer sset &#39;Auto Gain Control&#39; off</text>
<text text-anchor="middle" x="123" y="-133.2" font-family="Helvetica,sans-Serif" font-size="11.00">(already off — keep it off)</text>
</g>
<!-- SW2&#45;&gt;SW4 -->
<!-- SW3 -->
<g id="node22" class="node">
<title>SW3</title>
<path fill="#ce93d8" stroke="#6a1b9a" d="M191.5,-76C191.5,-76 54.5,-76 54.5,-76 48.5,-76 42.5,-70 42.5,-64 42.5,-64 42.5,-32 42.5,-32 42.5,-26 48.5,-20 54.5,-20 54.5,-20 191.5,-20 191.5,-20 197.5,-20 203.5,-26 203.5,-32 203.5,-32 203.5,-64 203.5,-64 203.5,-70 197.5,-76 191.5,-76"/>
<text text-anchor="middle" x="123" y="-63.2" font-family="Helvetica,sans-Serif" font-size="11.00">Mic Gain</text>
<text text-anchor="middle" x="123" y="-51.2" font-family="Helvetica,sans-Serif" font-size="11.00">amixer sset Mic 80% cap</text>
<text text-anchor="middle" x="123" y="-39.2" font-family="Helvetica,sans-Serif" font-size="11.00">current: 100% (+23dB)</text>
<text text-anchor="middle" x="123" y="-27.2" font-family="Helvetica,sans-Serif" font-size="11.00">→ reduce to avoid clipping</text>
</g>
<!-- SW3&#45;&gt;SW4 -->
<!-- SW4&#45;&gt;ALSA -->
<g id="edge26" class="edge">
<title>SW4&#45;&gt;ALSA</title>
<path fill="none" stroke="#6a1b9a" stroke-dasharray="1,5" d="M529.21,-197C619.19,-197 764.98,-197 764.98,-197 764.98,-197 764.98,-397.65 764.98,-397.65"/>
<polygon fill="#6a1b9a" stroke="#6a1b9a" points="761.48,-397.65 764.98,-407.65 768.48,-397.65 761.48,-397.65"/>
<text text-anchor="middle" x="624.5" y="-251.8" font-family="Helvetica,sans-Serif" font-size="9.00">alsa state</text>
<text text-anchor="middle" x="624.5" y="-241.8" font-family="Helvetica,sans-Serif" font-size="9.00">persist</text>
</g>
</g>
</svg>
