<?xml version="1.0" encoding="UTF-8" standalone="no"?>
<!DOCTYPE svg PUBLIC "-//W3C//DTD SVG 1.1//EN"
 "http://www.w3.org/Graphics/SVG/1.1/DTD/svg11.dtd">
<!-- Generated by graphviz version 2.42.4 (0)
 -->
<!-- Title: DesktopAssistant Pages: 1 -->
<svg width="1924pt" height="731pt"
 viewBox="0.00 0.00 1924.00 731.00" xmlns="http://www.w3.org/2000/svg" xmlns:xlink="http://www.w3.org/1999/xlink">
<g id="graph0" class="graph" transform="scale(1 1) rotate(0) translate(4 727)">
<title>DesktopAssistant</title>
<polygon fill="white" stroke="transparent" points="-4,4 -4,-727 1920,-727 1920,4 -4,4"/>
<text text-anchor="start" x="771" y="-707.2" font-family="Helvetica,sans-Serif" font-weight="bold" font-size="16.00">Desktop Assistant — System Architecture</text>
<text text-anchor="start" x="876.5" y="-696" font-family="Helvetica,sans-Serif" font-size="10.00">v0.8.0 — telemetry + status + CI</text>
<g id="clust1" class="cluster">
<title>cluster_hw</title>
<path fill="#f5e9d8" stroke="black" d="M72,-590C72,-590 1099,-590 1099,-590 1105,-590 1111,-596 1111,-602 1111,-602 1111,-669 1111,-669 1111,-675 1105,-681 1099,-681 1099,-681 72,-681 72,-681 66,-681 60,-675 60,-669 60,-669 60,-602 60,-602 60,-596 66,-590 72,-590"/>
<text text-anchor="middle" x="585.5" y="-668.2" font-family="Helvetica,sans-Serif" font-size="11.00">Hardware (Raspberry Pi 5)</text>
</g>
<g id="clust2" class="cluster">
<title>cluster_drv</title>
<path fill="#dfeefc" stroke="black" d="M20,-264C20,-264 1218,-264 1218,-264 1224,-264 1230,-270 1230,-276 1230,-276 1230,-547 1230,-547 1230,-553 1224,-559 1218,-559 1218,-559 20,-559 20,-559 14,-559 8,-553 8,-547 8,-547 8,-276 8,-276 8,-270 14,-264 20,-264"/>
<text text-anchor="middle" x="619" y="-546.2" font-family="Helvetica,sans-Serif" font-size="11.00">Drivers (src/)</text>
</g>
<g id="clust3" class="cluster">
<title>cluster_core</title>
<path fill="#e7e3fb" stroke="black" d="M587,-8C587,-8 964,-8 964,-8 970,-8 976,-14 976,-20 976,-20 976,-76 976,-76 976,-82 970,-88 964,-88 964,-88 587,-88 587,-88 581,-88 575,-82 575,-76 575,-76 575,-20 575,-20 575,-14 581,-8 587,-8"/>
<text text-anchor="middle" x="775.5" y="-75.2" font-family="Helvetica,sans-Serif" font-size="11.00">Core (src/core/)</text>
</g>
<g id="clust6" class="cluster">
<title>cluster_ext</title>
<path fill="#fff7c2" stroke="black" d="M1255,-260C1255,-260 1896,-260 1896,-260 1902,-260 1908,-266 1908,-272 1908,-272 1908,-328 1908,-328 1908,-334 1902,-340 1896,-340 1896,-340 1255,-340 1255,-340 1249,-340 1243,-334 1243,-328 1243,-328 1243,-272 1243,-272 1243,-266 1249,-260 1255,-260"/>
<text text-anchor="middle" x="1575.5" y="-327.2" font-family="Helvetica,sans-Serif" font-size="11.00">External processes</text>
</g>
<!-- hw_tmp117 -->
<g id="node1" class="node">
<title>hw_tmp117</title>
<path fill="#ffd6a5" stroke="black" d="M936.5,-647.5C936.5,-647.5 889.5,-647.5 889.5,-647.5 883.5,-647.5 877.5,-641.5 877.5,-635.5 877.5,-635.5 877.5,-615.5 877.5,-615.5 877.5,-609.5 883.5,-603.5 889.5,-603.5 889.5,-603.5 936.5,-603.5 936.5,-603.5 942.5,-603.5 948.5,-609.5 948.5,-615.5 948.5,-615.5 948.5,-635.5 948.5,-635.5 948.5,-641.5 942.5,-647.5 936.5,-647.5"/>
<text text-anchor="middle" x="913" y="-628.5" font-family="Helvetica,sans-Serif" font-size="10.00">TMP117</text>
<text text-anchor="middle" x="913" y="-617.5" font-family="Helvetica,sans-Serif" font-size="10.00">(I²C 0x48)</text>
</g>
<!-- drv_tmp117 -->
<g id="node8" class="node">
<title>drv_tmp117</title>
<path fill="#a5c8ff" stroke="black" d="M1022,-521.5C1022,-521.5 930,-521.5 930,-521.5 924,-521.5 918,-515.5 918,-509.5 918,-509.5 918,-497.5 918,-497.5 918,-491.5 924,-485.5 930,-485.5 930,-485.5 1022,-485.5 1022,-485.5 1028,-485.5 1034,-491.5 1034,-497.5 1034,-497.5 1034,-509.5 1034,-509.5 1034,-515.5 1028,-521.5 1022,-521.5"/>
<text text-anchor="middle" x="976" y="-501" font-family="Helvetica,sans-Serif" font-size="10.00">thermal/tmp117.py</text>
</g>
<!-- hw_tmp117&#45;&gt;drv_tmp117 -->
<g id="edge1" class="edge">
<title>hw_tmp117&#45;&gt;drv_tmp117</title>
<path fill="none" stroke="#555555" d="M924.12,-603.32C934.76,-583.04 950.86,-552.39 962.29,-530.61"/>
<polygon fill="#555555" stroke="#555555" points="965.48,-532.07 967.03,-521.59 959.28,-528.81 965.48,-532.07"/>
<text text-anchor="middle" x="947.5" y="-569.6" font-family="Helvetica,sans-Serif" font-size="8.00">I²C</text>
</g>
<!-- hw_fan -->
<g id="node2" class="node">
<title>hw_fan</title>
<path fill="#ffd6a5" stroke="black" d="M706,-653C706,-653 504,-653 504,-653 498,-653 492,-647 492,-641 492,-641 492,-610 492,-610 492,-604 498,-598 504,-598 504,-598 706,-598 706,-598 712,-598 718,-604 718,-610 718,-610 718,-641 718,-641 718,-647 712,-653 706,-653"/>
<text text-anchor="middle" x="605" y="-634" font-family="Helvetica,sans-Serif" font-size="10.00">NF&#45;A6x25 PWM Fan</text>
<text text-anchor="middle" x="605" y="-623" font-family="Helvetica,sans-Serif" font-size="10.00">PWM ← GPIO13 (kernel HW PWM, 25 kHz)</text>
<text text-anchor="middle" x="605" y="-612" font-family="Helvetica,sans-Serif" font-size="10.00">TACH → GPIO6 (2 ppr)</text>
</g>
<!-- drv_fan -->
<g id="node9" class="node">
<title>drv_fan</title>
<path fill="#a5c8ff" stroke="black" d="M699,-531C699,-531 619,-531 619,-531 613,-531 607,-525 607,-519 607,-519 607,-488 607,-488 607,-482 613,-476 619,-476 619,-476 699,-476 699,-476 705,-476 711,-482 711,-488 711,-488 711,-519 711,-519 711,-525 705,-531 699,-531"/>
<text text-anchor="middle" x="659" y="-512" font-family="Helvetica,sans-Serif" font-size="10.00">thermal/fan.py</text>
<text text-anchor="middle" x="659" y="-501" font-family="Helvetica,sans-Serif" font-size="10.00">(sysfs HW PWM</text>
<text text-anchor="middle" x="659" y="-490" font-family="Helvetica,sans-Serif" font-size="10.00">+ lgpio fallback)</text>
</g>
<!-- hw_fan&#45;&gt;drv_fan -->
<g id="edge2" class="edge">
<title>hw_fan&#45;&gt;drv_fan</title>
<path fill="none" stroke="#555555" d="M616.98,-597.87C624.6,-580.93 634.57,-558.8 642.88,-540.33"/>
<polygon fill="#555555" stroke="#555555" points="646.14,-541.61 647.05,-531.06 639.75,-538.74 646.14,-541.61"/>
<text text-anchor="middle" x="640" y="-569.6" font-family="Helvetica,sans-Serif" font-size="8.00">PWM</text>
</g>
<!-- drv_tach -->
<g id="node10" class="node">
<title>drv_tach</title>
<path fill="#a5c8ff" stroke="black" d="M565.5,-525.5C565.5,-525.5 468.5,-525.5 468.5,-525.5 462.5,-525.5 456.5,-519.5 456.5,-513.5 456.5,-513.5 456.5,-493.5 456.5,-493.5 456.5,-487.5 462.5,-481.5 468.5,-481.5 468.5,-481.5 565.5,-481.5 565.5,-481.5 571.5,-481.5 577.5,-487.5 577.5,-493.5 577.5,-493.5 577.5,-513.5 577.5,-513.5 577.5,-519.5 571.5,-525.5 565.5,-525.5"/>
<text text-anchor="middle" x="517" y="-506.5" font-family="Helvetica,sans-Serif" font-size="10.00">thermal/fan_tach.py</text>
<text text-anchor="middle" x="517" y="-495.5" font-family="Helvetica,sans-Serif" font-size="10.00">(lgpio edge cb)</text>
</g>
<!-- hw_fan&#45;&gt;drv_tach -->
<g id="edge3" class="edge">
<title>hw_fan&#45;&gt;drv_tach</title>
<path fill="none" stroke="#555555" d="M585.47,-597.87C571.62,-578.98 553.03,-553.63 538.71,-534.11"/>
<polygon fill="#555555" stroke="#555555" points="541.4,-531.86 532.67,-525.86 535.76,-536 541.4,-531.86"/>
<text text-anchor="middle" x="577.5" y="-569.6" font-family="Helvetica,sans-Serif" font-size="8.00">tach</text>
</g>
<!-- hw_servo -->
<g id="node3" class="node">
<title>hw_servo</title>
<path fill="#ffd6a5" stroke="black" d="M156,-647.5C156,-647.5 80,-647.5 80,-647.5 74,-647.5 68,-641.5 68,-635.5 68,-635.5 68,-615.5 68,-615.5 68,-609.5 74,-603.5 80,-603.5 80,-603.5 156,-603.5 156,-603.5 162,-603.5 168,-609.5 168,-615.5 168,-615.5 168,-635.5 168,-635.5 168,-641.5 162,-647.5 156,-647.5"/>
<text text-anchor="middle" x="118" y="-628.5" font-family="Helvetica,sans-Serif" font-size="10.00">DS3218 Servo</text>
<text text-anchor="middle" x="118" y="-617.5" font-family="Helvetica,sans-Serif" font-size="10.00">(PCA9685 ch15)</text>
</g>
<!-- drv_servo -->
<g id="node12" class="node">
<title>drv_servo</title>
<path fill="#a5c8ff" stroke="black" d="M157.5,-521.5C157.5,-521.5 28.5,-521.5 28.5,-521.5 22.5,-521.5 16.5,-515.5 16.5,-509.5 16.5,-509.5 16.5,-497.5 16.5,-497.5 16.5,-491.5 22.5,-485.5 28.5,-485.5 28.5,-485.5 157.5,-485.5 157.5,-485.5 163.5,-485.5 169.5,-491.5 169.5,-497.5 169.5,-497.5 169.5,-509.5 169.5,-509.5 169.5,-515.5 163.5,-521.5 157.5,-521.5"/>
<text text-anchor="middle" x="93" y="-501" font-family="Helvetica,sans-Serif" font-size="10.00">motion/servo_controller.py</text>
</g>
<!-- hw_servo&#45;&gt;drv_servo -->
<g id="edge4" class="edge">
<title>hw_servo&#45;&gt;drv_servo</title>
<path fill="none" stroke="#555555" d="M113.59,-603.32C109.42,-583.32 103.15,-553.22 98.62,-531.5"/>
<polygon fill="#555555" stroke="#555555" points="102.03,-530.66 96.56,-521.59 95.17,-532.09 102.03,-530.66"/>
<text text-anchor="middle" x="125" y="-569.6" font-family="Helvetica,sans-Serif" font-size="8.00">I²C/PWM</text>
</g>
<!-- hw_cam -->
<g id="node4" class="node">
<title>hw_cam</title>
<path fill="#ffd6a5" stroke="black" d="M318.5,-647.5C318.5,-647.5 209.5,-647.5 209.5,-647.5 203.5,-647.5 197.5,-641.5 197.5,-635.5 197.5,-635.5 197.5,-615.5 197.5,-615.5 197.5,-609.5 203.5,-603.5 209.5,-603.5 209.5,-603.5 318.5,-603.5 318.5,-603.5 324.5,-603.5 330.5,-609.5 330.5,-615.5 330.5,-615.5 330.5,-635.5 330.5,-635.5 330.5,-641.5 324.5,-647.5 318.5,-647.5"/>
<text text-anchor="middle" x="264" y="-628.5" font-family="Helvetica,sans-Serif" font-size="10.00">Pi Cam Module 3 Wide</text>
<text text-anchor="middle" x="264" y="-617.5" font-family="Helvetica,sans-Serif" font-size="10.00">(CSI&#45;0)</text>
</g>
<!-- drv_cam -->
<g id="node13" class="node">
<title>drv_cam</title>
<path fill="#a5c8ff" stroke="black" d="M293.5,-525.5C293.5,-525.5 210.5,-525.5 210.5,-525.5 204.5,-525.5 198.5,-519.5 198.5,-513.5 198.5,-513.5 198.5,-493.5 198.5,-493.5 198.5,-487.5 204.5,-481.5 210.5,-481.5 210.5,-481.5 293.5,-481.5 293.5,-481.5 299.5,-481.5 305.5,-487.5 305.5,-493.5 305.5,-493.5 305.5,-513.5 305.5,-513.5 305.5,-519.5 299.5,-525.5 293.5,-525.5"/>
<text text-anchor="middle" x="252" y="-506.5" font-family="Helvetica,sans-Serif" font-size="10.00">vision/camera.py</text>
<text text-anchor="middle" x="252" y="-495.5" font-family="Helvetica,sans-Serif" font-size="10.00">(picamera2)</text>
</g>
<!-- hw_cam&#45;&gt;drv_cam -->
<g id="edge5" class="edge">
<title>hw_cam&#45;&gt;drv_cam</title>
<path fill="none" stroke="#555555" d="M261.88,-603.32C260.02,-584.67 257.28,-557.25 255.15,-536.03"/>
<polygon fill="#555555" stroke="#555555" points="258.61,-535.47 254.14,-525.87 251.65,-536.17 258.61,-535.47"/>
<text text-anchor="middle" x="266.5" y="-569.6" font-family="Helvetica,sans-Serif" font-size="8.00">CSI</text>
</g>
<!-- hw_mic -->
<g id="node5" class="node">
<title>hw_mic</title>
<path fill="#ffd6a5" stroke="black" d="M450.5,-643.5C450.5,-643.5 371.5,-643.5 371.5,-643.5 365.5,-643.5 359.5,-637.5 359.5,-631.5 359.5,-631.5 359.5,-619.5 359.5,-619.5 359.5,-613.5 365.5,-607.5 371.5,-607.5 371.5,-607.5 450.5,-607.5 450.5,-607.5 456.5,-607.5 462.5,-613.5 462.5,-619.5 462.5,-619.5 462.5,-631.5 462.5,-631.5 462.5,-637.5 456.5,-643.5 450.5,-643.5"/>
<text text-anchor="middle" x="411" y="-623" font-family="Helvetica,sans-Serif" font-size="10.00">USB Microphone</text>
</g>
<!-- drv_ain -->
<g id="node15" class="node">
<title>drv_ain</title>
<path fill="#a5c8ff" stroke="black" d="M415,-521.5C415,-521.5 347,-521.5 347,-521.5 341,-521.5 335,-515.5 335,-509.5 335,-509.5 335,-497.5 335,-497.5 335,-491.5 341,-485.5 347,-485.5 347,-485.5 415,-485.5 415,-485.5 421,-485.5 427,-491.5 427,-497.5 427,-497.5 427,-509.5 427,-509.5 427,-515.5 421,-521.5 415,-521.5"/>
<text text-anchor="middle" x="381" y="-501" font-family="Helvetica,sans-Serif" font-size="10.00">audio/input.py</text>
</g>
<!-- hw_mic&#45;&gt;drv_ain -->
<g id="edge6" class="edge">
<title>hw_mic&#45;&gt;drv_ain</title>
<path fill="none" stroke="#555555" d="M406.7,-607.31C401.76,-587.52 393.57,-554.79 387.77,-531.58"/>
<polygon fill="#555555" stroke="#555555" points="391.11,-530.51 385.29,-521.66 384.32,-532.21 391.11,-530.51"/>
<text text-anchor="middle" x="406.5" y="-569.6" font-family="Helvetica,sans-Serif" font-size="8.00">USB</text>
</g>
<!-- hw_spk -->
<g id="node6" class="node">
<title>hw_spk</title>
<path fill="#ffd6a5" stroke="black" d="M1090.5,-647.5C1090.5,-647.5 989.5,-647.5 989.5,-647.5 983.5,-647.5 977.5,-641.5 977.5,-635.5 977.5,-635.5 977.5,-615.5 977.5,-615.5 977.5,-609.5 983.5,-603.5 989.5,-603.5 989.5,-603.5 1090.5,-603.5 1090.5,-603.5 1096.5,-603.5 1102.5,-609.5 1102.5,-615.5 1102.5,-615.5 1102.5,-635.5 1102.5,-635.5 1102.5,-641.5 1096.5,-647.5 1090.5,-647.5"/>
<text text-anchor="middle" x="1040" y="-628.5" font-family="Helvetica,sans-Serif" font-size="10.00">Sabrent USB Audio →</text>
<text text-anchor="middle" x="1040" y="-617.5" font-family="Helvetica,sans-Serif" font-size="10.00">8 Ω stereo speakers</text>
</g>
<!-- drv_aout -->
<g id="node14" class="node">
<title>drv_aout</title>
<path fill="#a5c8ff" stroke="black" d="M1150.5,-308C1150.5,-308 1075.5,-308 1075.5,-308 1069.5,-308 1063.5,-302 1063.5,-296 1063.5,-296 1063.5,-284 1063.5,-284 1063.5,-278 1069.5,-272 1075.5,-272 1075.5,-272 1150.5,-272 1150.5,-272 1156.5,-272 1162.5,-278 1162.5,-284 1162.5,-284 1162.5,-296 1162.5,-296 1162.5,-302 1156.5,-308 1150.5,-308"/>
<text text-anchor="middle" x="1113" y="-287.5" font-family="Helvetica,sans-Serif" font-size="10.00">audio/output.py</text>
</g>
<!-- hw_spk&#45;&gt;drv_aout -->
<g id="edge7" class="edge">
<title>hw_spk&#45;&gt;drv_aout</title>
<path fill="none" stroke="#555555" d="M1102.69,-622.03C1148.1,-616.56 1206.64,-601.09 1237,-559 1295.62,-477.73 1192.43,-364.32 1140.35,-315.24"/>
<polygon fill="#555555" stroke="#555555" points="1142.48,-312.43 1132.77,-308.2 1137.72,-317.56 1142.48,-312.43"/>
<text text-anchor="middle" x="1250.5" y="-447.6" font-family="Helvetica,sans-Serif" font-size="8.00">USB</text>
</g>
<!-- hw_hailo -->
<g id="node7" class="node">
<title>hw_hailo</title>
<path fill="#ffd6a5" stroke="black" d="M836.5,-647.5C836.5,-647.5 759.5,-647.5 759.5,-647.5 753.5,-647.5 747.5,-641.5 747.5,-635.5 747.5,-635.5 747.5,-615.5 747.5,-615.5 747.5,-609.5 753.5,-603.5 759.5,-603.5 759.5,-603.5 836.5,-603.5 836.5,-603.5 842.5,-603.5 848.5,-609.5 848.5,-615.5 848.5,-615.5 848.5,-635.5 848.5,-635.5 848.5,-641.5 842.5,-647.5 836.5,-647.5"/>
<text text-anchor="middle" x="798" y="-628.5" font-family="Helvetica,sans-Serif" font-size="10.00">Hailo&#45;8 AI HAT+</text>
<text text-anchor="middle" x="798" y="-617.5" font-family="Helvetica,sans-Serif" font-size="10.00">(26 TOPS, PCIe)</text>
</g>
<!-- drv_hailo -->
<g id="node18" class="node">
<title>drv_hailo</title>
<path fill="#a5c8ff" stroke="black" stroke-dasharray="5,2" d="M877.5,-521.5C877.5,-521.5 752.5,-521.5 752.5,-521.5 746.5,-521.5 740.5,-515.5 740.5,-509.5 740.5,-509.5 740.5,-497.5 740.5,-497.5 740.5,-491.5 746.5,-485.5 752.5,-485.5 752.5,-485.5 877.5,-485.5 877.5,-485.5 883.5,-485.5 889.5,-491.5 889.5,-497.5 889.5,-497.5 889.5,-509.5 889.5,-509.5 889.5,-515.5 883.5,-521.5 877.5,-521.5"/>
<text text-anchor="middle" x="815" y="-501" font-family="Helvetica,sans-Serif" font-size="10.00">perception/hailo_probe.py</text>
</g>
<!-- hw_hailo&#45;&gt;drv_hailo -->
<g id="edge8" class="edge">
<title>hw_hailo&#45;&gt;drv_hailo</title>
<path fill="none" stroke="#555555" d="M801,-603.32C803.83,-583.32 808.1,-553.22 811.18,-531.5"/>
<polygon fill="#555555" stroke="#555555" points="814.64,-531.98 812.58,-521.59 807.71,-531 814.64,-531.98"/>
<text text-anchor="middle" x="814" y="-569.6" font-family="Helvetica,sans-Serif" font-size="8.00">PCIe</text>
</g>
<!-- drv_thmgr -->
<g id="node11" class="node">
<title>drv_thmgr</title>
<path fill="#a5c8ff" stroke="black" d="M858.5,-419C858.5,-419 717.5,-419 717.5,-419 711.5,-419 705.5,-413 705.5,-407 705.5,-407 705.5,-395 705.5,-395 705.5,-389 711.5,-383 717.5,-383 717.5,-383 858.5,-383 858.5,-383 864.5,-383 870.5,-389 870.5,-395 870.5,-395 870.5,-407 870.5,-407 870.5,-413 864.5,-419 858.5,-419"/>
<text text-anchor="middle" x="788" y="-398.5" font-family="Helvetica,sans-Serif" font-size="10.00">thermal/thermal_manager.py</text>
</g>
<!-- drv_tmp117&#45;&gt;drv_thmgr -->
<g id="edge9" class="edge">
<title>drv_tmp117&#45;&gt;drv_thmgr</title>
<path fill="none" stroke="#555555" d="M944.11,-485.45C912.37,-468.49 863.54,-442.38 828.96,-423.89"/>
<polygon fill="#555555" stroke="#555555" points="830.52,-420.76 820.05,-419.13 827.22,-426.93 830.52,-420.76"/>
</g>
<!-- drv_fan&#45;&gt;drv_thmgr -->
<g id="edge10" class="edge">
<title>drv_fan&#45;&gt;drv_thmgr</title>
<path fill="none" stroke="#555555" d="M693.23,-475.83C713.35,-460.16 738.54,-440.53 757.9,-425.45"/>
<polygon fill="#555555" stroke="#555555" points="760.07,-428.2 765.8,-419.29 755.76,-422.68 760.07,-428.2"/>
</g>
<!-- drv_tach&#45;&gt;drv_thmgr -->
<g id="edge11" class="edge">
<title>drv_tach&#45;&gt;drv_thmgr</title>
<path fill="none" stroke="#555555" d="M573.81,-481.43C620.47,-464.13 686.18,-439.76 732.48,-422.59"/>
<polygon fill="#555555" stroke="#555555" points="733.89,-425.8 742.05,-419.04 731.46,-419.24 733.89,-425.8"/>
</g>
<!-- svc_thermal -->
<g id="node22" class="node">
<title>svc_thermal</title>
<path fill="#f4a3a3" stroke="black" d="M880,-215C880,-215 794,-215 794,-215 788,-215 782,-209 782,-203 782,-203 782,-139 782,-139 782,-133 788,-127 794,-127 794,-127 880,-127 880,-127 886,-127 892,-133 892,-139 892,-139 892,-203 892,-203 892,-209 886,-215 880,-215"/>
<text text-anchor="middle" x="837" y="-196" font-family="Helvetica,sans-Serif" font-size="10.00">ThermalService</text>
<text text-anchor="middle" x="837" y="-185" font-family="Helvetica,sans-Serif" font-size="10.00">— thermal.temp</text>
<text text-anchor="middle" x="837" y="-174" font-family="Helvetica,sans-Serif" font-size="10.00">— thermal.fan</text>
<text text-anchor="middle" x="837" y="-163" font-family="Helvetica,sans-Serif" font-size="10.00">— thermal.rpm</text>
<text text-anchor="middle" x="837" y="-152" font-family="Helvetica,sans-Serif" font-size="10.00">— thermal.critical</text>
<text text-anchor="middle" x="837" y="-141" font-family="Helvetica,sans-Serif" font-size="10.00">— thermal.error</text>
</g>
<!-- drv_thmgr&#45;&gt;svc_thermal -->
<g id="edge15" class="edge">
<title>drv_thmgr&#45;&gt;svc_thermal</title>
<path fill="none" stroke="#555555" d="M791.68,-382.86C798.8,-349.76 814.7,-275.78 825.63,-224.89"/>
<polygon fill="#555555" stroke="#555555" points="829.07,-225.55 827.75,-215.03 822.23,-224.08 829.07,-225.55"/>
</g>
<!-- svc_motion -->
<g id="node23" class="node">
<title>svc_motion</title>
<path fill="#a8d88d" stroke="black" d="M429,-198.5C429,-198.5 285,-198.5 285,-198.5 279,-198.5 273,-192.5 273,-186.5 273,-186.5 273,-155.5 273,-155.5 273,-149.5 279,-143.5 285,-143.5 285,-143.5 429,-143.5 429,-143.5 435,-143.5 441,-149.5 441,-155.5 441,-155.5 441,-186.5 441,-186.5 441,-192.5 435,-198.5 429,-198.5"/>
<text text-anchor="middle" x="357" y="-179.5" font-family="Helvetica,sans-Serif" font-size="10.00">MotionService</text>
<text text-anchor="middle" x="357" y="-168.5" font-family="Helvetica,sans-Serif" font-size="10.00">← motion.pan_to / relax / stop</text>
<text text-anchor="middle" x="357" y="-157.5" font-family="Helvetica,sans-Serif" font-size="10.00">→ motion.position / moved</text>
</g>
<!-- drv_servo&#45;&gt;svc_motion -->
<g id="edge16" class="edge">
<title>drv_servo&#45;&gt;svc_motion</title>
<path fill="none" stroke="#555555" d="M104.2,-485.26C132.77,-441.8 211.57,-324.94 289,-237 298.38,-226.35 309.23,-215.44 319.47,-205.67"/>
<polygon fill="#555555" stroke="#555555" points="321.9,-208.18 326.78,-198.78 317.1,-203.09 321.9,-208.18"/>
</g>
<!-- svc_vision -->
<g id="node24" class="node">
<title>svc_vision</title>
<path fill="#a8d88d" stroke="black" d="M586,-204C586,-204 482,-204 482,-204 476,-204 470,-198 470,-192 470,-192 470,-150 470,-150 470,-144 476,-138 482,-138 482,-138 586,-138 586,-138 592,-138 598,-144 598,-150 598,-150 598,-192 598,-192 598,-198 592,-204 586,-204"/>
<text text-anchor="middle" x="534" y="-185" font-family="Helvetica,sans-Serif" font-size="10.00">VisionService</text>
<text text-anchor="middle" x="534" y="-174" font-family="Helvetica,sans-Serif" font-size="10.00">→ vision.frame_ready</text>
<text text-anchor="middle" x="534" y="-163" font-family="Helvetica,sans-Serif" font-size="10.00">← vision.capture_still</text>
<text text-anchor="middle" x="534" y="-152" font-family="Helvetica,sans-Serif" font-size="10.00">+ latest_frame()</text>
</g>
<!-- drv_cam&#45;&gt;svc_vision -->
<g id="edge17" class="edge">
<title>drv_cam&#45;&gt;svc_vision</title>
<path fill="none" stroke="#555555" d="M259.25,-481.34C277.03,-432.23 327.29,-309.21 407,-237 424.39,-221.24 434.02,-225.5 455,-215 458.96,-213.02 463,-210.95 467.07,-208.84"/>
<polygon fill="#555555" stroke="#555555" points="468.77,-211.9 476,-204.16 465.51,-205.7 468.77,-211.9"/>
</g>
<!-- svc_av -->
<g id="node26" class="node">
<title>svc_av</title>
<path fill="#a8d88d" stroke="black" d="M1160.5,-198.5C1160.5,-198.5 933.5,-198.5 933.5,-198.5 927.5,-198.5 921.5,-192.5 921.5,-186.5 921.5,-186.5 921.5,-155.5 921.5,-155.5 921.5,-149.5 927.5,-143.5 933.5,-143.5 933.5,-143.5 1160.5,-143.5 1160.5,-143.5 1166.5,-143.5 1172.5,-149.5 1172.5,-155.5 1172.5,-155.5 1172.5,-186.5 1172.5,-186.5 1172.5,-192.5 1166.5,-198.5 1160.5,-198.5"/>
<text text-anchor="middle" x="1047" y="-179.5" font-family="Helvetica,sans-Serif" font-size="10.00">AVService</text>
<text text-anchor="middle" x="1047" y="-168.5" font-family="Helvetica,sans-Serif" font-size="10.00">← av.say / beep / utterance / announce_version</text>
<text text-anchor="middle" x="1047" y="-157.5" font-family="Helvetica,sans-Serif" font-size="10.00">→ av.spoke / version_announced</text>
</g>
<!-- drv_aout&#45;&gt;svc_av -->
<g id="edge19" class="edge">
<title>drv_aout&#45;&gt;svc_av</title>
<path fill="none" stroke="#555555" d="M1103.4,-271.99C1093.89,-255.13 1079.04,-228.8 1066.96,-207.39"/>
<polygon fill="#555555" stroke="#555555" points="1069.94,-205.55 1061.98,-198.56 1063.85,-208.99 1069.94,-205.55"/>
</g>
<!-- svc_audio -->
<g id="node25" class="node">
<title>svc_audio</title>
<path fill="#a8d88d" stroke="black" d="M741,-198.5C741,-198.5 639,-198.5 639,-198.5 633,-198.5 627,-192.5 627,-186.5 627,-186.5 627,-155.5 627,-155.5 627,-149.5 633,-143.5 639,-143.5 639,-143.5 741,-143.5 741,-143.5 747,-143.5 753,-149.5 753,-155.5 753,-155.5 753,-186.5 753,-186.5 753,-192.5 747,-198.5 741,-198.5"/>
<text text-anchor="middle" x="690" y="-179.5" font-family="Helvetica,sans-Serif" font-size="10.00">AudioCaptureService</text>
<text text-anchor="middle" x="690" y="-168.5" font-family="Helvetica,sans-Serif" font-size="10.00">→ audio.level / chunk</text>
<text text-anchor="middle" x="690" y="-157.5" font-family="Helvetica,sans-Serif" font-size="10.00">+ latest_chunk()</text>
</g>
<!-- drv_ain&#45;&gt;svc_audio -->
<g id="edge18" class="edge">
<title>drv_ain&#45;&gt;svc_audio</title>
<path fill="none" stroke="#555555" d="M397.18,-485.2C445.96,-433.02 592.28,-276.52 657.74,-206.51"/>
<polygon fill="#555555" stroke="#555555" points="660.66,-208.5 664.93,-198.81 655.55,-203.72 660.66,-208.5"/>
</g>
<!-- drv_tts -->
<g id="node16" class="node">
<title>drv_tts</title>
<path fill="#a5c8ff" stroke="black" d="M1137.5,-423C1137.5,-423 1080.5,-423 1080.5,-423 1074.5,-423 1068.5,-417 1068.5,-411 1068.5,-411 1068.5,-391 1068.5,-391 1068.5,-385 1074.5,-379 1080.5,-379 1080.5,-379 1137.5,-379 1137.5,-379 1143.5,-379 1149.5,-385 1149.5,-391 1149.5,-391 1149.5,-411 1149.5,-411 1149.5,-417 1143.5,-423 1137.5,-423"/>
<text text-anchor="middle" x="1109" y="-404" font-family="Helvetica,sans-Serif" font-size="10.00">audio/tts.py</text>
<text text-anchor="middle" x="1109" y="-393" font-family="Helvetica,sans-Serif" font-size="10.00">(espeak&#45;ng)</text>
</g>
<!-- drv_tts&#45;&gt;drv_aout -->
<g id="edge12" class="edge">
<title>drv_tts&#45;&gt;drv_aout</title>
<path fill="none" stroke="#555555" stroke-dasharray="5,2" d="M1107.81,-378.57C1107.48,-371.69 1107.16,-364.02 1107,-357 1106.91,-353 1106.79,-351.99 1107,-348 1107.51,-338.25 1108.51,-327.61 1109.55,-318.18"/>
<polygon fill="#555555" stroke="#555555" points="1113.04,-318.51 1110.72,-308.17 1106.08,-317.7 1113.04,-318.51"/>
<text text-anchor="middle" x="1128.5" y="-350.6" font-family="Helvetica,sans-Serif" font-size="8.00">renders to</text>
</g>
<!-- drv_tts&#45;&gt;svc_av -->
<g id="edge20" class="edge">
<title>drv_tts&#45;&gt;svc_av</title>
<path fill="none" stroke="#555555" d="M1079.48,-378.84C1067.69,-368.59 1055.4,-355.21 1049,-340 1031.2,-297.73 1034.51,-244.01 1039.71,-208.85"/>
<polygon fill="#555555" stroke="#555555" points="1043.24,-209 1041.37,-198.57 1036.32,-207.88 1043.24,-209"/>
</g>
<!-- drv_van -->
<g id="node17" class="node">
<title>drv_van</title>
<path fill="#a5c8ff" stroke="black" d="M1210.5,-521.5C1210.5,-521.5 1075.5,-521.5 1075.5,-521.5 1069.5,-521.5 1063.5,-515.5 1063.5,-509.5 1063.5,-509.5 1063.5,-497.5 1063.5,-497.5 1063.5,-491.5 1069.5,-485.5 1075.5,-485.5 1075.5,-485.5 1210.5,-485.5 1210.5,-485.5 1216.5,-485.5 1222.5,-491.5 1222.5,-497.5 1222.5,-497.5 1222.5,-509.5 1222.5,-509.5 1222.5,-515.5 1216.5,-521.5 1210.5,-521.5"/>
<text text-anchor="middle" x="1143" y="-501" font-family="Helvetica,sans-Serif" font-size="10.00">audio/version_announcer.py</text>
</g>
<!-- drv_van&#45;&gt;drv_tts -->
<g id="edge13" class="edge">
<title>drv_van&#45;&gt;drv_tts</title>
<path fill="none" stroke="#555555" d="M1137.23,-485.45C1132.39,-471.13 1125.34,-450.29 1119.49,-433.01"/>
<polygon fill="#555555" stroke="#555555" points="1122.74,-431.69 1116.22,-423.33 1116.11,-433.93 1122.74,-431.69"/>
</g>
<!-- core_ver -->
<g id="node21" class="node">
<title>core_ver</title>
<path fill="#bdb1f5" stroke="black" d="M677.5,-60C677.5,-60 594.5,-60 594.5,-60 588.5,-60 582.5,-54 582.5,-48 582.5,-48 582.5,-28 582.5,-28 582.5,-22 588.5,-16 594.5,-16 594.5,-16 677.5,-16 677.5,-16 683.5,-16 689.5,-22 689.5,-28 689.5,-28 689.5,-48 689.5,-48 689.5,-54 683.5,-60 677.5,-60"/>
<text text-anchor="middle" x="636" y="-41" font-family="Helvetica,sans-Serif" font-size="10.00">version.py</text>
<text text-anchor="middle" x="636" y="-30" font-family="Helvetica,sans-Serif" font-size="10.00">(reads /VERSION)</text>
</g>
<!-- drv_van&#45;&gt;core_ver -->
<g id="edge14" class="edge">
<title>drv_van&#45;&gt;core_ver</title>
<path fill="none" stroke="#555555" stroke-dasharray="5,2" d="M1087.13,-485.48C1074.65,-482.04 1061.43,-478.66 1049,-476 687.41,-398.6 455.75,-528.09 259,-215 238.19,-181.88 234.69,-157.64 259,-127 297.43,-78.56 475.36,-54.3 572.41,-44.47"/>
<polygon fill="#555555" stroke="#555555" points="572.8,-47.95 582.4,-43.49 572.11,-40.99 572.8,-47.95"/>
</g>
<!-- drv_van&#45;&gt;svc_av -->
<g id="edge21" class="edge">
<title>drv_van&#45;&gt;svc_av</title>
<path fill="none" stroke="#555555" d="M1151.97,-485.42C1172.37,-444.05 1217.45,-336.23 1177,-260 1164.31,-236.09 1141.9,-217.49 1119.23,-203.67"/>
<polygon fill="#555555" stroke="#555555" points="1120.94,-200.62 1110.54,-198.61 1117.42,-206.67 1120.94,-200.62"/>
</g>
<!-- core_bus -->
<g id="node19" class="node">
<title>core_bus</title>
<path fill="#bdb1f5" stroke="black" d="M956,-60C956,-60 858,-60 858,-60 852,-60 846,-54 846,-48 846,-48 846,-28 846,-28 846,-22 852,-16 858,-16 858,-16 956,-16 956,-16 962,-16 968,-22 968,-28 968,-28 968,-48 968,-48 968,-54 962,-60 956,-60"/>
<text text-anchor="middle" x="907" y="-41" font-family="Helvetica,sans-Serif" font-size="10.00">MessageBus</text>
<text text-anchor="middle" x="907" y="-30" font-family="Helvetica,sans-Serif" font-size="10.00">(in&#45;process pub/sub)</text>
</g>
<!-- core_bus&#45;&gt;svc_motion -->
<g id="edge23" class="edge">
<title>core_bus&#45;&gt;svc_motion</title>
<path fill="none" stroke="#226622" d="M878.42,-60.05C864.82,-69.43 848.06,-80.12 832,-88 811.31,-98.16 805.59,-100.41 783,-105 640.26,-134.02 597.54,-92.59 456,-127 443.57,-130.02 430.73,-134.49 418.59,-139.41"/>
<polygon fill="#226622" stroke="#226622" points="416.87,-136.34 409.02,-143.45 419.59,-142.79 416.87,-136.34"/>
</g>
<!-- core_bus&#45;&gt;svc_vision -->
<g id="edge25" class="edge">
<title>core_bus&#45;&gt;svc_vision</title>
<path fill="none" stroke="#226622" d="M895.85,-60.1C886.56,-75.37 871.83,-95 853,-105 758.4,-155.24 715.49,-95.86 613,-127 607.02,-128.82 600.98,-131.12 595.04,-133.71"/>
<polygon fill="#226622" stroke="#226622" points="593.42,-130.6 585.82,-137.98 596.36,-136.95 593.42,-130.6"/>
</g>
<!-- core_bus&#45;&gt;svc_audio -->
<g id="edge27" class="edge">
<title>core_bus&#45;&gt;svc_audio</title>
<path fill="none" stroke="#226622" d="M920.7,-60C928.1,-74.23 933.74,-92.62 923,-105 900.19,-131.27 801,-115.98 768,-127 758.86,-130.05 749.54,-134.17 740.68,-138.65"/>
<polygon fill="#226622" stroke="#226622" points="738.84,-135.66 731.63,-143.42 742.11,-141.85 738.84,-135.66"/>
</g>
<!-- core_bus&#45;&gt;svc_av -->
<g id="edge29" class="edge">
<title>core_bus&#45;&gt;svc_av</title>
<path fill="none" stroke="#226622" d="M968.04,-55.74C989.75,-64.49 1012.61,-77.39 1028,-96 1036.6,-106.4 1041.37,-120.23 1043.99,-133.12"/>
<polygon fill="#226622" stroke="#226622" points="1040.57,-133.88 1045.66,-143.17 1047.47,-132.73 1040.57,-133.88"/>
</g>
<!-- svc_telemetry -->
<g id="node27" class="node">
<title>svc_telemetry</title>
<path fill="#a8d88d" stroke="black" d="M1418.5,-204C1418.5,-204 1213.5,-204 1213.5,-204 1207.5,-204 1201.5,-198 1201.5,-192 1201.5,-192 1201.5,-150 1201.5,-150 1201.5,-144 1207.5,-138 1213.5,-138 1213.5,-138 1418.5,-138 1418.5,-138 1424.5,-138 1430.5,-144 1430.5,-150 1430.5,-150 1430.5,-192 1430.5,-192 1430.5,-198 1424.5,-204 1418.5,-204"/>
<text text-anchor="middle" x="1316" y="-185" font-family="Helvetica,sans-Serif" font-size="10.00">TelemetryService</text>
<text text-anchor="middle" x="1316" y="-174" font-family="Helvetica,sans-Serif" font-size="10.00">← thermal.* / motion.position / audio.level</text>
<text text-anchor="middle" x="1316" y="-163" font-family="Helvetica,sans-Serif" font-size="10.00">→ telemetry.flush</text>
<text text-anchor="middle" x="1316" y="-152" font-family="Helvetica,sans-Serif" font-size="10.00">SQLite ring buffer</text>
</g>
<!-- core_bus&#45;&gt;svc_telemetry -->
<g id="edge31" class="edge">
<title>core_bus&#45;&gt;svc_telemetry</title>
<path fill="none" stroke="#226622" d="M968.05,-47.92C1021.71,-56.79 1101.41,-72.5 1168,-96 1196.11,-105.92 1225.74,-119.96 1251.05,-133.14"/>
<polygon fill="#226622" stroke="#226622" points="1249.69,-136.38 1260.17,-137.95 1252.96,-130.19 1249.69,-136.38"/>
</g>
<!-- svc_ipc -->
<g id="node28" class="node">
<title>svc_ipc</title>
<path fill="#a8d88d" stroke="black" d="M1676.5,-204C1676.5,-204 1471.5,-204 1471.5,-204 1465.5,-204 1459.5,-198 1459.5,-192 1459.5,-192 1459.5,-150 1459.5,-150 1459.5,-144 1465.5,-138 1471.5,-138 1471.5,-138 1676.5,-138 1676.5,-138 1682.5,-138 1688.5,-144 1688.5,-150 1688.5,-150 1688.5,-192 1688.5,-192 1688.5,-198 1682.5,-204 1676.5,-204"/>
<text text-anchor="middle" x="1574" y="-185" font-family="Helvetica,sans-Serif" font-size="10.00">IPCBridge</text>
<text text-anchor="middle" x="1574" y="-174" font-family="Helvetica,sans-Serif" font-size="10.00">ZMQ PUB ipc:///tmp/desktop&#45;assistant.pub</text>
<text text-anchor="middle" x="1574" y="-163" font-family="Helvetica,sans-Serif" font-size="10.00">ZMQ REP ipc:///tmp/desktop&#45;assistant.rep</text>
<text text-anchor="middle" x="1574" y="-152" font-family="Helvetica,sans-Serif" font-size="10.00">cmds: ping / topics / last / publish / status</text>
</g>
<!-- core_bus&#45;&gt;svc_ipc -->
<g id="edge33" class="edge">
<title>core_bus&#45;&gt;svc_ipc</title>
<path fill="none" stroke="#226622" d="M968.15,-45.78C1068.64,-57.63 1274.55,-84.94 1445,-127 1454.54,-129.35 1464.39,-132.08 1474.19,-134.99"/>
<polygon fill="#226622" stroke="#226622" points="1473.38,-138.41 1483.97,-137.96 1475.42,-131.71 1473.38,-138.41"/>
</g>
<!-- core_svc -->
<g id="node20" class="node">
<title>core_svc</title>
<path fill="#bdb1f5" stroke="black" d="M805,-60C805,-60 731,-60 731,-60 725,-60 719,-54 719,-48 719,-48 719,-28 719,-28 719,-22 725,-16 731,-16 731,-16 805,-16 805,-16 811,-16 817,-22 817,-28 817,-28 817,-48 817,-48 817,-54 811,-60 805,-60"/>
<text text-anchor="middle" x="768" y="-41" font-family="Helvetica,sans-Serif" font-size="10.00">Service base</text>
<text text-anchor="middle" x="768" y="-30" font-family="Helvetica,sans-Serif" font-size="10.00">(start/tick/stop)</text>
</g>
<!-- svc_thermal&#45;&gt;core_bus -->
<g id="edge22" class="edge">
<title>svc_thermal&#45;&gt;core_bus</title>
<path fill="none" stroke="#cc3333" d="M892.37,-135C897.27,-132.2 902.19,-129.5 907,-127 928.91,-115.62 944.44,-125.62 958,-105 966.5,-92.08 959.03,-78.44 947.43,-66.95"/>
<polygon fill="#cc3333" stroke="#cc3333" points="949.56,-64.16 939.78,-60.09 944.89,-69.37 949.56,-64.16"/>
</g>
<!-- svc_thermal&#45;&gt;core_svc -->
<g id="edge35" class="edge">
<title>svc_thermal&#45;&gt;core_svc</title>
<path fill="none" stroke="#555555" stroke-dasharray="1,5" d="M781.7,-133.46C777.16,-131.1 772.56,-128.91 768,-127 729.63,-110.9 702.73,-137.7 677,-105 661.7,-85.56 695.97,-92.09 704,-88 715.4,-82.2 726.82,-74.29 736.79,-66.53"/>
<polygon fill="#555555" stroke="#555555" points="739.2,-69.08 744.79,-60.08 734.81,-63.63 739.2,-69.08"/>
<text text-anchor="middle" x="693.5" y="-98.6" font-family="Helvetica,sans-Serif" font-size="8.00">extends</text>
</g>
<!-- svc_motion&#45;&gt;core_bus -->
<g id="edge24" class="edge">
<title>svc_motion&#45;&gt;core_bus</title>
<path fill="none" stroke="#226622" d="M409.57,-143.4C424.26,-137.01 440.46,-130.92 456,-127 568.88,-98.55 601.36,-118.41 717,-105 723.42,-104.26 825.96,-90.29 832,-88 846.04,-82.67 860.16,-74.39 872.3,-66.14"/>
<polygon fill="#226622" stroke="#226622" points="874.6,-68.81 880.76,-60.19 870.57,-63.08 874.6,-68.81"/>
</g>
<!-- svc_motion&#45;&gt;core_svc -->
<g id="edge36" class="edge">
<title>svc_motion&#45;&gt;core_svc</title>
<path fill="none" stroke="#555555" stroke-dasharray="1,5" d="M411.91,-143.46C426.04,-137.38 441.38,-131.42 456,-127 530.77,-104.4 551.67,-107.04 629,-96 662.19,-91.26 672.87,-100.43 704,-88 716.51,-83.01 728.66,-74.84 738.96,-66.59"/>
<polygon fill="#555555" stroke="#555555" points="741.38,-69.13 746.78,-60.02 736.88,-63.77 741.38,-69.13"/>
</g>
<!-- svc_vision&#45;&gt;core_bus -->
<g id="edge26" class="edge">
<title>svc_vision&#45;&gt;core_bus</title>
<path fill="none" stroke="#226622" d="M586.29,-137.89C594.97,-133.64 604.06,-129.79 613,-127 700.47,-99.69 732.65,-138.35 818,-105 840.17,-96.34 861.71,-80.63 878.04,-66.71"/>
<polygon fill="#226622" stroke="#226622" points="880.41,-69.28 885.62,-60.06 875.79,-64.02 880.41,-69.28"/>
</g>
<!-- svc_vision&#45;&gt;core_svc -->
<g id="edge37" class="edge">
<title>svc_vision&#45;&gt;core_svc</title>
<path fill="none" stroke="#555555" stroke-dasharray="1,5" d="M576.86,-137.82C598.85,-122.84 626.7,-106.14 654,-96 675.1,-88.16 683.32,-96.89 704,-88 716.17,-82.77 728.1,-74.7 738.29,-66.61"/>
<polygon fill="#555555" stroke="#555555" points="740.59,-69.25 746.07,-60.18 736.13,-63.86 740.59,-69.25"/>
</g>
<!-- svc_audio&#45;&gt;core_bus -->
<g id="edge28" class="edge">
<title>svc_audio&#45;&gt;core_bus</title>
<path fill="none" stroke="#226622" d="M732.57,-143.31C743.76,-137.2 756.06,-131.26 768,-127 819.07,-108.79 847.81,-141.4 888,-105 897.74,-96.18 902.61,-82.73 905.01,-70.27"/>
<polygon fill="#226622" stroke="#226622" points="908.5,-70.56 906.49,-60.16 901.57,-69.55 908.5,-70.56"/>
</g>
<!-- svc_audio&#45;&gt;core_svc -->
<g id="edge38" class="edge">
<title>svc_audio&#45;&gt;core_svc</title>
<path fill="none" stroke="#555555" stroke-dasharray="1,5" d="M670.04,-143.42C661.2,-128.21 655.02,-109.53 666,-96 676.87,-82.6 688.32,-95.2 704,-88 715.94,-82.52 727.73,-74.46 737.88,-66.46"/>
<polygon fill="#555555" stroke="#555555" points="740.12,-69.15 745.63,-60.11 735.68,-63.74 740.12,-69.15"/>
</g>
<!-- svc_av&#45;&gt;core_bus -->
<g id="edge30" class="edge">
<title>svc_av&#45;&gt;core_bus</title>
<path fill="none" stroke="#226622" d="M1025.22,-143.21C1012.86,-128.65 996.75,-110.66 981,-96 969.91,-85.68 957.05,-75.3 945.2,-66.28"/>
<polygon fill="#226622" stroke="#226622" points="947.29,-63.47 937.19,-60.27 943.09,-69.07 947.29,-63.47"/>
</g>
<!-- svc_av&#45;&gt;core_svc -->
<g id="edge39" class="edge">
<title>svc_av&#45;&gt;core_svc</title>
<path fill="none" stroke="#555555" stroke-dasharray="1,5" d="M960.48,-143.42C920.2,-129.45 872.38,-110.53 832,-88 821.02,-81.87 809.87,-74.01 800.01,-66.39"/>
<polygon fill="#555555" stroke="#555555" points="802.08,-63.56 792.07,-60.08 797.72,-69.04 802.08,-63.56"/>
</g>
<!-- svc_telemetry&#45;&gt;core_bus -->
<g id="edge32" class="edge">
<title>svc_telemetry&#45;&gt;core_bus</title>
<path fill="none" stroke="#226622" d="M1274.31,-137.98C1253.09,-123.13 1226.29,-106.5 1200,-96 1127.55,-67.06 1038.99,-52.45 978.32,-45.32"/>
<polygon fill="#226622" stroke="#226622" points="978.41,-41.81 968.08,-44.15 977.62,-48.76 978.41,-41.81"/>
</g>
<!-- svc_telemetry&#45;&gt;core_svc -->
<g id="edge40" class="edge">
<title>svc_telemetry&#45;&gt;core_svc</title>
<path fill="none" stroke="#555555" stroke-dasharray="1,5" d="M1228.22,-137.99C1214.55,-133.8 1200.49,-129.95 1187,-127 1167.62,-122.76 850.42,-95.39 832,-88 819.6,-83.03 807.55,-74.95 797.31,-66.77"/>
<polygon fill="#555555" stroke="#555555" points="799.43,-63.98 789.51,-60.25 794.94,-69.35 799.43,-63.98"/>
</g>
<!-- ext_db -->
<g id="node31" class="node">
<title>ext_db</title>
<path fill="#ffe375" stroke="black" d="M1422.5,-312C1422.5,-312 1263.5,-312 1263.5,-312 1257.5,-312 1251.5,-306 1251.5,-300 1251.5,-300 1251.5,-280 1251.5,-280 1251.5,-274 1257.5,-268 1263.5,-268 1263.5,-268 1422.5,-268 1422.5,-268 1428.5,-268 1434.5,-274 1434.5,-280 1434.5,-280 1434.5,-300 1434.5,-300 1434.5,-306 1428.5,-312 1422.5,-312"/>
<text text-anchor="middle" x="1343" y="-293" font-family="Helvetica,sans-Serif" font-size="10.00">~/.local/share/desktop&#45;assistant/</text>
<text text-anchor="middle" x="1343" y="-282" font-family="Helvetica,sans-Serif" font-size="10.00">telemetry.db (SQLite ring)</text>
</g>
<!-- svc_telemetry&#45;&gt;ext_db -->
<g id="edge44" class="edge">
<title>svc_telemetry&#45;&gt;ext_db</title>
<path fill="none" stroke="#aa6600" d="M1323.4,-204.06C1327.28,-220.87 1332.01,-241.37 1335.85,-258.01"/>
<polygon fill="#aa6600" stroke="#aa6600" points="1332.45,-258.86 1338.11,-267.81 1339.27,-257.28 1332.45,-258.86"/>
<text text-anchor="middle" x="1344.5" y="-239.6" font-family="Helvetica,sans-Serif" font-size="8.00">writes</text>
</g>
<!-- svc_ipc&#45;&gt;core_bus -->
<g id="edge34" class="edge">
<title>svc_ipc&#45;&gt;core_bus</title>
<path fill="none" stroke="#226622" d="M1478.22,-138C1467.02,-134.28 1455.76,-130.55 1445,-127 1402.82,-113.09 1393.33,-105.77 1350,-96 1220.66,-66.85 1066.48,-51.21 978.33,-44.04"/>
<polygon fill="#226622" stroke="#226622" points="978.43,-40.53 968.18,-43.23 977.87,-47.51 978.43,-40.53"/>
</g>
<!-- svc_ipc&#45;&gt;core_svc -->
<g id="edge41" class="edge">
<title>svc_ipc&#45;&gt;core_svc</title>
<path fill="none" stroke="#555555" stroke-dasharray="1,5" d="M1488.08,-137.96C1473.86,-133.64 1459.13,-129.76 1445,-127 1440.81,-126.18 835.99,-89.5 832,-88 819.28,-83.23 807.01,-75.04 796.67,-66.7"/>
<polygon fill="#555555" stroke="#555555" points="798.71,-63.84 788.82,-60.04 794.18,-69.18 798.71,-63.84"/>
</g>
<!-- ext_cli -->
<g id="node29" class="node">
<title>ext_cli</title>
<path fill="#ffe375" stroke="black" d="M1672.5,-312C1672.5,-312 1475.5,-312 1475.5,-312 1469.5,-312 1463.5,-306 1463.5,-300 1463.5,-300 1463.5,-280 1463.5,-280 1463.5,-274 1469.5,-268 1475.5,-268 1475.5,-268 1672.5,-268 1672.5,-268 1678.5,-268 1684.5,-274 1684.5,-280 1684.5,-280 1684.5,-300 1684.5,-300 1684.5,-306 1678.5,-312 1672.5,-312"/>
<text text-anchor="middle" x="1574" y="-293" font-family="Helvetica,sans-Serif" font-size="10.00">scripts/desktop&#45;assistant</text>
<text text-anchor="middle" x="1574" y="-282" font-family="Helvetica,sans-Serif" font-size="10.00">(CLI: ping / status / pan / say / watch / ...)</text>
</g>
<!-- ext_cli&#45;&gt;svc_ipc -->
<g id="edge42" class="edge">
<title>ext_cli&#45;&gt;svc_ipc</title>
<path fill="none" stroke="#aa6600" d="M1574,-267.81C1574,-252.88 1574,-232.38 1574,-214.17"/>
<polygon fill="#aa6600" stroke="#aa6600" points="1577.5,-214.06 1574,-204.06 1570.5,-214.06 1577.5,-214.06"/>
<text text-anchor="middle" x="1602.5" y="-239.6" font-family="Helvetica,sans-Serif" font-size="8.00">ZMQ REQ/SUB</text>
</g>
<!-- ext_3p -->
<g id="node30" class="node">
<title>ext_3p</title>
<path fill="#ffe375" stroke="black" stroke-dasharray="5,2" d="M1888,-312C1888,-312 1726,-312 1726,-312 1720,-312 1714,-306 1714,-300 1714,-300 1714,-280 1714,-280 1714,-274 1720,-268 1726,-268 1726,-268 1888,-268 1888,-268 1894,-268 1900,-274 1900,-280 1900,-280 1900,-300 1900,-300 1900,-306 1894,-312 1888,-312"/>
<text text-anchor="middle" x="1807" y="-293" font-family="Helvetica,sans-Serif" font-size="10.00">3rd&#45;party subscribers</text>
<text text-anchor="middle" x="1807" y="-282" font-family="Helvetica,sans-Serif" font-size="10.00">(dashboards, future ML pipelines)</text>
</g>
<!-- ext_3p&#45;&gt;svc_ipc -->
<g id="edge43" class="edge">
<title>ext_3p&#45;&gt;svc_ipc</title>
<path fill="none" stroke="#aa6600" stroke-dasharray="5,2" d="M1765.08,-267.95C1732.33,-251.5 1686.01,-228.25 1647.18,-208.75"/>
<polygon fill="#aa6600" stroke="#aa6600" points="1648.51,-205.5 1638,-204.14 1645.37,-211.75 1648.51,-205.5"/>
<text text-anchor="middle" x="1736.5" y="-239.6" font-family="Helvetica,sans-Serif" font-size="8.00">ZMQ SUB</text>
</g>
</g>
</svg>
