<?xml version="1.0" encoding="UTF-8" standalone="no"?>
<!DOCTYPE svg PUBLIC "-//W3C//DTD SVG 1.1//EN"
 "http://www.w3.org/Graphics/SVG/1.1/DTD/svg11.dtd">
<!-- Generated by graphviz version 2.42.4 (0)
 -->
<!-- Title: DesktopAssistant Pages: 1 -->
<svg width="1476pt" height="698pt"
 viewBox="0.00 0.00 1476.00 698.00" xmlns="http://www.w3.org/2000/svg" xmlns:xlink="http://www.w3.org/1999/xlink">
<g id="graph0" class="graph" transform="scale(1 1) rotate(0) translate(4 694)">
<title>DesktopAssistant</title>
<polygon fill="white" stroke="transparent" points="-4,4 -4,-694 1472,-694 1472,4 -4,4"/>
<text text-anchor="start" x="547" y="-674.2" font-family="Helvetica,sans-Serif" font-weight="bold" font-size="16.00">Desktop Assistant — System Architecture</text>
<text text-anchor="start" x="667.5" y="-663" font-family="Helvetica,sans-Serif" font-size="10.00">v0.6.1 — Phase 2 complete</text>
<g id="clust1" class="cluster">
<title>cluster_hw</title>
<path fill="#f5e9d8" stroke="black" d="M211,-568C211,-568 1131,-568 1131,-568 1137,-568 1143,-574 1143,-580 1143,-580 1143,-636 1143,-636 1143,-642 1137,-648 1131,-648 1131,-648 211,-648 211,-648 205,-648 199,-642 199,-636 199,-636 199,-580 199,-580 199,-574 205,-568 211,-568"/>
<text text-anchor="middle" x="671" y="-635.2" font-family="Helvetica,sans-Serif" font-size="11.00">Hardware (Raspberry Pi 5)</text>
</g>
<g id="clust2" class="cluster">
<title>cluster_drv</title>
<path fill="#dfeefc" stroke="black" d="M20,-253C20,-253 1057,-253 1057,-253 1063,-253 1069,-259 1069,-265 1069,-265 1069,-525 1069,-525 1069,-531 1063,-537 1057,-537 1057,-537 20,-537 20,-537 14,-537 8,-531 8,-525 8,-525 8,-265 8,-265 8,-259 14,-253 20,-253"/>
<text text-anchor="middle" x="538.5" y="-524.2" font-family="Helvetica,sans-Serif" font-size="11.00">Drivers (src/)</text>
</g>
<g id="clust3" class="cluster">
<title>cluster_core</title>
<path fill="#e7e3fb" stroke="black" d="M364,-8C364,-8 742,-8 742,-8 748,-8 754,-14 754,-20 754,-20 754,-76 754,-76 754,-82 748,-88 742,-88 742,-88 364,-88 364,-88 358,-88 352,-82 352,-76 352,-76 352,-20 352,-20 352,-14 358,-8 364,-8"/>
<text text-anchor="middle" x="553" y="-75.2" font-family="Helvetica,sans-Serif" font-size="11.00">Core (src/core/)</text>
</g>
<g id="clust6" class="cluster">
<title>cluster_ext</title>
<path fill="#fff7c2" stroke="black" d="M1089,-249C1089,-249 1448,-249 1448,-249 1454,-249 1460,-255 1460,-261 1460,-261 1460,-317 1460,-317 1460,-323 1454,-329 1448,-329 1448,-329 1089,-329 1089,-329 1083,-329 1077,-323 1077,-317 1077,-317 1077,-261 1077,-261 1077,-255 1083,-249 1089,-249"/>
<text text-anchor="middle" x="1268.5" y="-316.2" font-family="Helvetica,sans-Serif" font-size="11.00">External processes</text>
</g>
<!-- hw_tmp117 -->
<g id="node1" class="node">
<title>hw_tmp117</title>
<path fill="#ffd6a5" stroke="black" d="M968.5,-620C968.5,-620 921.5,-620 921.5,-620 915.5,-620 909.5,-614 909.5,-608 909.5,-608 909.5,-588 909.5,-588 909.5,-582 915.5,-576 921.5,-576 921.5,-576 968.5,-576 968.5,-576 974.5,-576 980.5,-582 980.5,-588 980.5,-588 980.5,-608 980.5,-608 980.5,-614 974.5,-620 968.5,-620"/>
<text text-anchor="middle" x="945" y="-601" font-family="Helvetica,sans-Serif" font-size="10.00">TMP117</text>
<text text-anchor="middle" x="945" y="-590" font-family="Helvetica,sans-Serif" font-size="10.00">(I²C 0x48)</text>
</g>
<!-- drv_tmp117 -->
<g id="node8" class="node">
<title>drv_tmp117</title>
<path fill="#a5c8ff" stroke="black" d="M1049,-505C1049,-505 957,-505 957,-505 951,-505 945,-499 945,-493 945,-493 945,-481 945,-481 945,-475 951,-469 957,-469 957,-469 1049,-469 1049,-469 1055,-469 1061,-475 1061,-481 1061,-481 1061,-493 1061,-493 1061,-499 1055,-505 1049,-505"/>
<text text-anchor="middle" x="1003" y="-484.5" font-family="Helvetica,sans-Serif" font-size="10.00">thermal/tmp117.py</text>
</g>
<!-- hw_tmp117&#45;&gt;drv_tmp117 -->
<g id="edge1" class="edge">
<title>hw_tmp117&#45;&gt;drv_tmp117</title>
<path fill="none" stroke="#555555" d="M956.18,-575.98C965.59,-558.31 979.08,-532.96 989.16,-514.01"/>
<polygon fill="#555555" stroke="#555555" points="992.34,-515.49 993.95,-505.02 986.16,-512.2 992.34,-515.49"/>
<text text-anchor="middle" x="977.5" y="-547.6" font-family="Helvetica,sans-Serif" font-size="8.00">I²C</text>
</g>
<!-- hw_fan -->
<g id="node2" class="node">
<title>hw_fan</title>
<path fill="#ffd6a5" stroke="black" d="M738,-620C738,-620 644,-620 644,-620 638,-620 632,-614 632,-608 632,-608 632,-588 632,-588 632,-582 638,-576 644,-576 644,-576 738,-576 738,-576 744,-576 750,-582 750,-588 750,-588 750,-608 750,-608 750,-614 744,-620 738,-620"/>
<text text-anchor="middle" x="691" y="-601" font-family="Helvetica,sans-Serif" font-size="10.00">NF&#45;A6x25 PWM Fan</text>
<text text-anchor="middle" x="691" y="-590" font-family="Helvetica,sans-Serif" font-size="10.00">(GPIO13)</text>
</g>
<!-- drv_fan -->
<g id="node9" class="node">
<title>drv_fan</title>
<path fill="#a5c8ff" stroke="black" d="M726.5,-509C726.5,-509 655.5,-509 655.5,-509 649.5,-509 643.5,-503 643.5,-497 643.5,-497 643.5,-477 643.5,-477 643.5,-471 649.5,-465 655.5,-465 655.5,-465 726.5,-465 726.5,-465 732.5,-465 738.5,-471 738.5,-477 738.5,-477 738.5,-497 738.5,-497 738.5,-503 732.5,-509 726.5,-509"/>
<text text-anchor="middle" x="691" y="-490" font-family="Helvetica,sans-Serif" font-size="10.00">thermal/fan.py</text>
<text text-anchor="middle" x="691" y="-479" font-family="Helvetica,sans-Serif" font-size="10.00">(lgpio PWM)</text>
</g>
<!-- hw_fan&#45;&gt;drv_fan -->
<g id="edge2" class="edge">
<title>hw_fan&#45;&gt;drv_fan</title>
<path fill="none" stroke="#555555" d="M691,-575.98C691,-559.95 691,-537.61 691,-519.45"/>
<polygon fill="#555555" stroke="#555555" points="694.5,-519.32 691,-509.32 687.5,-519.32 694.5,-519.32"/>
<text text-anchor="middle" x="701" y="-547.6" font-family="Helvetica,sans-Serif" font-size="8.00">PWM</text>
</g>
<!-- hw_servo -->
<g id="node3" class="node">
<title>hw_servo</title>
<path fill="#ffd6a5" stroke="black" d="M458,-620C458,-620 382,-620 382,-620 376,-620 370,-614 370,-608 370,-608 370,-588 370,-588 370,-582 376,-576 382,-576 382,-576 458,-576 458,-576 464,-576 470,-582 470,-588 470,-588 470,-608 470,-608 470,-614 464,-620 458,-620"/>
<text text-anchor="middle" x="420" y="-601" font-family="Helvetica,sans-Serif" font-size="10.00">DS3218 Servo</text>
<text text-anchor="middle" x="420" y="-590" font-family="Helvetica,sans-Serif" font-size="10.00">(PCA9685 ch15)</text>
</g>
<!-- drv_servo -->
<g id="node11" class="node">
<title>drv_servo</title>
<path fill="#a5c8ff" stroke="black" d="M292.5,-505C292.5,-505 163.5,-505 163.5,-505 157.5,-505 151.5,-499 151.5,-493 151.5,-493 151.5,-481 151.5,-481 151.5,-475 157.5,-469 163.5,-469 163.5,-469 292.5,-469 292.5,-469 298.5,-469 304.5,-475 304.5,-481 304.5,-481 304.5,-493 304.5,-493 304.5,-499 298.5,-505 292.5,-505"/>
<text text-anchor="middle" x="228" y="-484.5" font-family="Helvetica,sans-Serif" font-size="10.00">motion/servo_controller.py</text>
</g>
<!-- hw_servo&#45;&gt;drv_servo -->
<g id="edge3" class="edge">
<title>hw_servo&#45;&gt;drv_servo</title>
<path fill="none" stroke="#555555" d="M382.98,-575.98C349.57,-557.02 300.6,-529.21 266.68,-509.96"/>
<polygon fill="#555555" stroke="#555555" points="268.4,-506.91 257.97,-505.02 264.94,-513 268.4,-506.91"/>
<text text-anchor="middle" x="358" y="-547.6" font-family="Helvetica,sans-Serif" font-size="8.00">I²C/PWM</text>
</g>
<!-- hw_cam -->
<g id="node4" class="node">
<title>hw_cam</title>
<path fill="#ffd6a5" stroke="black" d="M328.5,-620C328.5,-620 219.5,-620 219.5,-620 213.5,-620 207.5,-614 207.5,-608 207.5,-608 207.5,-588 207.5,-588 207.5,-582 213.5,-576 219.5,-576 219.5,-576 328.5,-576 328.5,-576 334.5,-576 340.5,-582 340.5,-588 340.5,-588 340.5,-608 340.5,-608 340.5,-614 334.5,-620 328.5,-620"/>
<text text-anchor="middle" x="274" y="-601" font-family="Helvetica,sans-Serif" font-size="10.00">Pi Cam Module 3 Wide</text>
<text text-anchor="middle" x="274" y="-590" font-family="Helvetica,sans-Serif" font-size="10.00">(CSI&#45;0)</text>
</g>
<!-- drv_cam -->
<g id="node12" class="node">
<title>drv_cam</title>
<path fill="#a5c8ff" stroke="black" d="M110.5,-509C110.5,-509 27.5,-509 27.5,-509 21.5,-509 15.5,-503 15.5,-497 15.5,-497 15.5,-477 15.5,-477 15.5,-471 21.5,-465 27.5,-465 27.5,-465 110.5,-465 110.5,-465 116.5,-465 122.5,-471 122.5,-477 122.5,-477 122.5,-497 122.5,-497 122.5,-503 116.5,-509 110.5,-509"/>
<text text-anchor="middle" x="69" y="-490" font-family="Helvetica,sans-Serif" font-size="10.00">vision/camera.py</text>
<text text-anchor="middle" x="69" y="-479" font-family="Helvetica,sans-Serif" font-size="10.00">(picamera2)</text>
</g>
<!-- hw_cam&#45;&gt;drv_cam -->
<g id="edge4" class="edge">
<title>hw_cam&#45;&gt;drv_cam</title>
<path fill="none" stroke="#555555" d="M218.7,-575.92C193.21,-565.41 162.93,-551.8 137,-537 125.73,-530.57 114.06,-522.67 103.64,-515.11"/>
<polygon fill="#555555" stroke="#555555" points="105.7,-512.29 95.58,-509.16 101.54,-517.92 105.7,-512.29"/>
<text text-anchor="middle" x="172.5" y="-547.6" font-family="Helvetica,sans-Serif" font-size="8.00">CSI</text>
</g>
<!-- hw_mic -->
<g id="node5" class="node">
<title>hw_mic</title>
<path fill="#ffd6a5" stroke="black" d="M590.5,-616C590.5,-616 511.5,-616 511.5,-616 505.5,-616 499.5,-610 499.5,-604 499.5,-604 499.5,-592 499.5,-592 499.5,-586 505.5,-580 511.5,-580 511.5,-580 590.5,-580 590.5,-580 596.5,-580 602.5,-586 602.5,-592 602.5,-592 602.5,-604 602.5,-604 602.5,-610 596.5,-616 590.5,-616"/>
<text text-anchor="middle" x="551" y="-595.5" font-family="Helvetica,sans-Serif" font-size="10.00">USB Microphone</text>
</g>
<!-- drv_ain -->
<g id="node14" class="node">
<title>drv_ain</title>
<path fill="#a5c8ff" stroke="black" d="M414,-505C414,-505 346,-505 346,-505 340,-505 334,-499 334,-493 334,-493 334,-481 334,-481 334,-475 340,-469 346,-469 346,-469 414,-469 414,-469 420,-469 426,-475 426,-481 426,-481 426,-493 426,-493 426,-499 420,-505 414,-505"/>
<text text-anchor="middle" x="380" y="-484.5" font-family="Helvetica,sans-Serif" font-size="10.00">audio/input.py</text>
</g>
<!-- hw_mic&#45;&gt;drv_ain -->
<g id="edge5" class="edge">
<title>hw_mic&#45;&gt;drv_ain</title>
<path fill="none" stroke="#555555" d="M515.89,-579.87C493.82,-568.62 465.07,-553.05 441,-537 429.5,-529.33 417.5,-520.01 407.21,-511.57"/>
<polygon fill="#555555" stroke="#555555" points="409.3,-508.75 399.38,-505.04 404.82,-514.13 409.3,-508.75"/>
<text text-anchor="middle" x="475.5" y="-547.6" font-family="Helvetica,sans-Serif" font-size="8.00">USB</text>
</g>
<!-- hw_spk -->
<g id="node6" class="node">
<title>hw_spk</title>
<path fill="#ffd6a5" stroke="black" d="M1122.5,-620C1122.5,-620 1021.5,-620 1021.5,-620 1015.5,-620 1009.5,-614 1009.5,-608 1009.5,-608 1009.5,-588 1009.5,-588 1009.5,-582 1015.5,-576 1021.5,-576 1021.5,-576 1122.5,-576 1122.5,-576 1128.5,-576 1134.5,-582 1134.5,-588 1134.5,-588 1134.5,-608 1134.5,-608 1134.5,-614 1128.5,-620 1122.5,-620"/>
<text text-anchor="middle" x="1072" y="-601" font-family="Helvetica,sans-Serif" font-size="10.00">Sabrent USB Audio →</text>
<text text-anchor="middle" x="1072" y="-590" font-family="Helvetica,sans-Serif" font-size="10.00">8 Ω stereo speakers</text>
</g>
<!-- drv_aout -->
<g id="node13" class="node">
<title>drv_aout</title>
<path fill="#a5c8ff" stroke="black" d="M1011.5,-297C1011.5,-297 936.5,-297 936.5,-297 930.5,-297 924.5,-291 924.5,-285 924.5,-285 924.5,-273 924.5,-273 924.5,-267 930.5,-261 936.5,-261 936.5,-261 1011.5,-261 1011.5,-261 1017.5,-261 1023.5,-267 1023.5,-273 1023.5,-273 1023.5,-285 1023.5,-285 1023.5,-291 1017.5,-297 1011.5,-297"/>
<text text-anchor="middle" x="974" y="-276.5" font-family="Helvetica,sans-Serif" font-size="10.00">audio/output.py</text>
</g>
<!-- hw_spk&#45;&gt;drv_aout -->
<g id="edge6" class="edge">
<title>hw_spk&#45;&gt;drv_aout</title>
<path fill="none" stroke="#555555" d="M1076.26,-575.56C1080.71,-549.11 1085.77,-502.97 1076,-465 1060.05,-403.05 1018.49,-339.64 993.62,-305.52"/>
<polygon fill="#555555" stroke="#555555" points="996.14,-303.05 987.38,-297.09 990.52,-307.21 996.14,-303.05"/>
<text text-anchor="middle" x="1076.5" y="-436.6" font-family="Helvetica,sans-Serif" font-size="8.00">USB</text>
</g>
<!-- hw_hailo -->
<g id="node7" class="node">
<title>hw_hailo</title>
<path fill="#ffd6a5" stroke="black" d="M868.5,-620C868.5,-620 791.5,-620 791.5,-620 785.5,-620 779.5,-614 779.5,-608 779.5,-608 779.5,-588 779.5,-588 779.5,-582 785.5,-576 791.5,-576 791.5,-576 868.5,-576 868.5,-576 874.5,-576 880.5,-582 880.5,-588 880.5,-588 880.5,-608 880.5,-608 880.5,-614 874.5,-620 868.5,-620"/>
<text text-anchor="middle" x="830" y="-601" font-family="Helvetica,sans-Serif" font-size="10.00">Hailo&#45;8 AI HAT+</text>
<text text-anchor="middle" x="830" y="-590" font-family="Helvetica,sans-Serif" font-size="10.00">(26 TOPS, PCIe)</text>
</g>
<!-- drv_hailo -->
<g id="node17" class="node">
<title>drv_hailo</title>
<path fill="#a5c8ff" stroke="black" stroke-dasharray="5,2" d="M904.5,-505C904.5,-505 779.5,-505 779.5,-505 773.5,-505 767.5,-499 767.5,-493 767.5,-493 767.5,-481 767.5,-481 767.5,-475 773.5,-469 779.5,-469 779.5,-469 904.5,-469 904.5,-469 910.5,-469 916.5,-475 916.5,-481 916.5,-481 916.5,-493 916.5,-493 916.5,-499 910.5,-505 904.5,-505"/>
<text text-anchor="middle" x="842" y="-484.5" font-family="Helvetica,sans-Serif" font-size="10.00">perception/hailo_probe.py</text>
</g>
<!-- hw_hailo&#45;&gt;drv_hailo -->
<g id="edge7" class="edge">
<title>hw_hailo&#45;&gt;drv_hailo</title>
<path fill="none" stroke="#555555" d="M832.31,-575.98C834.22,-558.63 836.95,-533.88 839.02,-515.05"/>
<polygon fill="#555555" stroke="#555555" points="842.51,-515.34 840.13,-505.02 835.55,-514.57 842.51,-515.34"/>
<text text-anchor="middle" x="844" y="-547.6" font-family="Helvetica,sans-Serif" font-size="8.00">PCIe</text>
</g>
<!-- drv_thmgr -->
<g id="node10" class="node">
<title>drv_thmgr</title>
<path fill="#a5c8ff" stroke="black" d="M950.5,-408C950.5,-408 809.5,-408 809.5,-408 803.5,-408 797.5,-402 797.5,-396 797.5,-396 797.5,-384 797.5,-384 797.5,-378 803.5,-372 809.5,-372 809.5,-372 950.5,-372 950.5,-372 956.5,-372 962.5,-378 962.5,-384 962.5,-384 962.5,-396 962.5,-396 962.5,-402 956.5,-408 950.5,-408"/>
<text text-anchor="middle" x="880" y="-387.5" font-family="Helvetica,sans-Serif" font-size="10.00">thermal/thermal_manager.py</text>
</g>
<!-- drv_tmp117&#45;&gt;drv_thmgr -->
<g id="edge8" class="edge">
<title>drv_tmp117&#45;&gt;drv_thmgr</title>
<path fill="none" stroke="#555555" d="M980.73,-468.8C960.96,-453.53 931.91,-431.1 910.09,-414.24"/>
<polygon fill="#555555" stroke="#555555" points="912.16,-411.42 902.11,-408.08 907.88,-416.96 912.16,-411.42"/>
</g>
<!-- drv_fan&#45;&gt;drv_thmgr -->
<g id="edge9" class="edge">
<title>drv_fan&#45;&gt;drv_thmgr</title>
<path fill="none" stroke="#555555" d="M732.95,-464.92C763.79,-449.41 805.6,-428.4 836.75,-412.74"/>
<polygon fill="#555555" stroke="#555555" points="838.69,-415.68 846.05,-408.06 835.54,-409.43 838.69,-415.68"/>
</g>
<!-- svc_thermal -->
<g id="node21" class="node">
<title>svc_thermal</title>
<path fill="#f4a3a3" stroke="black" d="M952,-204C952,-204 866,-204 866,-204 860,-204 854,-198 854,-192 854,-192 854,-139 854,-139 854,-133 860,-127 866,-127 866,-127 952,-127 952,-127 958,-127 964,-133 964,-139 964,-139 964,-192 964,-192 964,-198 958,-204 952,-204"/>
<text text-anchor="middle" x="909" y="-185" font-family="Helvetica,sans-Serif" font-size="10.00">ThermalService</text>
<text text-anchor="middle" x="909" y="-174" font-family="Helvetica,sans-Serif" font-size="10.00">— thermal.temp</text>
<text text-anchor="middle" x="909" y="-163" font-family="Helvetica,sans-Serif" font-size="10.00">— thermal.fan</text>
<text text-anchor="middle" x="909" y="-152" font-family="Helvetica,sans-Serif" font-size="10.00">— thermal.critical</text>
<text text-anchor="middle" x="909" y="-141" font-family="Helvetica,sans-Serif" font-size="10.00">— thermal.error</text>
</g>
<!-- drv_thmgr&#45;&gt;svc_thermal -->
<g id="edge13" class="edge">
<title>drv_thmgr&#45;&gt;svc_thermal</title>
<path fill="none" stroke="#555555" d="M882.23,-371.91C886.57,-338.56 896.32,-263.76 902.78,-214.23"/>
<polygon fill="#555555" stroke="#555555" points="906.28,-214.43 904.1,-204.06 899.34,-213.53 906.28,-214.43"/>
</g>
<!-- svc_motion -->
<g id="node22" class="node">
<title>svc_motion</title>
<path fill="#a8d88d" stroke="black" d="M318,-193C318,-193 174,-193 174,-193 168,-193 162,-187 162,-181 162,-181 162,-150 162,-150 162,-144 168,-138 174,-138 174,-138 318,-138 318,-138 324,-138 330,-144 330,-150 330,-150 330,-181 330,-181 330,-187 324,-193 318,-193"/>
<text text-anchor="middle" x="246" y="-174" font-family="Helvetica,sans-Serif" font-size="10.00">MotionService</text>
<text text-anchor="middle" x="246" y="-163" font-family="Helvetica,sans-Serif" font-size="10.00">← motion.pan_to / relax / stop</text>
<text text-anchor="middle" x="246" y="-152" font-family="Helvetica,sans-Serif" font-size="10.00">→ motion.position / moved</text>
</g>
<!-- drv_servo&#45;&gt;svc_motion -->
<g id="edge14" class="edge">
<title>drv_servo&#45;&gt;svc_motion</title>
<path fill="none" stroke="#555555" d="M228.97,-468.82C231.79,-418.77 240.04,-272.23 243.93,-203.23"/>
<polygon fill="#555555" stroke="#555555" points="247.43,-203.42 244.49,-193.24 240.44,-203.03 247.43,-203.42"/>
</g>
<!-- svc_vision -->
<g id="node23" class="node">
<title>svc_vision</title>
<path fill="#a8d88d" stroke="black" d="M121,-198.5C121,-198.5 17,-198.5 17,-198.5 11,-198.5 5,-192.5 5,-186.5 5,-186.5 5,-144.5 5,-144.5 5,-138.5 11,-132.5 17,-132.5 17,-132.5 121,-132.5 121,-132.5 127,-132.5 133,-138.5 133,-144.5 133,-144.5 133,-186.5 133,-186.5 133,-192.5 127,-198.5 121,-198.5"/>
<text text-anchor="middle" x="69" y="-179.5" font-family="Helvetica,sans-Serif" font-size="10.00">VisionService</text>
<text text-anchor="middle" x="69" y="-168.5" font-family="Helvetica,sans-Serif" font-size="10.00">→ vision.frame_ready</text>
<text text-anchor="middle" x="69" y="-157.5" font-family="Helvetica,sans-Serif" font-size="10.00">← vision.capture_still</text>
<text text-anchor="middle" x="69" y="-146.5" font-family="Helvetica,sans-Serif" font-size="10.00">+ latest_frame()</text>
</g>
<!-- drv_cam&#45;&gt;svc_vision -->
<g id="edge15" class="edge">
<title>drv_cam&#45;&gt;svc_vision</title>
<path fill="none" stroke="#555555" d="M69,-464.79C69,-412.82 69,-278.35 69,-209.1"/>
<polygon fill="#555555" stroke="#555555" points="72.5,-208.97 69,-198.97 65.5,-208.97 72.5,-208.97"/>
</g>
<!-- svc_av -->
<g id="node25" class="node">
<title>svc_av</title>
<path fill="#a8d88d" stroke="black" d="M812.5,-193C812.5,-193 585.5,-193 585.5,-193 579.5,-193 573.5,-187 573.5,-181 573.5,-181 573.5,-150 573.5,-150 573.5,-144 579.5,-138 585.5,-138 585.5,-138 812.5,-138 812.5,-138 818.5,-138 824.5,-144 824.5,-150 824.5,-150 824.5,-181 824.5,-181 824.5,-187 818.5,-193 812.5,-193"/>
<text text-anchor="middle" x="699" y="-174" font-family="Helvetica,sans-Serif" font-size="10.00">AVService</text>
<text text-anchor="middle" x="699" y="-163" font-family="Helvetica,sans-Serif" font-size="10.00">← av.say / beep / utterance / announce_version</text>
<text text-anchor="middle" x="699" y="-152" font-family="Helvetica,sans-Serif" font-size="10.00">→ av.spoke / version_announced</text>
</g>
<!-- drv_aout&#45;&gt;svc_av -->
<g id="edge17" class="edge">
<title>drv_aout&#45;&gt;svc_av</title>
<path fill="none" stroke="#555555" d="M931.93,-260.94C890.01,-243.94 824.72,-217.47 773.92,-196.88"/>
<polygon fill="#555555" stroke="#555555" points="775.2,-193.62 764.61,-193.1 772.56,-200.1 775.2,-193.62"/>
</g>
<!-- svc_audio -->
<g id="node24" class="node">
<title>svc_audio</title>
<path fill="#a8d88d" stroke="black" d="M473,-193C473,-193 371,-193 371,-193 365,-193 359,-187 359,-181 359,-181 359,-150 359,-150 359,-144 365,-138 371,-138 371,-138 473,-138 473,-138 479,-138 485,-144 485,-150 485,-150 485,-181 485,-181 485,-187 479,-193 473,-193"/>
<text text-anchor="middle" x="422" y="-174" font-family="Helvetica,sans-Serif" font-size="10.00">AudioCaptureService</text>
<text text-anchor="middle" x="422" y="-163" font-family="Helvetica,sans-Serif" font-size="10.00">→ audio.level / chunk</text>
<text text-anchor="middle" x="422" y="-152" font-family="Helvetica,sans-Serif" font-size="10.00">+ latest_chunk()</text>
</g>
<!-- drv_ain&#45;&gt;svc_audio -->
<g id="edge16" class="edge">
<title>drv_ain&#45;&gt;svc_audio</title>
<path fill="none" stroke="#555555" d="M382.26,-468.82C388.84,-418.77 408.1,-272.23 417.17,-203.23"/>
<polygon fill="#555555" stroke="#555555" points="420.65,-203.61 418.48,-193.24 413.71,-202.7 420.65,-203.61"/>
</g>
<!-- drv_tts -->
<g id="node15" class="node">
<title>drv_tts</title>
<path fill="#a5c8ff" stroke="black" d="M727.5,-412C727.5,-412 670.5,-412 670.5,-412 664.5,-412 658.5,-406 658.5,-400 658.5,-400 658.5,-380 658.5,-380 658.5,-374 664.5,-368 670.5,-368 670.5,-368 727.5,-368 727.5,-368 733.5,-368 739.5,-374 739.5,-380 739.5,-380 739.5,-400 739.5,-400 739.5,-406 733.5,-412 727.5,-412"/>
<text text-anchor="middle" x="699" y="-393" font-family="Helvetica,sans-Serif" font-size="10.00">audio/tts.py</text>
<text text-anchor="middle" x="699" y="-382" font-family="Helvetica,sans-Serif" font-size="10.00">(espeak&#45;ng)</text>
</g>
<!-- drv_tts&#45;&gt;drv_aout -->
<g id="edge10" class="edge">
<title>drv_tts&#45;&gt;drv_aout</title>
<path fill="none" stroke="#555555" stroke-dasharray="5,2" d="M739.58,-372.92C787.82,-353.79 868.45,-321.84 921.43,-300.84"/>
<polygon fill="#555555" stroke="#555555" points="922.98,-303.99 930.99,-297.05 920.4,-297.48 922.98,-303.99"/>
<text text-anchor="middle" x="849.5" y="-339.6" font-family="Helvetica,sans-Serif" font-size="8.00">renders to</text>
</g>
<!-- drv_tts&#45;&gt;svc_av -->
<g id="edge18" class="edge">
<title>drv_tts&#45;&gt;svc_av</title>
<path fill="none" stroke="#555555" d="M699,-367.67C699,-329.75 699,-250.19 699,-203.29"/>
<polygon fill="#555555" stroke="#555555" points="702.5,-203.24 699,-193.24 695.5,-203.24 702.5,-203.24"/>
</g>
<!-- drv_van -->
<g id="node16" class="node">
<title>drv_van</title>
<path fill="#a5c8ff" stroke="black" d="M602.5,-505C602.5,-505 467.5,-505 467.5,-505 461.5,-505 455.5,-499 455.5,-493 455.5,-493 455.5,-481 455.5,-481 455.5,-475 461.5,-469 467.5,-469 467.5,-469 602.5,-469 602.5,-469 608.5,-469 614.5,-475 614.5,-481 614.5,-481 614.5,-493 614.5,-493 614.5,-499 608.5,-505 602.5,-505"/>
<text text-anchor="middle" x="535" y="-484.5" font-family="Helvetica,sans-Serif" font-size="10.00">audio/version_announcer.py</text>
</g>
<!-- drv_van&#45;&gt;drv_tts -->
<g id="edge11" class="edge">
<title>drv_van&#45;&gt;drv_tts</title>
<path fill="none" stroke="#555555" d="M572.88,-468.97C588.65,-461.51 606.98,-452.33 623,-443 636.01,-435.43 649.73,-426.39 661.87,-417.99"/>
<polygon fill="#555555" stroke="#555555" points="664.22,-420.62 670.41,-412.02 660.21,-414.88 664.22,-420.62"/>
</g>
<!-- core_ver -->
<g id="node20" class="node">
<title>core_ver</title>
<path fill="#bdb1f5" stroke="black" d="M606.5,-60C606.5,-60 523.5,-60 523.5,-60 517.5,-60 511.5,-54 511.5,-48 511.5,-48 511.5,-28 511.5,-28 511.5,-22 517.5,-16 523.5,-16 523.5,-16 606.5,-16 606.5,-16 612.5,-16 618.5,-22 618.5,-28 618.5,-28 618.5,-48 618.5,-48 618.5,-54 612.5,-60 606.5,-60"/>
<text text-anchor="middle" x="565" y="-41" font-family="Helvetica,sans-Serif" font-size="10.00">version.py</text>
<text text-anchor="middle" x="565" y="-30" font-family="Helvetica,sans-Serif" font-size="10.00">(reads /VERSION)</text>
</g>
<!-- drv_van&#45;&gt;core_ver -->
<g id="edge12" class="edge">
<title>drv_van&#45;&gt;core_ver</title>
<path fill="none" stroke="#555555" stroke-dasharray="5,2" d="M533.26,-468.86C531.49,-449.85 529,-418.27 529,-391 529,-391 529,-391 529,-164.5 529,-131.08 540.94,-94.53 551.07,-69.54"/>
<polygon fill="#555555" stroke="#555555" points="554.33,-70.81 554.97,-60.23 547.88,-68.1 554.33,-70.81"/>
</g>
<!-- drv_van&#45;&gt;svc_av -->
<g id="edge19" class="edge">
<title>drv_van&#45;&gt;svc_av</title>
<path fill="none" stroke="#555555" d="M543.82,-468.82C569.62,-418.56 645.35,-271.03 680.58,-202.39"/>
<polygon fill="#555555" stroke="#555555" points="683.82,-203.74 685.27,-193.24 677.59,-200.54 683.82,-203.74"/>
</g>
<!-- core_bus -->
<g id="node18" class="node">
<title>core_bus</title>
<path fill="#bdb1f5" stroke="black" d="M470,-60C470,-60 372,-60 372,-60 366,-60 360,-54 360,-48 360,-48 360,-28 360,-28 360,-22 366,-16 372,-16 372,-16 470,-16 470,-16 476,-16 482,-22 482,-28 482,-28 482,-48 482,-48 482,-54 476,-60 470,-60"/>
<text text-anchor="middle" x="421" y="-41" font-family="Helvetica,sans-Serif" font-size="10.00">MessageBus</text>
<text text-anchor="middle" x="421" y="-30" font-family="Helvetica,sans-Serif" font-size="10.00">(in&#45;process pub/sub)</text>
</g>
<!-- core_bus&#45;&gt;svc_motion -->
<g id="edge21" class="edge">
<title>core_bus&#45;&gt;svc_motion</title>
<path fill="none" stroke="#226622" d="M380.77,-60.01C362.59,-70.09 341.17,-82.84 323,-96 308.6,-106.43 293.78,-119.09 281.03,-130.67"/>
<polygon fill="#226622" stroke="#226622" points="278.37,-128.36 273.38,-137.71 283.11,-133.51 278.37,-128.36"/>
</g>
<!-- core_bus&#45;&gt;svc_vision -->
<g id="edge23" class="edge">
<title>core_bus&#45;&gt;svc_vision</title>
<path fill="none" stroke="#226622" d="M359.95,-55.33C321.29,-66.04 270.39,-80.84 226,-96 190.31,-108.19 181.58,-111.93 147,-127 145.44,-127.68 143.86,-128.38 142.27,-129.08"/>
<polygon fill="#226622" stroke="#226622" points="140.78,-125.92 133.1,-133.22 143.65,-132.3 140.78,-125.92"/>
</g>
<!-- core_bus&#45;&gt;svc_audio -->
<g id="edge25" class="edge">
<title>core_bus&#45;&gt;svc_audio</title>
<path fill="none" stroke="#226622" d="M421.17,-60.17C421.32,-78.65 421.53,-105.87 421.71,-127.88"/>
<polygon fill="#226622" stroke="#226622" points="418.21,-127.91 421.79,-137.88 425.21,-127.86 418.21,-127.91"/>
</g>
<!-- core_bus&#45;&gt;svc_av -->
<g id="edge27" class="edge">
<title>core_bus&#45;&gt;svc_av</title>
<path fill="none" stroke="#226622" d="M446.75,-60.2C460.74,-70.47 478.85,-81.89 497,-88 540.94,-102.79 557.35,-80.39 601,-96 622.84,-103.81 644.28,-117.85 661.51,-131.19"/>
<polygon fill="#226622" stroke="#226622" points="659.61,-134.16 669.61,-137.66 663.98,-128.68 659.61,-134.16"/>
</g>
<!-- svc_ipc -->
<g id="node26" class="node">
<title>svc_ipc</title>
<path fill="#a8d88d" stroke="black" d="M1210.5,-193C1210.5,-193 1005.5,-193 1005.5,-193 999.5,-193 993.5,-187 993.5,-181 993.5,-181 993.5,-150 993.5,-150 993.5,-144 999.5,-138 1005.5,-138 1005.5,-138 1210.5,-138 1210.5,-138 1216.5,-138 1222.5,-144 1222.5,-150 1222.5,-150 1222.5,-181 1222.5,-181 1222.5,-187 1216.5,-193 1210.5,-193"/>
<text text-anchor="middle" x="1108" y="-174" font-family="Helvetica,sans-Serif" font-size="10.00">IPCBridge</text>
<text text-anchor="middle" x="1108" y="-163" font-family="Helvetica,sans-Serif" font-size="10.00">ZMQ PUB ipc:///tmp/desktop&#45;assistant.pub</text>
<text text-anchor="middle" x="1108" y="-152" font-family="Helvetica,sans-Serif" font-size="10.00">ZMQ REP ipc:///tmp/desktop&#45;assistant.rep</text>
</g>
<!-- core_bus&#45;&gt;svc_ipc -->
<g id="edge29" class="edge">
<title>core_bus&#45;&gt;svc_ipc</title>
<path fill="none" stroke="#226622" d="M445.93,-60.1C459.97,-70.63 478.39,-82.3 497,-88 536.64,-100.13 829.01,-89.84 870,-96 919.81,-103.49 930.6,-113.08 979,-127 988.07,-129.61 997.49,-132.33 1006.93,-135.06"/>
<polygon fill="#226622" stroke="#226622" points="1006.18,-138.48 1016.76,-137.9 1008.12,-131.76 1006.18,-138.48"/>
</g>
<!-- core_svc -->
<g id="node19" class="node">
<title>core_svc</title>
<path fill="#bdb1f5" stroke="black" d="M734,-60C734,-60 660,-60 660,-60 654,-60 648,-54 648,-48 648,-48 648,-28 648,-28 648,-22 654,-16 660,-16 660,-16 734,-16 734,-16 740,-16 746,-22 746,-28 746,-28 746,-48 746,-48 746,-54 740,-60 734,-60"/>
<text text-anchor="middle" x="697" y="-41" font-family="Helvetica,sans-Serif" font-size="10.00">Service base</text>
<text text-anchor="middle" x="697" y="-30" font-family="Helvetica,sans-Serif" font-size="10.00">(start/tick/stop)</text>
</g>
<!-- svc_thermal&#45;&gt;core_bus -->
<g id="edge20" class="edge">
<title>svc_thermal&#45;&gt;core_bus</title>
<path fill="none" stroke="#cc3333" d="M853.99,-132.82C849.01,-130.63 843.97,-128.65 839,-127 750.28,-97.61 723.96,-105.68 631,-96 601.33,-92.91 525.35,-97.27 497,-88 482.09,-83.12 467.24,-74.59 454.67,-65.99"/>
<polygon fill="#cc3333" stroke="#cc3333" points="456.54,-63.02 446.36,-60.07 452.48,-68.73 456.54,-63.02"/>
</g>
<!-- svc_thermal&#45;&gt;core_svc -->
<g id="edge31" class="edge">
<title>svc_thermal&#45;&gt;core_svc</title>
<path fill="none" stroke="#555555" stroke-dasharray="1,5" d="M862.01,-126.75C847.93,-116.2 832.19,-105.14 817,-96 797.55,-84.3 775.32,-73.17 755.32,-63.9"/>
<polygon fill="#555555" stroke="#555555" points="756.56,-60.62 746.01,-59.64 753.65,-66.98 756.56,-60.62"/>
<text text-anchor="middle" x="846.5" y="-98.6" font-family="Helvetica,sans-Serif" font-size="8.00">extends</text>
</g>
<!-- svc_motion&#45;&gt;core_bus -->
<g id="edge22" class="edge">
<title>svc_motion&#45;&gt;core_bus</title>
<path fill="none" stroke="#226622" d="M283.11,-137.88C312.52,-116.8 353.44,-87.45 383.06,-66.21"/>
<polygon fill="#226622" stroke="#226622" points="385.39,-68.85 391.47,-60.17 381.31,-63.16 385.39,-68.85"/>
</g>
<!-- svc_motion&#45;&gt;core_svc -->
<g id="edge32" class="edge">
<title>svc_motion&#45;&gt;core_svc</title>
<path fill="none" stroke="#555555" stroke-dasharray="1,5" d="M309.76,-137.93C321.34,-133.8 333.42,-129.94 345,-127 360.65,-123.03 618.09,-94.2 633,-88 645.34,-82.87 657.37,-74.75 667.62,-66.59"/>
<polygon fill="#555555" stroke="#555555" points="669.98,-69.18 675.42,-60.08 665.5,-63.8 669.98,-69.18"/>
</g>
<!-- svc_vision&#45;&gt;core_bus -->
<g id="edge24" class="edge">
<title>svc_vision&#45;&gt;core_bus</title>
<path fill="none" stroke="#226622" d="M120.92,-132.45C143.13,-119.76 169.72,-105.88 195,-96 245.28,-76.35 304.53,-61.7 349.75,-52.18"/>
<polygon fill="#226622" stroke="#226622" points="350.68,-55.56 359.76,-50.1 349.26,-48.71 350.68,-55.56"/>
</g>
<!-- svc_vision&#45;&gt;core_svc -->
<g id="edge33" class="edge">
<title>svc_vision&#45;&gt;core_svc</title>
<path fill="none" stroke="#555555" stroke-dasharray="1,5" d="M130.81,-132.33C136.19,-130.29 141.64,-128.46 147,-127 304.93,-83.94 350.78,-108.38 514,-96 540.43,-94 608.2,-97.34 633,-88 645.71,-83.21 657.98,-75.01 668.32,-66.67"/>
<polygon fill="#555555" stroke="#555555" points="670.8,-69.16 676.17,-60.02 666.28,-63.82 670.8,-69.16"/>
</g>
<!-- svc_audio&#45;&gt;core_bus -->
<g id="edge26" class="edge">
<title>svc_audio&#45;&gt;core_bus</title>
<path fill="none" stroke="#226622" d="M432.28,-138C436.03,-125.37 438.93,-109.99 437,-96 435.81,-87.39 433.66,-78.24 431.32,-69.85"/>
<polygon fill="#226622" stroke="#226622" points="434.62,-68.67 428.41,-60.09 427.91,-70.67 434.62,-68.67"/>
</g>
<!-- svc_audio&#45;&gt;core_svc -->
<g id="edge34" class="edge">
<title>svc_audio&#45;&gt;core_svc</title>
<path fill="none" stroke="#555555" stroke-dasharray="1,5" d="M485.09,-147.17C528.2,-134.02 585.83,-113.81 633,-88 644.03,-81.97 655.2,-74.13 665.05,-66.5"/>
<polygon fill="#555555" stroke="#555555" points="667.34,-69.16 672.99,-60.19 662.99,-63.68 667.34,-69.16"/>
</g>
<!-- svc_av&#45;&gt;core_bus -->
<g id="edge28" class="edge">
<title>svc_av&#45;&gt;core_bus</title>
<path fill="none" stroke="#226622" d="M617.21,-137.95C579.79,-124.69 535.33,-107.34 497,-88 484.14,-81.51 470.74,-73.38 458.84,-65.62"/>
<polygon fill="#226622" stroke="#226622" points="460.73,-62.67 450.46,-60.06 456.86,-68.51 460.73,-62.67"/>
</g>
<!-- svc_av&#45;&gt;core_svc -->
<g id="edge35" class="edge">
<title>svc_av&#45;&gt;core_svc</title>
<path fill="none" stroke="#555555" stroke-dasharray="1,5" d="M698.58,-137.88C698.26,-118.16 697.83,-91.2 697.5,-70.41"/>
<polygon fill="#555555" stroke="#555555" points="701,-70.12 697.34,-60.17 694,-70.23 701,-70.12"/>
</g>
<!-- svc_ipc&#45;&gt;core_bus -->
<g id="edge30" class="edge">
<title>svc_ipc&#45;&gt;core_bus</title>
<path fill="none" stroke="#226622" d="M1047.99,-137.95C1009.86,-122.5 959.01,-104.44 912,-96 866.61,-87.85 541.11,-101.45 497,-88 481.87,-83.39 466.88,-74.82 454.26,-66.12"/>
<polygon fill="#226622" stroke="#226622" points="456.09,-63.12 445.93,-60.12 452,-68.8 456.09,-63.12"/>
</g>
<!-- svc_ipc&#45;&gt;core_svc -->
<g id="edge36" class="edge">
<title>svc_ipc&#45;&gt;core_svc</title>
<path fill="none" stroke="#555555" stroke-dasharray="1,5" d="M1098.54,-137.68C1091.97,-123.03 1081.72,-105.9 1067,-96 1017.34,-62.6 847.67,-47.76 756.34,-42.06"/>
<polygon fill="#555555" stroke="#555555" points="756.33,-38.55 746.14,-41.44 755.91,-45.54 756.33,-38.55"/>
</g>
<!-- ext_cli -->
<g id="node27" class="node">
<title>ext_cli</title>
<path fill="#ffe375" stroke="black" d="M1225,-301C1225,-301 1097,-301 1097,-301 1091,-301 1085,-295 1085,-289 1085,-289 1085,-269 1085,-269 1085,-263 1091,-257 1097,-257 1097,-257 1225,-257 1225,-257 1231,-257 1237,-263 1237,-269 1237,-269 1237,-289 1237,-289 1237,-295 1231,-301 1225,-301"/>
<text text-anchor="middle" x="1161" y="-282" font-family="Helvetica,sans-Serif" font-size="10.00">scripts/desktop&#45;assistant</text>
<text text-anchor="middle" x="1161" y="-271" font-family="Helvetica,sans-Serif" font-size="10.00">(CLI: pan / say / watch / ...)</text>
</g>
<!-- ext_cli&#45;&gt;svc_ipc -->
<g id="edge37" class="edge">
<title>ext_cli&#45;&gt;svc_ipc</title>
<path fill="none" stroke="#aa6600" d="M1150.91,-256.77C1143.59,-241.38 1133.53,-220.2 1124.98,-202.23"/>
<polygon fill="#aa6600" stroke="#aa6600" points="1128.13,-200.7 1120.68,-193.17 1121.81,-203.71 1128.13,-200.7"/>
<text text-anchor="middle" x="1167.5" y="-228.6" font-family="Helvetica,sans-Serif" font-size="8.00">ZMQ REQ/SUB</text>
</g>
<!-- ext_3p -->
<g id="node28" class="node">
<title>ext_3p</title>
<path fill="#ffe375" stroke="black" stroke-dasharray="5,2" d="M1440,-301C1440,-301 1278,-301 1278,-301 1272,-301 1266,-295 1266,-289 1266,-289 1266,-269 1266,-269 1266,-263 1272,-257 1278,-257 1278,-257 1440,-257 1440,-257 1446,-257 1452,-263 1452,-269 1452,-269 1452,-289 1452,-289 1452,-295 1446,-301 1440,-301"/>
<text text-anchor="middle" x="1359" y="-282" font-family="Helvetica,sans-Serif" font-size="10.00">3rd&#45;party subscribers</text>
<text text-anchor="middle" x="1359" y="-271" font-family="Helvetica,sans-Serif" font-size="10.00">(dashboards, future ML pipelines)</text>
</g>
<!-- ext_3p&#45;&gt;svc_ipc -->
<g id="edge38" class="edge">
<title>ext_3p&#45;&gt;svc_ipc</title>
<path fill="none" stroke="#aa6600" stroke-dasharray="5,2" d="M1311.49,-256.9C1273.49,-240.02 1219.68,-216.11 1176.94,-197.13"/>
<polygon fill="#aa6600" stroke="#aa6600" points="1178.28,-193.89 1167.72,-193.03 1175.44,-200.29 1178.28,-193.89"/>
<text text-anchor="middle" x="1273.5" y="-228.6" font-family="Helvetica,sans-Serif" font-size="8.00">ZMQ SUB</text>
</g>
</g>
</svg>
