<?xml version="1.0" encoding="UTF-8" standalone="no"?>
<!DOCTYPE svg PUBLIC "-//W3C//DTD SVG 1.1//EN"
 "http://www.w3.org/Graphics/SVG/1.1/DTD/svg11.dtd">
<!-- Generated by graphviz version 2.42.4 (0)
 -->
<!-- Title: DesktopAssistant Pages: 1 -->
<svg width="2093pt" height="838pt"
 viewBox="0.00 0.00 2093.00 837.50" xmlns="http://www.w3.org/2000/svg" xmlns:xlink="http://www.w3.org/1999/xlink">
<g id="graph0" class="graph" transform="scale(1 1) rotate(0) translate(4 833.5)">
<title>DesktopAssistant</title>
<polygon fill="white" stroke="transparent" points="-4,4 -4,-833.5 2089,-833.5 2089,4 -4,4"/>
<text text-anchor="start" x="855.5" y="-813.7" font-family="Helvetica,sans-Serif" font-weight="bold" font-size="16.00">Desktop Assistant — System Architecture</text>
<text text-anchor="start" x="959" y="-802.5" font-family="Helvetica,sans-Serif" font-size="10.00">v0.8.3 — cross&#45;process bus bridge</text>
<g id="clust1" class="cluster">
<title>cluster_hw</title>
<path fill="#f5e9d8" stroke="black" d="M63,-676.5C63,-676.5 1091,-676.5 1091,-676.5 1097,-676.5 1103,-682.5 1103,-688.5 1103,-688.5 1103,-775.5 1103,-775.5 1103,-781.5 1097,-787.5 1091,-787.5 1091,-787.5 63,-787.5 63,-787.5 57,-787.5 51,-781.5 51,-775.5 51,-775.5 51,-688.5 51,-688.5 51,-682.5 57,-676.5 63,-676.5"/>
<text text-anchor="middle" x="577" y="-774.7" font-family="Helvetica,sans-Serif" font-size="11.00">Hardware (Raspberry Pi 5)</text>
</g>
<g id="clust2" class="cluster">
<title>cluster_drv</title>
<path fill="#dfeefc" stroke="black" d="M20,-310.5C20,-310.5 1217,-310.5 1217,-310.5 1223,-310.5 1229,-316.5 1229,-322.5 1229,-322.5 1229,-633.5 1229,-633.5 1229,-639.5 1223,-645.5 1217,-645.5 1217,-645.5 20,-645.5 20,-645.5 14,-645.5 8,-639.5 8,-633.5 8,-633.5 8,-322.5 8,-322.5 8,-316.5 14,-310.5 20,-310.5"/>
<text text-anchor="middle" x="618.5" y="-632.7" font-family="Helvetica,sans-Serif" font-size="11.00">Drivers (src/)</text>
</g>
<g id="clust3" class="cluster">
<title>cluster_core</title>
<path fill="#e7e3fb" stroke="black" d="M836,-8C836,-8 1368,-8 1368,-8 1374,-8 1380,-14 1380,-20 1380,-20 1380,-96 1380,-96 1380,-102 1374,-108 1368,-108 1368,-108 836,-108 836,-108 830,-108 824,-102 824,-96 824,-96 824,-20 824,-20 824,-14 830,-8 836,-8"/>
<text text-anchor="middle" x="1102" y="-95.2" font-family="Helvetica,sans-Serif" font-size="11.00">Core (src/core/)</text>
</g>
<g id="clust4" class="cluster">
<title>cluster_svc_thermal</title>
<path fill="#fde0e0" stroke="black" d="M1827,-155.5C1827,-155.5 2065,-155.5 2065,-155.5 2071,-155.5 2077,-161.5 2077,-167.5 2077,-167.5 2077,-254.5 2077,-254.5 2077,-260.5 2071,-266.5 2065,-266.5 2065,-266.5 1827,-266.5 1827,-266.5 1821,-266.5 1815,-260.5 1815,-254.5 1815,-254.5 1815,-167.5 1815,-167.5 1815,-161.5 1821,-155.5 1827,-155.5"/>
<text text-anchor="middle" x="1946" y="-253.7" font-family="Helvetica,sans-Serif" font-size="11.00">systemd: desktop&#45;assistant&#45;thermal.service</text>
</g>
<g id="clust6" class="cluster">
<title>cluster_ext</title>
<path fill="#fff7c2" stroke="black" d="M1254,-306.5C1254,-306.5 1894,-306.5 1894,-306.5 1900,-306.5 1906,-312.5 1906,-318.5 1906,-318.5 1906,-394.5 1906,-394.5 1906,-400.5 1900,-406.5 1894,-406.5 1894,-406.5 1254,-406.5 1254,-406.5 1248,-406.5 1242,-400.5 1242,-394.5 1242,-394.5 1242,-318.5 1242,-318.5 1242,-312.5 1248,-306.5 1254,-306.5"/>
<text text-anchor="middle" x="1574" y="-393.7" font-family="Helvetica,sans-Serif" font-size="11.00">External processes</text>
</g>
<!-- hw_tmp117 -->
<g id="node1" class="node">
<title>hw_tmp117</title>
<path fill="#ffd6a5" stroke="black" d="M928.5,-734C928.5,-734 881.5,-734 881.5,-734 875.5,-734 869.5,-728 869.5,-722 869.5,-722 869.5,-702 869.5,-702 869.5,-696 875.5,-690 881.5,-690 881.5,-690 928.5,-690 928.5,-690 934.5,-690 940.5,-696 940.5,-702 940.5,-702 940.5,-722 940.5,-722 940.5,-728 934.5,-734 928.5,-734"/>
<text text-anchor="middle" x="905" y="-715" font-family="Helvetica,sans-Serif" font-size="10.00">TMP117</text>
<text text-anchor="middle" x="905" y="-704" font-family="Helvetica,sans-Serif" font-size="10.00">(I²C 0x48)</text>
</g>
<!-- drv_tmp117 -->
<g id="node8" class="node">
<title>drv_tmp117</title>
<path fill="#a5c8ff" stroke="black" d="M1021,-588C1021,-588 929,-588 929,-588 923,-588 917,-582 917,-576 917,-576 917,-564 917,-564 917,-558 923,-552 929,-552 929,-552 1021,-552 1021,-552 1027,-552 1033,-558 1033,-564 1033,-564 1033,-576 1033,-576 1033,-582 1027,-588 1021,-588"/>
<text text-anchor="middle" x="975" y="-567.5" font-family="Helvetica,sans-Serif" font-size="10.00">thermal/tmp117.py</text>
</g>
<!-- hw_tmp117&#45;&gt;drv_tmp117 -->
<g id="edge1" class="edge">
<title>hw_tmp117&#45;&gt;drv_tmp117</title>
<path fill="none" stroke="#555555" d="M915.63,-689.74C928.03,-664.94 948.53,-623.94 961.9,-597.2"/>
<polygon fill="#555555" stroke="#555555" points="965.13,-598.56 966.48,-588.05 958.87,-595.43 965.13,-598.56"/>
<text text-anchor="middle" x="938.5" y="-656.1" font-family="Helvetica,sans-Serif" font-size="8.00">I²C</text>
</g>
<!-- hw_fan -->
<g id="node2" class="node">
<title>hw_fan</title>
<path fill="#ffd6a5" stroke="black" d="M698,-739.5C698,-739.5 496,-739.5 496,-739.5 490,-739.5 484,-733.5 484,-727.5 484,-727.5 484,-696.5 484,-696.5 484,-690.5 490,-684.5 496,-684.5 496,-684.5 698,-684.5 698,-684.5 704,-684.5 710,-690.5 710,-696.5 710,-696.5 710,-727.5 710,-727.5 710,-733.5 704,-739.5 698,-739.5"/>
<text text-anchor="middle" x="597" y="-720.5" font-family="Helvetica,sans-Serif" font-size="10.00">NF&#45;A6x25 PWM Fan</text>
<text text-anchor="middle" x="597" y="-709.5" font-family="Helvetica,sans-Serif" font-size="10.00">PWM ← GPIO13 (kernel HW PWM, 25 kHz)</text>
<text text-anchor="middle" x="597" y="-698.5" font-family="Helvetica,sans-Serif" font-size="10.00">TACH → GPIO6 (2 ppr)</text>
</g>
<!-- drv_fan -->
<g id="node9" class="node">
<title>drv_fan</title>
<path fill="#a5c8ff" stroke="black" d="M698,-597.5C698,-597.5 618,-597.5 618,-597.5 612,-597.5 606,-591.5 606,-585.5 606,-585.5 606,-554.5 606,-554.5 606,-548.5 612,-542.5 618,-542.5 618,-542.5 698,-542.5 698,-542.5 704,-542.5 710,-548.5 710,-554.5 710,-554.5 710,-585.5 710,-585.5 710,-591.5 704,-597.5 698,-597.5"/>
<text text-anchor="middle" x="658" y="-578.5" font-family="Helvetica,sans-Serif" font-size="10.00">thermal/fan.py</text>
<text text-anchor="middle" x="658" y="-567.5" font-family="Helvetica,sans-Serif" font-size="10.00">(sysfs HW PWM</text>
<text text-anchor="middle" x="658" y="-556.5" font-family="Helvetica,sans-Serif" font-size="10.00">+ lgpio fallback)</text>
</g>
<!-- hw_fan&#45;&gt;drv_fan -->
<g id="edge2" class="edge">
<title>hw_fan&#45;&gt;drv_fan</title>
<path fill="none" stroke="#555555" d="M608.62,-684.34C618.2,-662.35 631.88,-630.94 642.41,-606.77"/>
<polygon fill="#555555" stroke="#555555" points="645.64,-608.13 646.43,-597.56 639.22,-605.33 645.64,-608.13"/>
<text text-anchor="middle" x="632" y="-656.1" font-family="Helvetica,sans-Serif" font-size="8.00">PWM</text>
</g>
<!-- drv_tach -->
<g id="node10" class="node">
<title>drv_tach</title>
<path fill="#a5c8ff" stroke="black" d="M564.5,-592C564.5,-592 467.5,-592 467.5,-592 461.5,-592 455.5,-586 455.5,-580 455.5,-580 455.5,-560 455.5,-560 455.5,-554 461.5,-548 467.5,-548 467.5,-548 564.5,-548 564.5,-548 570.5,-548 576.5,-554 576.5,-560 576.5,-560 576.5,-580 576.5,-580 576.5,-586 570.5,-592 564.5,-592"/>
<text text-anchor="middle" x="516" y="-573" font-family="Helvetica,sans-Serif" font-size="10.00">thermal/fan_tach.py</text>
<text text-anchor="middle" x="516" y="-562" font-family="Helvetica,sans-Serif" font-size="10.00">(lgpio edge cb)</text>
</g>
<!-- hw_fan&#45;&gt;drv_tach -->
<g id="edge3" class="edge">
<title>hw_fan&#45;&gt;drv_tach</title>
<path fill="none" stroke="#555555" d="M581.57,-684.34C567.82,-660.56 547.7,-625.78 533.38,-601.03"/>
<polygon fill="#555555" stroke="#555555" points="536.23,-598.98 528.2,-592.08 530.18,-602.49 536.23,-598.98"/>
<text text-anchor="middle" x="577.5" y="-656.1" font-family="Helvetica,sans-Serif" font-size="8.00">tach</text>
</g>
<!-- hw_servo -->
<g id="node3" class="node">
<title>hw_servo</title>
<path fill="#ffd6a5" stroke="black" d="M280,-734C280,-734 204,-734 204,-734 198,-734 192,-728 192,-722 192,-722 192,-702 192,-702 192,-696 198,-690 204,-690 204,-690 280,-690 280,-690 286,-690 292,-696 292,-702 292,-702 292,-722 292,-722 292,-728 286,-734 280,-734"/>
<text text-anchor="middle" x="242" y="-715" font-family="Helvetica,sans-Serif" font-size="10.00">DS3218 Servo</text>
<text text-anchor="middle" x="242" y="-704" font-family="Helvetica,sans-Serif" font-size="10.00">(PCA9685 ch15)</text>
</g>
<!-- drv_servo -->
<g id="node12" class="node">
<title>drv_servo</title>
<path fill="#a5c8ff" stroke="black" d="M278.5,-588C278.5,-588 149.5,-588 149.5,-588 143.5,-588 137.5,-582 137.5,-576 137.5,-576 137.5,-564 137.5,-564 137.5,-558 143.5,-552 149.5,-552 149.5,-552 278.5,-552 278.5,-552 284.5,-552 290.5,-558 290.5,-564 290.5,-564 290.5,-576 290.5,-576 290.5,-582 284.5,-588 278.5,-588"/>
<text text-anchor="middle" x="214" y="-567.5" font-family="Helvetica,sans-Serif" font-size="10.00">motion/servo_controller.py</text>
</g>
<!-- hw_servo&#45;&gt;drv_servo -->
<g id="edge4" class="edge">
<title>hw_servo&#45;&gt;drv_servo</title>
<path fill="none" stroke="#555555" d="M237.75,-689.74C232.83,-665.16 224.73,-624.66 219.38,-597.91"/>
<polygon fill="#555555" stroke="#555555" points="222.8,-597.17 217.41,-588.05 215.94,-598.54 222.8,-597.17"/>
<text text-anchor="middle" x="250" y="-656.1" font-family="Helvetica,sans-Serif" font-size="8.00">I²C/PWM</text>
</g>
<!-- hw_cam -->
<g id="node4" class="node">
<title>hw_cam</title>
<path fill="#ffd6a5" stroke="black" d="M442.5,-734C442.5,-734 333.5,-734 333.5,-734 327.5,-734 321.5,-728 321.5,-722 321.5,-722 321.5,-702 321.5,-702 321.5,-696 327.5,-690 333.5,-690 333.5,-690 442.5,-690 442.5,-690 448.5,-690 454.5,-696 454.5,-702 454.5,-702 454.5,-722 454.5,-722 454.5,-728 448.5,-734 442.5,-734"/>
<text text-anchor="middle" x="388" y="-715" font-family="Helvetica,sans-Serif" font-size="10.00">Pi Cam Module 3 Wide</text>
<text text-anchor="middle" x="388" y="-704" font-family="Helvetica,sans-Serif" font-size="10.00">(CSI&#45;0)</text>
</g>
<!-- drv_cam -->
<g id="node13" class="node">
<title>drv_cam</title>
<path fill="#a5c8ff" stroke="black" d="M414.5,-592C414.5,-592 331.5,-592 331.5,-592 325.5,-592 319.5,-586 319.5,-580 319.5,-580 319.5,-560 319.5,-560 319.5,-554 325.5,-548 331.5,-548 331.5,-548 414.5,-548 414.5,-548 420.5,-548 426.5,-554 426.5,-560 426.5,-560 426.5,-580 426.5,-580 426.5,-586 420.5,-592 414.5,-592"/>
<text text-anchor="middle" x="373" y="-573" font-family="Helvetica,sans-Serif" font-size="10.00">vision/camera.py</text>
<text text-anchor="middle" x="373" y="-562" font-family="Helvetica,sans-Serif" font-size="10.00">(picamera2)</text>
</g>
<!-- hw_cam&#45;&gt;drv_cam -->
<g id="edge5" class="edge">
<title>hw_cam&#45;&gt;drv_cam</title>
<path fill="none" stroke="#555555" d="M385.72,-689.74C383.22,-666.37 379.17,-628.62 376.32,-601.97"/>
<polygon fill="#555555" stroke="#555555" points="379.8,-601.57 375.25,-592 372.84,-602.32 379.8,-601.57"/>
<text text-anchor="middle" x="388.5" y="-656.1" font-family="Helvetica,sans-Serif" font-size="8.00">CSI</text>
</g>
<!-- hw_mic -->
<g id="node5" class="node">
<title>hw_mic</title>
<path fill="#ffd6a5" stroke="black" d="M150.5,-730C150.5,-730 71.5,-730 71.5,-730 65.5,-730 59.5,-724 59.5,-718 59.5,-718 59.5,-706 59.5,-706 59.5,-700 65.5,-694 71.5,-694 71.5,-694 150.5,-694 150.5,-694 156.5,-694 162.5,-700 162.5,-706 162.5,-706 162.5,-718 162.5,-718 162.5,-724 156.5,-730 150.5,-730"/>
<text text-anchor="middle" x="111" y="-709.5" font-family="Helvetica,sans-Serif" font-size="10.00">USB Microphone</text>
</g>
<!-- drv_ain -->
<g id="node15" class="node">
<title>drv_ain</title>
<path fill="#a5c8ff" stroke="black" d="M96,-588C96,-588 28,-588 28,-588 22,-588 16,-582 16,-576 16,-576 16,-564 16,-564 16,-558 22,-552 28,-552 28,-552 96,-552 96,-552 102,-552 108,-558 108,-564 108,-564 108,-576 108,-576 108,-582 102,-588 96,-588"/>
<text text-anchor="middle" x="62" y="-567.5" font-family="Helvetica,sans-Serif" font-size="10.00">audio/input.py</text>
</g>
<!-- hw_mic&#45;&gt;drv_ain -->
<g id="edge6" class="edge">
<title>hw_mic&#45;&gt;drv_ain</title>
<path fill="none" stroke="#555555" d="M104.99,-693.83C96.62,-669.9 81.35,-626.28 71.44,-597.98"/>
<polygon fill="#555555" stroke="#555555" points="74.66,-596.59 68.06,-588.31 68.06,-598.9 74.66,-596.59"/>
<text text-anchor="middle" x="102.5" y="-656.1" font-family="Helvetica,sans-Serif" font-size="8.00">USB</text>
</g>
<!-- hw_spk -->
<g id="node6" class="node">
<title>hw_spk</title>
<path fill="#ffd6a5" stroke="black" d="M1082.5,-734C1082.5,-734 981.5,-734 981.5,-734 975.5,-734 969.5,-728 969.5,-722 969.5,-722 969.5,-702 969.5,-702 969.5,-696 975.5,-690 981.5,-690 981.5,-690 1082.5,-690 1082.5,-690 1088.5,-690 1094.5,-696 1094.5,-702 1094.5,-702 1094.5,-722 1094.5,-722 1094.5,-728 1088.5,-734 1082.5,-734"/>
<text text-anchor="middle" x="1032" y="-715" font-family="Helvetica,sans-Serif" font-size="10.00">Sabrent USB Audio →</text>
<text text-anchor="middle" x="1032" y="-704" font-family="Helvetica,sans-Serif" font-size="10.00">8 Ω stereo speakers</text>
</g>
<!-- drv_aout -->
<g id="node14" class="node">
<title>drv_aout</title>
<path fill="#a5c8ff" stroke="black" d="M1149.5,-354.5C1149.5,-354.5 1074.5,-354.5 1074.5,-354.5 1068.5,-354.5 1062.5,-348.5 1062.5,-342.5 1062.5,-342.5 1062.5,-330.5 1062.5,-330.5 1062.5,-324.5 1068.5,-318.5 1074.5,-318.5 1074.5,-318.5 1149.5,-318.5 1149.5,-318.5 1155.5,-318.5 1161.5,-324.5 1161.5,-330.5 1161.5,-330.5 1161.5,-342.5 1161.5,-342.5 1161.5,-348.5 1155.5,-354.5 1149.5,-354.5"/>
<text text-anchor="middle" x="1112" y="-334" font-family="Helvetica,sans-Serif" font-size="10.00">audio/output.py</text>
</g>
<!-- hw_spk&#45;&gt;drv_aout -->
<g id="edge7" class="edge">
<title>hw_spk&#45;&gt;drv_aout</title>
<path fill="none" stroke="#555555" d="M1094.9,-709.42C1142.15,-704.51 1204,-689.38 1236,-645.5 1303.96,-552.31 1189.93,-416.64 1136.89,-361.82"/>
<polygon fill="#555555" stroke="#555555" points="1139.33,-359.32 1129.83,-354.64 1134.34,-364.22 1139.33,-359.32"/>
<text text-anchor="middle" x="1253.5" y="-514.1" font-family="Helvetica,sans-Serif" font-size="8.00">USB</text>
</g>
<!-- hw_hailo -->
<g id="node7" class="node">
<title>hw_hailo</title>
<path fill="#ffd6a5" stroke="black" d="M828.5,-734C828.5,-734 751.5,-734 751.5,-734 745.5,-734 739.5,-728 739.5,-722 739.5,-722 739.5,-702 739.5,-702 739.5,-696 745.5,-690 751.5,-690 751.5,-690 828.5,-690 828.5,-690 834.5,-690 840.5,-696 840.5,-702 840.5,-702 840.5,-722 840.5,-722 840.5,-728 834.5,-734 828.5,-734"/>
<text text-anchor="middle" x="790" y="-715" font-family="Helvetica,sans-Serif" font-size="10.00">Hailo&#45;8 AI HAT+</text>
<text text-anchor="middle" x="790" y="-704" font-family="Helvetica,sans-Serif" font-size="10.00">(26 TOPS, PCIe)</text>
</g>
<!-- drv_hailo -->
<g id="node18" class="node">
<title>drv_hailo</title>
<path fill="#a5c8ff" stroke="black" stroke-dasharray="5,2" d="M876.5,-588C876.5,-588 751.5,-588 751.5,-588 745.5,-588 739.5,-582 739.5,-576 739.5,-576 739.5,-564 739.5,-564 739.5,-558 745.5,-552 751.5,-552 751.5,-552 876.5,-552 876.5,-552 882.5,-552 888.5,-558 888.5,-564 888.5,-564 888.5,-576 888.5,-576 888.5,-582 882.5,-588 876.5,-588"/>
<text text-anchor="middle" x="814" y="-567.5" font-family="Helvetica,sans-Serif" font-size="10.00">perception/hailo_probe.py</text>
</g>
<!-- hw_hailo&#45;&gt;drv_hailo -->
<g id="edge8" class="edge">
<title>hw_hailo&#45;&gt;drv_hailo</title>
<path fill="none" stroke="#555555" d="M793.65,-689.74C797.86,-665.16 804.8,-624.66 809.39,-597.91"/>
<polygon fill="#555555" stroke="#555555" points="812.84,-598.5 811.08,-588.05 805.94,-597.31 812.84,-598.5"/>
<text text-anchor="middle" x="808" y="-656.1" font-family="Helvetica,sans-Serif" font-size="8.00">PCIe</text>
</g>
<!-- drv_thmgr -->
<g id="node11" class="node">
<title>drv_thmgr</title>
<path fill="#a5c8ff" stroke="black" d="M950.5,-485.5C950.5,-485.5 809.5,-485.5 809.5,-485.5 803.5,-485.5 797.5,-479.5 797.5,-473.5 797.5,-473.5 797.5,-461.5 797.5,-461.5 797.5,-455.5 803.5,-449.5 809.5,-449.5 809.5,-449.5 950.5,-449.5 950.5,-449.5 956.5,-449.5 962.5,-455.5 962.5,-461.5 962.5,-461.5 962.5,-473.5 962.5,-473.5 962.5,-479.5 956.5,-485.5 950.5,-485.5"/>
<text text-anchor="middle" x="880" y="-465" font-family="Helvetica,sans-Serif" font-size="10.00">thermal/thermal_manager.py</text>
</g>
<!-- drv_tmp117&#45;&gt;drv_thmgr -->
<g id="edge9" class="edge">
<title>drv_tmp117&#45;&gt;drv_thmgr</title>
<path fill="none" stroke="#555555" d="M958.88,-551.95C943.6,-535.78 920.46,-511.31 903.2,-493.04"/>
<polygon fill="#555555" stroke="#555555" points="905.61,-490.49 896.19,-485.63 900.52,-495.3 905.61,-490.49"/>
</g>
<!-- drv_fan&#45;&gt;drv_thmgr -->
<g id="edge10" class="edge">
<title>drv_fan&#45;&gt;drv_thmgr</title>
<path fill="none" stroke="#555555" d="M710.05,-545.44C747.22,-528.61 796.83,-506.15 832.84,-489.85"/>
<polygon fill="#555555" stroke="#555555" points="834.49,-492.94 842.16,-485.63 831.6,-486.57 834.49,-492.94"/>
</g>
<!-- drv_tach&#45;&gt;drv_thmgr -->
<g id="edge11" class="edge">
<title>drv_tach&#45;&gt;drv_thmgr</title>
<path fill="none" stroke="#555555" d="M574.76,-547.97C580.56,-546.05 586.38,-544.2 592,-542.5 660.44,-521.82 739.11,-501.86 796.92,-487.89"/>
<polygon fill="#555555" stroke="#555555" points="797.83,-491.27 806.74,-485.53 796.2,-484.46 797.83,-491.27"/>
</g>
<!-- svc_thermal -->
<g id="node23" class="node">
<title>svc_thermal</title>
<path fill="#f4a3a3" stroke="black" d="M1782,-235C1782,-235 1696,-235 1696,-235 1690,-235 1684,-229 1684,-223 1684,-223 1684,-159 1684,-159 1684,-153 1690,-147 1696,-147 1696,-147 1782,-147 1782,-147 1788,-147 1794,-153 1794,-159 1794,-159 1794,-223 1794,-223 1794,-229 1788,-235 1782,-235"/>
<text text-anchor="middle" x="1739" y="-216" font-family="Helvetica,sans-Serif" font-size="10.00">ThermalService</text>
<text text-anchor="middle" x="1739" y="-205" font-family="Helvetica,sans-Serif" font-size="10.00">— thermal.temp</text>
<text text-anchor="middle" x="1739" y="-194" font-family="Helvetica,sans-Serif" font-size="10.00">— thermal.fan</text>
<text text-anchor="middle" x="1739" y="-183" font-family="Helvetica,sans-Serif" font-size="10.00">— thermal.rpm</text>
<text text-anchor="middle" x="1739" y="-172" font-family="Helvetica,sans-Serif" font-size="10.00">— thermal.critical</text>
<text text-anchor="middle" x="1739" y="-161" font-family="Helvetica,sans-Serif" font-size="10.00">— thermal.error</text>
</g>
<!-- drv_thmgr&#45;&gt;svc_thermal -->
<g id="edge15" class="edge">
<title>drv_thmgr&#45;&gt;svc_thermal</title>
<path fill="none" stroke="#555555" d="M891.42,-449.43C915.57,-415.01 975.57,-337.9 1048,-306.5 1098.03,-284.81 1238.73,-297.86 1293,-292.5 1350.17,-286.86 1363.76,-279.43 1421,-274.5 1448.47,-272.13 1643.88,-277.85 1669,-266.5 1681.24,-260.97 1692.37,-252.19 1701.96,-242.58"/>
<polygon fill="#555555" stroke="#555555" points="1704.69,-244.78 1709,-235.1 1699.6,-239.98 1704.69,-244.78"/>
</g>
<!-- svc_motion -->
<g id="node25" class="node">
<title>svc_motion</title>
<path fill="#a8d88d" stroke="black" d="M693,-218.5C693,-218.5 549,-218.5 549,-218.5 543,-218.5 537,-212.5 537,-206.5 537,-206.5 537,-175.5 537,-175.5 537,-169.5 543,-163.5 549,-163.5 549,-163.5 693,-163.5 693,-163.5 699,-163.5 705,-169.5 705,-175.5 705,-175.5 705,-206.5 705,-206.5 705,-212.5 699,-218.5 693,-218.5"/>
<text text-anchor="middle" x="621" y="-199.5" font-family="Helvetica,sans-Serif" font-size="10.00">MotionService</text>
<text text-anchor="middle" x="621" y="-188.5" font-family="Helvetica,sans-Serif" font-size="10.00">← motion.pan_to / relax / stop</text>
<text text-anchor="middle" x="621" y="-177.5" font-family="Helvetica,sans-Serif" font-size="10.00">→ motion.position / moved</text>
</g>
<!-- drv_servo&#45;&gt;svc_motion -->
<g id="edge16" class="edge">
<title>drv_servo&#45;&gt;svc_motion</title>
<path fill="none" stroke="#555555" d="M215.95,-551.79C222.92,-499.36 251.73,-341.1 351,-274.5 366.89,-263.84 505.02,-273.03 523,-266.5 546.87,-257.84 569.69,-241.17 587.29,-225.79"/>
<polygon fill="#555555" stroke="#555555" points="589.91,-228.14 595,-218.85 585.23,-222.94 589.91,-228.14"/>
</g>
<!-- svc_vision -->
<g id="node26" class="node">
<title>svc_vision</title>
<path fill="#a8d88d" stroke="black" d="M850,-224C850,-224 746,-224 746,-224 740,-224 734,-218 734,-212 734,-212 734,-170 734,-170 734,-164 740,-158 746,-158 746,-158 850,-158 850,-158 856,-158 862,-164 862,-170 862,-170 862,-212 862,-212 862,-218 856,-224 850,-224"/>
<text text-anchor="middle" x="798" y="-205" font-family="Helvetica,sans-Serif" font-size="10.00">VisionService</text>
<text text-anchor="middle" x="798" y="-194" font-family="Helvetica,sans-Serif" font-size="10.00">→ vision.frame_ready</text>
<text text-anchor="middle" x="798" y="-183" font-family="Helvetica,sans-Serif" font-size="10.00">← vision.capture_still</text>
<text text-anchor="middle" x="798" y="-172" font-family="Helvetica,sans-Serif" font-size="10.00">+ latest_frame()</text>
</g>
<!-- drv_cam&#45;&gt;svc_vision -->
<g id="edge17" class="edge">
<title>drv_cam&#45;&gt;svc_vision</title>
<path fill="none" stroke="#555555" d="M374.62,-547.59C377.63,-521.07 386.12,-475.7 410,-445.5 508.69,-320.71 592.68,-361.9 720,-266.5 733.9,-256.09 747.97,-243.44 760.25,-231.54"/>
<polygon fill="#555555" stroke="#555555" points="762.98,-233.77 767.66,-224.26 758.07,-228.78 762.98,-233.77"/>
</g>
<!-- svc_av -->
<g id="node28" class="node">
<title>svc_av</title>
<path fill="#a8d88d" stroke="black" d="M1130.5,-218.5C1130.5,-218.5 903.5,-218.5 903.5,-218.5 897.5,-218.5 891.5,-212.5 891.5,-206.5 891.5,-206.5 891.5,-175.5 891.5,-175.5 891.5,-169.5 897.5,-163.5 903.5,-163.5 903.5,-163.5 1130.5,-163.5 1130.5,-163.5 1136.5,-163.5 1142.5,-169.5 1142.5,-175.5 1142.5,-175.5 1142.5,-206.5 1142.5,-206.5 1142.5,-212.5 1136.5,-218.5 1130.5,-218.5"/>
<text text-anchor="middle" x="1017" y="-199.5" font-family="Helvetica,sans-Serif" font-size="10.00">AVService</text>
<text text-anchor="middle" x="1017" y="-188.5" font-family="Helvetica,sans-Serif" font-size="10.00">← av.say / beep / utterance / announce_version</text>
<text text-anchor="middle" x="1017" y="-177.5" font-family="Helvetica,sans-Serif" font-size="10.00">→ av.spoke / version_announced</text>
</g>
<!-- drv_aout&#45;&gt;svc_av -->
<g id="edge19" class="edge">
<title>drv_aout&#45;&gt;svc_av</title>
<path fill="none" stroke="#555555" d="M1100.73,-318.48C1085.9,-296.07 1059.46,-256.14 1040.25,-227.12"/>
<polygon fill="#555555" stroke="#555555" points="1042.98,-224.91 1034.54,-218.5 1037.15,-228.77 1042.98,-224.91"/>
</g>
<!-- svc_audio -->
<g id="node27" class="node">
<title>svc_audio</title>
<path fill="#a8d88d" stroke="black" d="M496,-218.5C496,-218.5 394,-218.5 394,-218.5 388,-218.5 382,-212.5 382,-206.5 382,-206.5 382,-175.5 382,-175.5 382,-169.5 388,-163.5 394,-163.5 394,-163.5 496,-163.5 496,-163.5 502,-163.5 508,-169.5 508,-175.5 508,-175.5 508,-206.5 508,-206.5 508,-212.5 502,-218.5 496,-218.5"/>
<text text-anchor="middle" x="445" y="-199.5" font-family="Helvetica,sans-Serif" font-size="10.00">AudioCaptureService</text>
<text text-anchor="middle" x="445" y="-188.5" font-family="Helvetica,sans-Serif" font-size="10.00">→ audio.level / chunk</text>
<text text-anchor="middle" x="445" y="-177.5" font-family="Helvetica,sans-Serif" font-size="10.00">+ latest_chunk()</text>
</g>
<!-- drv_ain&#45;&gt;svc_audio -->
<g id="edge18" class="edge">
<title>drv_ain&#45;&gt;svc_audio</title>
<path fill="none" stroke="#555555" d="M67.72,-551.74C85.09,-501.8 141.97,-355.54 237,-274.5 275.53,-241.64 328.75,-220.86 371.71,-208.37"/>
<polygon fill="#555555" stroke="#555555" points="372.87,-211.68 381.55,-205.6 370.97,-204.94 372.87,-211.68"/>
</g>
<!-- drv_tts -->
<g id="node16" class="node">
<title>drv_tts</title>
<path fill="#a5c8ff" stroke="black" d="M1136.5,-489.5C1136.5,-489.5 1079.5,-489.5 1079.5,-489.5 1073.5,-489.5 1067.5,-483.5 1067.5,-477.5 1067.5,-477.5 1067.5,-457.5 1067.5,-457.5 1067.5,-451.5 1073.5,-445.5 1079.5,-445.5 1079.5,-445.5 1136.5,-445.5 1136.5,-445.5 1142.5,-445.5 1148.5,-451.5 1148.5,-457.5 1148.5,-457.5 1148.5,-477.5 1148.5,-477.5 1148.5,-483.5 1142.5,-489.5 1136.5,-489.5"/>
<text text-anchor="middle" x="1108" y="-470.5" font-family="Helvetica,sans-Serif" font-size="10.00">audio/tts.py</text>
<text text-anchor="middle" x="1108" y="-459.5" font-family="Helvetica,sans-Serif" font-size="10.00">(espeak&#45;ng)</text>
</g>
<!-- drv_tts&#45;&gt;drv_aout -->
<g id="edge12" class="edge">
<title>drv_tts&#45;&gt;drv_aout</title>
<path fill="none" stroke="#555555" stroke-dasharray="5,2" d="M1106.81,-445.07C1106.48,-438.19 1106.16,-430.52 1106,-423.5 1105.54,-403.86 1107.13,-381.75 1108.79,-364.87"/>
<polygon fill="#555555" stroke="#555555" points="1112.3,-364.92 1109.87,-354.61 1105.34,-364.19 1112.3,-364.92"/>
<text text-anchor="middle" x="1127.5" y="-417.1" font-family="Helvetica,sans-Serif" font-size="8.00">renders to</text>
</g>
<!-- drv_tts&#45;&gt;svc_av -->
<g id="edge20" class="edge">
<title>drv_tts&#45;&gt;svc_av</title>
<path fill="none" stroke="#555555" d="M1080.04,-445.46C1068.24,-435.06 1055.52,-421.51 1048,-406.5 1019.29,-349.2 1015.06,-273.18 1015.45,-228.73"/>
<polygon fill="#555555" stroke="#555555" points="1018.95,-228.73 1015.62,-218.67 1011.95,-228.61 1018.95,-228.73"/>
</g>
<!-- drv_van -->
<g id="node17" class="node">
<title>drv_van</title>
<path fill="#a5c8ff" stroke="black" d="M1209.5,-588C1209.5,-588 1074.5,-588 1074.5,-588 1068.5,-588 1062.5,-582 1062.5,-576 1062.5,-576 1062.5,-564 1062.5,-564 1062.5,-558 1068.5,-552 1074.5,-552 1074.5,-552 1209.5,-552 1209.5,-552 1215.5,-552 1221.5,-558 1221.5,-564 1221.5,-564 1221.5,-576 1221.5,-576 1221.5,-582 1215.5,-588 1209.5,-588"/>
<text text-anchor="middle" x="1142" y="-567.5" font-family="Helvetica,sans-Serif" font-size="10.00">audio/version_announcer.py</text>
</g>
<!-- drv_van&#45;&gt;drv_tts -->
<g id="edge13" class="edge">
<title>drv_van&#45;&gt;drv_tts</title>
<path fill="none" stroke="#555555" d="M1136.23,-551.95C1131.39,-537.63 1124.34,-516.79 1118.49,-499.51"/>
<polygon fill="#555555" stroke="#555555" points="1121.74,-498.19 1115.22,-489.83 1115.11,-500.43 1121.74,-498.19"/>
</g>
<!-- core_ver -->
<g id="node22" class="node">
<title>core_ver</title>
<path fill="#bdb1f5" stroke="black" d="M926.5,-60C926.5,-60 843.5,-60 843.5,-60 837.5,-60 831.5,-54 831.5,-48 831.5,-48 831.5,-28 831.5,-28 831.5,-22 837.5,-16 843.5,-16 843.5,-16 926.5,-16 926.5,-16 932.5,-16 938.5,-22 938.5,-28 938.5,-28 938.5,-48 938.5,-48 938.5,-54 932.5,-60 926.5,-60"/>
<text text-anchor="middle" x="885" y="-41" font-family="Helvetica,sans-Serif" font-size="10.00">version.py</text>
<text text-anchor="middle" x="885" y="-30" font-family="Helvetica,sans-Serif" font-size="10.00">(reads /VERSION)</text>
</g>
<!-- drv_van&#45;&gt;core_ver -->
<g id="edge14" class="edge">
<title>drv_van&#45;&gt;core_ver</title>
<path fill="none" stroke="#555555" stroke-dasharray="5,2" d="M1084.27,-551.97C1072.32,-548.65 1059.79,-545.34 1048,-542.5 730.88,-466.21 535.38,-546.45 368,-266.5 340.75,-220.92 334.5,-188.22 368,-147 424.46,-77.53 695.57,-51.2 821.03,-42.62"/>
<polygon fill="#555555" stroke="#555555" points="821.52,-46.1 831.26,-41.94 821.05,-39.11 821.52,-46.1"/>
</g>
<!-- drv_van&#45;&gt;svc_av -->
<g id="edge21" class="edge">
<title>drv_van&#45;&gt;svc_av</title>
<path fill="none" stroke="#555555" d="M1150.62,-551.88C1171.31,-508.24 1218.94,-390.35 1176,-306.5 1157.28,-269.95 1120.86,-242.41 1087.6,-223.51"/>
<polygon fill="#555555" stroke="#555555" points="1089.22,-220.41 1078.77,-218.65 1085.84,-226.54 1089.22,-220.41"/>
</g>
<!-- core_bus -->
<g id="node19" class="node">
<title>core_bus</title>
<path fill="#bdb1f5" stroke="black" d="M1078,-60C1078,-60 980,-60 980,-60 974,-60 968,-54 968,-48 968,-48 968,-28 968,-28 968,-22 974,-16 980,-16 980,-16 1078,-16 1078,-16 1084,-16 1090,-22 1090,-28 1090,-28 1090,-48 1090,-48 1090,-54 1084,-60 1078,-60"/>
<text text-anchor="middle" x="1029" y="-41" font-family="Helvetica,sans-Serif" font-size="10.00">core MessageBus</text>
<text text-anchor="middle" x="1029" y="-30" font-family="Helvetica,sans-Serif" font-size="10.00">(in&#45;process pub/sub)</text>
</g>
<!-- core_bus&#45;&gt;svc_motion -->
<g id="edge26" class="edge">
<title>core_bus&#45;&gt;svc_motion</title>
<path fill="none" stroke="#226622" d="M1012.88,-60.17C999.01,-76.55 977.43,-98.06 953,-108 907.07,-126.69 777.13,-100.58 730,-116 703.82,-124.56 678.16,-141.44 658.31,-156.92"/>
<polygon fill="#226622" stroke="#226622" points="656.07,-154.23 650.46,-163.21 660.45,-159.69 656.07,-154.23"/>
</g>
<!-- core_bus&#45;&gt;svc_vision -->
<g id="edge28" class="edge">
<title>core_bus&#45;&gt;svc_vision</title>
<path fill="none" stroke="#226622" d="M1011.11,-60.16C996.89,-75.65 975.67,-95.98 953,-108 939.67,-115.07 933.95,-110.24 920,-116 896.66,-125.64 872.56,-139.33 852.01,-152.33"/>
<polygon fill="#226622" stroke="#226622" points="849.96,-149.49 843.44,-157.84 853.74,-155.38 849.96,-149.49"/>
</g>
<!-- core_bus&#45;&gt;svc_audio -->
<g id="edge30" class="edge">
<title>core_bus&#45;&gt;svc_audio</title>
<path fill="none" stroke="#226622" d="M1012.89,-60.2C999.03,-76.59 977.45,-98.1 953,-108 927.24,-118.43 730.65,-113.19 703,-116 622.24,-124.21 599.61,-120.14 523,-147 514.01,-150.15 504.83,-154.28 496.07,-158.72"/>
<polygon fill="#226622" stroke="#226622" points="494.34,-155.68 487.13,-163.45 497.6,-161.87 494.34,-155.68"/>
</g>
<!-- core_bus&#45;&gt;svc_av -->
<g id="edge32" class="edge">
<title>core_bus&#45;&gt;svc_av</title>
<path fill="none" stroke="#226622" d="M1010.1,-60.08C995.68,-75.13 974.67,-94.92 953,-108 944.09,-113.38 936.97,-107.48 931,-116 920.08,-131.6 929.67,-145.97 945.84,-157.81"/>
<polygon fill="#226622" stroke="#226622" points="943.98,-160.78 954.24,-163.42 947.87,-154.96 943.98,-160.78"/>
</g>
<!-- svc_telemetry -->
<g id="node29" class="node">
<title>svc_telemetry</title>
<path fill="#a8d88d" stroke="black" d="M1642.5,-224C1642.5,-224 1437.5,-224 1437.5,-224 1431.5,-224 1425.5,-218 1425.5,-212 1425.5,-212 1425.5,-170 1425.5,-170 1425.5,-164 1431.5,-158 1437.5,-158 1437.5,-158 1642.5,-158 1642.5,-158 1648.5,-158 1654.5,-164 1654.5,-170 1654.5,-170 1654.5,-212 1654.5,-212 1654.5,-218 1648.5,-224 1642.5,-224"/>
<text text-anchor="middle" x="1540" y="-205" font-family="Helvetica,sans-Serif" font-size="10.00">TelemetryService</text>
<text text-anchor="middle" x="1540" y="-194" font-family="Helvetica,sans-Serif" font-size="10.00">← thermal.* / motion.position / audio.level</text>
<text text-anchor="middle" x="1540" y="-183" font-family="Helvetica,sans-Serif" font-size="10.00">→ telemetry.flush</text>
<text text-anchor="middle" x="1540" y="-172" font-family="Helvetica,sans-Serif" font-size="10.00">SQLite ring buffer</text>
</g>
<!-- core_bus&#45;&gt;svc_telemetry -->
<g id="edge34" class="edge">
<title>core_bus&#45;&gt;svc_telemetry</title>
<path fill="none" stroke="#226622" d="M1045.95,-60.24C1059.97,-76.2 1081.37,-97.11 1105,-108 1120.56,-115.17 1394.29,-143.19 1411,-147 1421.03,-149.29 1431.38,-152.04 1441.66,-155.04"/>
<polygon fill="#226622" stroke="#226622" points="1440.89,-158.46 1451.47,-157.98 1442.9,-151.76 1440.89,-158.46"/>
</g>
<!-- svc_ipc -->
<g id="node30" class="node">
<title>svc_ipc</title>
<path fill="#a8d88d" stroke="black" d="M1384,-229.5C1384,-229.5 1184,-229.5 1184,-229.5 1178,-229.5 1172,-223.5 1172,-217.5 1172,-217.5 1172,-164.5 1172,-164.5 1172,-158.5 1178,-152.5 1184,-152.5 1184,-152.5 1384,-152.5 1384,-152.5 1390,-152.5 1396,-158.5 1396,-164.5 1396,-164.5 1396,-217.5 1396,-217.5 1396,-223.5 1390,-229.5 1384,-229.5"/>
<text text-anchor="middle" x="1284" y="-210.5" font-family="Helvetica,sans-Serif" font-size="10.00">IPCBridge (core)</text>
<text text-anchor="middle" x="1284" y="-199.5" font-family="Helvetica,sans-Serif" font-size="10.00">PUB ipc:///tmp/desktop&#45;assistant.pub</text>
<text text-anchor="middle" x="1284" y="-188.5" font-family="Helvetica,sans-Serif" font-size="10.00">REP ipc:///tmp/desktop&#45;assistant.rep</text>
<text text-anchor="middle" x="1284" y="-177.5" font-family="Helvetica,sans-Serif" font-size="10.00">SUB ← thermal.pub (upstream)</text>
<text text-anchor="middle" x="1284" y="-166.5" font-family="Helvetica,sans-Serif" font-size="10.00">cmds: ping / topics / last / publish / status</text>
</g>
<!-- core_bus&#45;&gt;svc_ipc -->
<g id="edge36" class="edge">
<title>core_bus&#45;&gt;svc_ipc</title>
<path fill="none" stroke="#226622" d="M1048.85,-60.2C1063.4,-74.91 1084.18,-94.26 1105,-108 1127.74,-123.01 1153.67,-136.62 1178.61,-148.25"/>
<polygon fill="#226622" stroke="#226622" points="1177.19,-151.45 1187.74,-152.44 1180.11,-145.09 1177.19,-151.45"/>
</g>
<!-- thermal_bus -->
<g id="node20" class="node">
<title>thermal_bus</title>
<path fill="#bdb1f5" stroke="black" d="M1359.5,-60C1359.5,-60 1258.5,-60 1258.5,-60 1252.5,-60 1246.5,-54 1246.5,-48 1246.5,-48 1246.5,-28 1246.5,-28 1246.5,-22 1252.5,-16 1258.5,-16 1258.5,-16 1359.5,-16 1359.5,-16 1365.5,-16 1371.5,-22 1371.5,-28 1371.5,-28 1371.5,-48 1371.5,-48 1371.5,-54 1365.5,-60 1359.5,-60"/>
<text text-anchor="middle" x="1309" y="-41" font-family="Helvetica,sans-Serif" font-size="10.00">thermal MessageBus</text>
<text text-anchor="middle" x="1309" y="-30" font-family="Helvetica,sans-Serif" font-size="10.00">(in&#45;process pub/sub)</text>
</g>
<!-- svc_thermal_ipc -->
<g id="node24" class="node">
<title>svc_thermal_ipc</title>
<path fill="#f4a3a3" stroke="black" d="M2056.5,-218.5C2056.5,-218.5 1835.5,-218.5 1835.5,-218.5 1829.5,-218.5 1823.5,-212.5 1823.5,-206.5 1823.5,-206.5 1823.5,-175.5 1823.5,-175.5 1823.5,-169.5 1829.5,-163.5 1835.5,-163.5 1835.5,-163.5 2056.5,-163.5 2056.5,-163.5 2062.5,-163.5 2068.5,-169.5 2068.5,-175.5 2068.5,-175.5 2068.5,-206.5 2068.5,-206.5 2068.5,-212.5 2062.5,-218.5 2056.5,-218.5"/>
<text text-anchor="middle" x="1946" y="-199.5" font-family="Helvetica,sans-Serif" font-size="10.00">IPCBridge (thermal)</text>
<text text-anchor="middle" x="1946" y="-188.5" font-family="Helvetica,sans-Serif" font-size="10.00">PUB ipc:///tmp/desktop&#45;assistant&#45;thermal.pub</text>
<text text-anchor="middle" x="1946" y="-177.5" font-family="Helvetica,sans-Serif" font-size="10.00">REP ipc:///tmp/desktop&#45;assistant&#45;thermal.rep</text>
</g>
<!-- thermal_bus&#45;&gt;svc_thermal_ipc -->
<g id="edge23" class="edge">
<title>thermal_bus&#45;&gt;svc_thermal_ipc</title>
<path fill="none" stroke="#cc3333" d="M1371.85,-50.46C1467.09,-68.29 1653.37,-105.04 1809,-147 1824.15,-151.08 1840.13,-155.76 1855.62,-160.49"/>
<polygon fill="#cc3333" stroke="#cc3333" points="1854.6,-163.84 1865.19,-163.43 1856.66,-157.15 1854.6,-163.84"/>
</g>
<!-- core_svc -->
<g id="node21" class="node">
<title>core_svc</title>
<path fill="#bdb1f5" stroke="black" d="M1205,-60C1205,-60 1131,-60 1131,-60 1125,-60 1119,-54 1119,-48 1119,-48 1119,-28 1119,-28 1119,-22 1125,-16 1131,-16 1131,-16 1205,-16 1205,-16 1211,-16 1217,-22 1217,-28 1217,-28 1217,-48 1217,-48 1217,-54 1211,-60 1205,-60"/>
<text text-anchor="middle" x="1168" y="-41" font-family="Helvetica,sans-Serif" font-size="10.00">Service base</text>
<text text-anchor="middle" x="1168" y="-30" font-family="Helvetica,sans-Serif" font-size="10.00">(start/tick/stop)</text>
</g>
<!-- svc_thermal&#45;&gt;thermal_bus -->
<g id="edge22" class="edge">
<title>svc_thermal&#45;&gt;thermal_bus</title>
<path fill="none" stroke="#cc3333" d="M1691.36,-146.83C1676.69,-135.39 1659.93,-124.01 1643,-116 1558.27,-75.94 1451.37,-56.03 1381.65,-46.63"/>
<polygon fill="#cc3333" stroke="#cc3333" points="1382.01,-43.15 1371.64,-45.32 1381.1,-50.09 1382.01,-43.15"/>
</g>
<!-- svc_thermal&#45;&gt;core_svc -->
<g id="edge38" class="edge">
<title>svc_thermal&#45;&gt;core_svc</title>
<path fill="none" stroke="#555555" stroke-dasharray="1,5" d="M1683.83,-153.45C1678.93,-151.02 1673.95,-148.83 1669,-147 1585.85,-116.32 1560.24,-124.38 1472,-116 1445.44,-113.48 1256.27,-119.08 1232,-108 1213.61,-99.61 1198.05,-83.21 1186.87,-68.51"/>
<polygon fill="#555555" stroke="#555555" points="1189.51,-66.18 1180.82,-60.12 1183.83,-70.28 1189.51,-66.18"/>
<text text-anchor="middle" x="1601.5" y="-118.6" font-family="Helvetica,sans-Serif" font-size="8.00">extends</text>
</g>
<!-- svc_thermal_ipc&#45;&gt;core_svc -->
<g id="edge39" class="edge">
<title>svc_thermal_ipc&#45;&gt;core_svc</title>
<path fill="none" stroke="#555555" stroke-dasharray="1,5" d="M1867.91,-163.46C1848.79,-157.52 1828.27,-151.62 1809,-147 1768.68,-137.32 1666.28,-119.88 1625,-116 1603.26,-113.96 1251.93,-116.94 1232,-108 1213.56,-99.73 1197.99,-83.33 1186.83,-68.6"/>
<polygon fill="#555555" stroke="#555555" points="1189.46,-66.27 1180.78,-60.2 1183.78,-70.36 1189.46,-66.27"/>
</g>
<!-- svc_thermal_ipc&#45;&gt;svc_ipc -->
<g id="edge24" class="edge">
<title>svc_thermal_ipc&#45;&gt;svc_ipc</title>
<path fill="none" stroke="#aa6600" stroke-width="2" d="M1905.95,-218.62C1879.61,-235.36 1843.7,-255.53 1809,-266.5 1785.55,-273.91 1778.55,-271.16 1754,-272.5 1601.76,-280.78 1557.57,-308.48 1411,-266.5 1387.59,-259.8 1364.08,-247.68 1343.76,-235.09"/>
<polygon fill="#aa6600" stroke="#aa6600" stroke-width="2" points="1345.57,-232.09 1335.25,-229.68 1341.81,-238 1345.57,-232.09"/>
<text text-anchor="middle" x="1722" y="-286.1" font-family="Helvetica,sans-Serif" font-size="8.00">ZMQ PUB→SUB</text>
<text text-anchor="middle" x="1722" y="-277.1" font-family="Helvetica,sans-Serif" font-size="8.00">(cross&#45;process)</text>
</g>
<!-- svc_motion&#45;&gt;core_bus -->
<g id="edge27" class="edge">
<title>svc_motion&#45;&gt;core_bus</title>
<path fill="none" stroke="#226622" d="M676.77,-163.39C690.68,-157.42 705.71,-151.53 720,-147 784.9,-126.44 802.69,-126.17 870,-116 906.64,-110.46 919.11,-123 953,-108 973.4,-98.97 992.02,-82.28 1005.73,-67.57"/>
<polygon fill="#226622" stroke="#226622" points="1008.35,-69.89 1012.43,-60.11 1003.14,-65.21 1008.35,-69.89"/>
</g>
<!-- svc_motion&#45;&gt;core_svc -->
<g id="edge40" class="edge">
<title>svc_motion&#45;&gt;core_svc</title>
<path fill="none" stroke="#555555" stroke-dasharray="1,5" d="M672.72,-163.41C687.62,-156.91 704.13,-150.74 720,-147 764.62,-136.48 1094.53,-151.41 1132,-125 1149.83,-112.43 1158.87,-89.26 1163.42,-70.14"/>
<polygon fill="#555555" stroke="#555555" points="1166.86,-70.8 1165.47,-60.3 1160.01,-69.38 1166.86,-70.8"/>
</g>
<!-- svc_vision&#45;&gt;core_bus -->
<g id="edge29" class="edge">
<title>svc_vision&#45;&gt;core_bus</title>
<path fill="none" stroke="#226622" d="M831.17,-157.8C848.75,-142.64 871.53,-125.77 895,-116 919.02,-106 929.42,-119.02 953,-108 972.89,-98.71 991.24,-82.38 1004.92,-67.94"/>
<polygon fill="#226622" stroke="#226622" points="1007.86,-69.91 1012.02,-60.17 1002.69,-65.19 1007.86,-69.91"/>
</g>
<!-- svc_vision&#45;&gt;core_svc -->
<g id="edge41" class="edge">
<title>svc_vision&#45;&gt;core_svc</title>
<path fill="none" stroke="#555555" stroke-dasharray="1,5" d="M849.78,-157.86C858.6,-153.55 867.86,-149.7 877,-147 907.99,-137.85 1144.89,-148.57 1167,-125 1180.38,-110.73 1180.33,-88.54 1177.09,-70.28"/>
<polygon fill="#555555" stroke="#555555" points="1180.47,-69.38 1174.96,-60.34 1173.63,-70.85 1180.47,-69.38"/>
</g>
<!-- svc_audio&#45;&gt;core_bus -->
<g id="edge31" class="edge">
<title>svc_audio&#45;&gt;core_bus</title>
<path fill="none" stroke="#226622" d="M486.73,-163.34C517.07,-145.71 559.87,-124.36 601,-116 639.34,-108.21 916.67,-122.51 953,-108 973.86,-99.67 992.6,-82.82 1006.25,-67.85"/>
<polygon fill="#226622" stroke="#226622" points="1008.95,-70.08 1012.91,-60.26 1003.69,-65.47 1008.95,-70.08"/>
</g>
<!-- svc_audio&#45;&gt;core_svc -->
<g id="edge42" class="edge">
<title>svc_audio&#45;&gt;core_svc</title>
<path fill="none" stroke="#555555" stroke-dasharray="1,5" d="M484.76,-163.5C496.59,-156.91 509.9,-150.68 523,-147 631.79,-116.47 919.03,-140.16 1031,-125 1064.44,-120.47 1075.86,-125.01 1105,-108 1121.86,-98.16 1136.8,-82.31 1147.89,-68.29"/>
<polygon fill="#555555" stroke="#555555" points="1150.69,-70.38 1153.96,-60.3 1145.12,-66.15 1150.69,-70.38"/>
</g>
<!-- svc_av&#45;&gt;core_bus -->
<g id="edge33" class="edge">
<title>svc_av&#45;&gt;core_bus</title>
<path fill="none" stroke="#226622" d="M982.79,-163.45C969.99,-150.13 959.86,-133.19 966,-116 972.46,-97.91 985.19,-81.01 997.52,-67.68"/>
<polygon fill="#226622" stroke="#226622" points="1000.26,-69.89 1004.69,-60.26 995.23,-65.02 1000.26,-69.89"/>
</g>
<!-- svc_av&#45;&gt;core_svc -->
<g id="edge43" class="edge">
<title>svc_av&#45;&gt;core_svc</title>
<path fill="none" stroke="#555555" stroke-dasharray="1,5" d="M1102.09,-163.47C1151.44,-147.69 1204.55,-129.81 1208,-125 1220.44,-107.63 1209.99,-85.77 1196.66,-68.44"/>
<polygon fill="#555555" stroke="#555555" points="1199.04,-65.82 1189.97,-60.33 1193.64,-70.27 1199.04,-65.82"/>
</g>
<!-- svc_telemetry&#45;&gt;core_bus -->
<g id="edge35" class="edge">
<title>svc_telemetry&#45;&gt;core_bus</title>
<path fill="none" stroke="#226622" d="M1450.35,-157.97C1437.25,-153.92 1423.85,-150.11 1411,-147 1323.15,-125.74 1299.8,-126.33 1210,-116 1186.75,-113.33 1126.49,-117.25 1105,-108 1084.51,-99.18 1065.89,-82.48 1052.2,-67.73"/>
<polygon fill="#226622" stroke="#226622" points="1054.79,-65.37 1045.52,-60.24 1049.57,-70.03 1054.79,-65.37"/>
</g>
<!-- svc_telemetry&#45;&gt;core_svc -->
<g id="edge44" class="edge">
<title>svc_telemetry&#45;&gt;core_svc</title>
<path fill="none" stroke="#555555" stroke-dasharray="1,5" d="M1507.75,-157.96C1489.71,-142.23 1465.88,-124.8 1441,-116 1397.18,-100.5 1274.24,-127.4 1232,-108 1213.63,-99.56 1198.07,-83.16 1186.89,-68.47"/>
<polygon fill="#555555" stroke="#555555" points="1189.53,-66.14 1180.83,-60.09 1183.85,-70.24 1189.53,-66.14"/>
</g>
<!-- ext_db -->
<g id="node33" class="node">
<title>ext_db</title>
<path fill="#ffe375" stroke="black" d="M1885.5,-358.5C1885.5,-358.5 1726.5,-358.5 1726.5,-358.5 1720.5,-358.5 1714.5,-352.5 1714.5,-346.5 1714.5,-346.5 1714.5,-326.5 1714.5,-326.5 1714.5,-320.5 1720.5,-314.5 1726.5,-314.5 1726.5,-314.5 1885.5,-314.5 1885.5,-314.5 1891.5,-314.5 1897.5,-320.5 1897.5,-326.5 1897.5,-326.5 1897.5,-346.5 1897.5,-346.5 1897.5,-352.5 1891.5,-358.5 1885.5,-358.5"/>
<text text-anchor="middle" x="1806" y="-339.5" font-family="Helvetica,sans-Serif" font-size="10.00">~/.local/share/desktop&#45;assistant/</text>
<text text-anchor="middle" x="1806" y="-328.5" font-family="Helvetica,sans-Serif" font-size="10.00">telemetry.db (SQLite ring)</text>
</g>
<!-- svc_telemetry&#45;&gt;ext_db -->
<g id="edge48" class="edge">
<title>svc_telemetry&#45;&gt;ext_db</title>
<path fill="none" stroke="#aa6600" d="M1570.3,-224.2C1592.65,-246.25 1624.83,-274.63 1658,-292.5 1664.16,-295.82 1690.03,-303.61 1718.45,-311.67"/>
<polygon fill="#aa6600" stroke="#aa6600" points="1717.59,-315.06 1728.17,-314.4 1719.49,-308.32 1717.59,-315.06"/>
<text text-anchor="middle" x="1670.5" y="-281.6" font-family="Helvetica,sans-Serif" font-size="8.00">writes</text>
</g>
<!-- svc_ipc&#45;&gt;core_bus -->
<g id="edge25" class="edge">
<title>svc_ipc&#45;&gt;core_bus</title>
<path fill="none" stroke="#226622" d="M1178.07,-152.46C1170.98,-150.47 1163.91,-148.62 1157,-147 1121.41,-138.66 1018.05,-152.52 994,-125 979.96,-108.94 989.79,-86.5 1002.56,-68.57"/>
<polygon fill="#226622" stroke="#226622" points="1005.69,-70.25 1008.98,-60.18 1000.12,-66 1005.69,-70.25"/>
<text text-anchor="middle" x="1009" y="-118.6" font-family="Helvetica,sans-Serif" font-size="8.00">re&#45;emit</text>
</g>
<!-- svc_ipc&#45;&gt;core_bus -->
<g id="edge37" class="edge">
<title>svc_ipc&#45;&gt;core_bus</title>
<path fill="none" stroke="#226622" d="M1172.58,-152.48C1146.35,-142.67 1122.64,-132.7 1111,-125 1087.87,-109.7 1066.42,-86.76 1051.27,-68.42"/>
<polygon fill="#226622" stroke="#226622" points="1053.77,-65.94 1044.77,-60.36 1048.32,-70.34 1053.77,-65.94"/>
</g>
<!-- svc_ipc&#45;&gt;core_svc -->
<g id="edge45" class="edge">
<title>svc_ipc&#45;&gt;core_svc</title>
<path fill="none" stroke="#555555" stroke-dasharray="1,5" d="M1286.2,-152.26C1284.99,-139.25 1281.21,-125.56 1272,-116 1259.42,-102.95 1247.82,-116.85 1232,-108 1214.72,-98.33 1199.45,-82.35 1188.17,-68.2"/>
<polygon fill="#555555" stroke="#555555" points="1190.86,-65.95 1182,-60.14 1185.3,-70.21 1190.86,-65.95"/>
</g>
<!-- ext_cli -->
<g id="node31" class="node">
<title>ext_cli</title>
<path fill="#ffe375" stroke="black" d="M1673.5,-358.5C1673.5,-358.5 1476.5,-358.5 1476.5,-358.5 1470.5,-358.5 1464.5,-352.5 1464.5,-346.5 1464.5,-346.5 1464.5,-326.5 1464.5,-326.5 1464.5,-320.5 1470.5,-314.5 1476.5,-314.5 1476.5,-314.5 1673.5,-314.5 1673.5,-314.5 1679.5,-314.5 1685.5,-320.5 1685.5,-326.5 1685.5,-326.5 1685.5,-346.5 1685.5,-346.5 1685.5,-352.5 1679.5,-358.5 1673.5,-358.5"/>
<text text-anchor="middle" x="1575" y="-339.5" font-family="Helvetica,sans-Serif" font-size="10.00">scripts/desktop&#45;assistant</text>
<text text-anchor="middle" x="1575" y="-328.5" font-family="Helvetica,sans-Serif" font-size="10.00">(CLI: ping / status / pan / say / watch / ...)</text>
</g>
<!-- ext_cli&#45;&gt;svc_ipc -->
<g id="edge46" class="edge">
<title>ext_cli&#45;&gt;svc_ipc</title>
<path fill="none" stroke="#aa6600" d="M1519.89,-314.43C1487.67,-301.59 1446.49,-284.28 1411,-266.5 1391.86,-256.91 1371.65,-245.63 1353.13,-234.78"/>
<polygon fill="#aa6600" stroke="#aa6600" points="1354.85,-231.73 1344.46,-229.67 1351.3,-237.76 1354.85,-231.73"/>
<text text-anchor="middle" x="1492.5" y="-281.6" font-family="Helvetica,sans-Serif" font-size="8.00">ZMQ REQ/SUB</text>
</g>
<!-- ext_3p -->
<g id="node32" class="node">
<title>ext_3p</title>
<path fill="#ffe375" stroke="black" stroke-dasharray="5,2" d="M1424,-358.5C1424,-358.5 1262,-358.5 1262,-358.5 1256,-358.5 1250,-352.5 1250,-346.5 1250,-346.5 1250,-326.5 1250,-326.5 1250,-320.5 1256,-314.5 1262,-314.5 1262,-314.5 1424,-314.5 1424,-314.5 1430,-314.5 1436,-320.5 1436,-326.5 1436,-326.5 1436,-346.5 1436,-346.5 1436,-352.5 1430,-358.5 1424,-358.5"/>
<text text-anchor="middle" x="1343" y="-339.5" font-family="Helvetica,sans-Serif" font-size="10.00">3rd&#45;party subscribers</text>
<text text-anchor="middle" x="1343" y="-328.5" font-family="Helvetica,sans-Serif" font-size="10.00">(dashboards, future ML pipelines)</text>
</g>
<!-- ext_3p&#45;&gt;svc_ipc -->
<g id="edge47" class="edge">
<title>ext_3p&#45;&gt;svc_ipc</title>
<path fill="none" stroke="#aa6600" stroke-dasharray="5,2" d="M1334.29,-314.33C1326.19,-294.62 1313.84,-264.57 1303.4,-239.18"/>
<polygon fill="#aa6600" stroke="#aa6600" points="1306.54,-237.63 1299.51,-229.71 1300.07,-240.29 1306.54,-237.63"/>
<text text-anchor="middle" x="1341.5" y="-281.6" font-family="Helvetica,sans-Serif" font-size="8.00">ZMQ SUB</text>
</g>
</g>
</svg>
