<?xml version="1.0" encoding="UTF-8" standalone="no"?>
<!DOCTYPE svg PUBLIC "-//W3C//DTD SVG 1.1//EN"
 "http://www.w3.org/Graphics/SVG/1.1/DTD/svg11.dtd">
<!-- Generated by graphviz version 2.42.4 (0)
 -->
<!-- Title: DesktopAssistant Pages: 1 -->
<svg width="1636pt" height="731pt"
 viewBox="0.00 0.00 1636.00 731.00" xmlns="http://www.w3.org/2000/svg" xmlns:xlink="http://www.w3.org/1999/xlink">
<g id="graph0" class="graph" transform="scale(1 1) rotate(0) translate(4 727)">
<title>DesktopAssistant</title>
<polygon fill="white" stroke="transparent" points="-4,4 -4,-727 1632,-727 1632,4 -4,4"/>
<text text-anchor="start" x="627" y="-707.2" font-family="Helvetica,sans-Serif" font-weight="bold" font-size="16.00">Desktop Assistant — System Architecture</text>
<text text-anchor="start" x="678.5" y="-696" font-family="Helvetica,sans-Serif" font-size="10.00">v0.7.0 — Phase 2 complete · hardware&#45;PWM fan + tach</text>
<g id="clust1" class="cluster">
<title>cluster_hw</title>
<path fill="#f5e9d8" stroke="black" d="M208,-590C208,-590 1236,-590 1236,-590 1242,-590 1248,-596 1248,-602 1248,-602 1248,-669 1248,-669 1248,-675 1242,-681 1236,-681 1236,-681 208,-681 208,-681 202,-681 196,-675 196,-669 196,-669 196,-602 196,-602 196,-596 202,-590 208,-590"/>
<text text-anchor="middle" x="722" y="-668.2" font-family="Helvetica,sans-Serif" font-size="11.00">Hardware (Raspberry Pi 5)</text>
</g>
<g id="clust2" class="cluster">
<title>cluster_drv</title>
<path fill="#dfeefc" stroke="black" d="M20,-264C20,-264 1217,-264 1217,-264 1223,-264 1229,-270 1229,-276 1229,-276 1229,-547 1229,-547 1229,-553 1223,-559 1217,-559 1217,-559 20,-559 20,-559 14,-559 8,-553 8,-547 8,-547 8,-276 8,-276 8,-270 14,-264 20,-264"/>
<text text-anchor="middle" x="618.5" y="-546.2" font-family="Helvetica,sans-Serif" font-size="11.00">Drivers (src/)</text>
</g>
<g id="clust3" class="cluster">
<title>cluster_core</title>
<path fill="#e7e3fb" stroke="black" d="M353,-8C353,-8 731,-8 731,-8 737,-8 743,-14 743,-20 743,-20 743,-76 743,-76 743,-82 737,-88 731,-88 731,-88 353,-88 353,-88 347,-88 341,-82 341,-76 341,-76 341,-20 341,-20 341,-14 347,-8 353,-8"/>
<text text-anchor="middle" x="542" y="-75.2" font-family="Helvetica,sans-Serif" font-size="11.00">Core (src/core/)</text>
</g>
<g id="clust6" class="cluster">
<title>cluster_ext</title>
<path fill="#fff7c2" stroke="black" d="M1249,-260C1249,-260 1608,-260 1608,-260 1614,-260 1620,-266 1620,-272 1620,-272 1620,-328 1620,-328 1620,-334 1614,-340 1608,-340 1608,-340 1249,-340 1249,-340 1243,-340 1237,-334 1237,-328 1237,-328 1237,-272 1237,-272 1237,-266 1243,-260 1249,-260"/>
<text text-anchor="middle" x="1428.5" y="-327.2" font-family="Helvetica,sans-Serif" font-size="11.00">External processes</text>
</g>
<!-- hw_tmp117 -->
<g id="node1" class="node">
<title>hw_tmp117</title>
<path fill="#ffd6a5" stroke="black" d="M1073.5,-647.5C1073.5,-647.5 1026.5,-647.5 1026.5,-647.5 1020.5,-647.5 1014.5,-641.5 1014.5,-635.5 1014.5,-635.5 1014.5,-615.5 1014.5,-615.5 1014.5,-609.5 1020.5,-603.5 1026.5,-603.5 1026.5,-603.5 1073.5,-603.5 1073.5,-603.5 1079.5,-603.5 1085.5,-609.5 1085.5,-615.5 1085.5,-615.5 1085.5,-635.5 1085.5,-635.5 1085.5,-641.5 1079.5,-647.5 1073.5,-647.5"/>
<text text-anchor="middle" x="1050" y="-628.5" font-family="Helvetica,sans-Serif" font-size="10.00">TMP117</text>
<text text-anchor="middle" x="1050" y="-617.5" font-family="Helvetica,sans-Serif" font-size="10.00">(I²C 0x48)</text>
</g>
<!-- drv_tmp117 -->
<g id="node8" class="node">
<title>drv_tmp117</title>
<path fill="#a5c8ff" stroke="black" d="M1209,-521.5C1209,-521.5 1117,-521.5 1117,-521.5 1111,-521.5 1105,-515.5 1105,-509.5 1105,-509.5 1105,-497.5 1105,-497.5 1105,-491.5 1111,-485.5 1117,-485.5 1117,-485.5 1209,-485.5 1209,-485.5 1215,-485.5 1221,-491.5 1221,-497.5 1221,-497.5 1221,-509.5 1221,-509.5 1221,-515.5 1215,-521.5 1209,-521.5"/>
<text text-anchor="middle" x="1163" y="-501" font-family="Helvetica,sans-Serif" font-size="10.00">thermal/tmp117.py</text>
</g>
<!-- hw_tmp117&#45;&gt;drv_tmp117 -->
<g id="edge1" class="edge">
<title>hw_tmp117&#45;&gt;drv_tmp117</title>
<path fill="none" stroke="#555555" d="M1069.94,-603.32C1089.55,-582.5 1119.46,-550.74 1140.05,-528.87"/>
<polygon fill="#555555" stroke="#555555" points="1142.6,-531.27 1146.91,-521.59 1137.51,-526.47 1142.6,-531.27"/>
<text text-anchor="middle" x="1108.5" y="-569.6" font-family="Helvetica,sans-Serif" font-size="8.00">I²C</text>
</g>
<!-- hw_fan -->
<g id="node2" class="node">
<title>hw_fan</title>
<path fill="#ffd6a5" stroke="black" d="M843,-653C843,-653 641,-653 641,-653 635,-653 629,-647 629,-641 629,-641 629,-610 629,-610 629,-604 635,-598 641,-598 641,-598 843,-598 843,-598 849,-598 855,-604 855,-610 855,-610 855,-641 855,-641 855,-647 849,-653 843,-653"/>
<text text-anchor="middle" x="742" y="-634" font-family="Helvetica,sans-Serif" font-size="10.00">NF&#45;A6x25 PWM Fan</text>
<text text-anchor="middle" x="742" y="-623" font-family="Helvetica,sans-Serif" font-size="10.00">PWM ← GPIO13 (kernel HW PWM, 25 kHz)</text>
<text text-anchor="middle" x="742" y="-612" font-family="Helvetica,sans-Serif" font-size="10.00">TACH → GPIO6 (2 ppr)</text>
</g>
<!-- drv_fan -->
<g id="node9" class="node">
<title>drv_fan</title>
<path fill="#a5c8ff" stroke="black" d="M886,-531C886,-531 806,-531 806,-531 800,-531 794,-525 794,-519 794,-519 794,-488 794,-488 794,-482 800,-476 806,-476 806,-476 886,-476 886,-476 892,-476 898,-482 898,-488 898,-488 898,-519 898,-519 898,-525 892,-531 886,-531"/>
<text text-anchor="middle" x="846" y="-512" font-family="Helvetica,sans-Serif" font-size="10.00">thermal/fan.py</text>
<text text-anchor="middle" x="846" y="-501" font-family="Helvetica,sans-Serif" font-size="10.00">(sysfs HW PWM</text>
<text text-anchor="middle" x="846" y="-490" font-family="Helvetica,sans-Serif" font-size="10.00">+ lgpio fallback)</text>
</g>
<!-- hw_fan&#45;&gt;drv_fan -->
<g id="edge2" class="edge">
<title>hw_fan&#45;&gt;drv_fan</title>
<path fill="none" stroke="#555555" d="M765.08,-597.87C780.16,-580.47 800,-557.58 816.26,-538.82"/>
<polygon fill="#555555" stroke="#555555" points="819.08,-540.91 822.98,-531.06 813.79,-536.32 819.08,-540.91"/>
<text text-anchor="middle" x="800" y="-569.6" font-family="Helvetica,sans-Serif" font-size="8.00">PWM</text>
</g>
<!-- drv_tach -->
<g id="node10" class="node">
<title>drv_tach</title>
<path fill="#a5c8ff" stroke="black" d="M752.5,-525.5C752.5,-525.5 655.5,-525.5 655.5,-525.5 649.5,-525.5 643.5,-519.5 643.5,-513.5 643.5,-513.5 643.5,-493.5 643.5,-493.5 643.5,-487.5 649.5,-481.5 655.5,-481.5 655.5,-481.5 752.5,-481.5 752.5,-481.5 758.5,-481.5 764.5,-487.5 764.5,-493.5 764.5,-493.5 764.5,-513.5 764.5,-513.5 764.5,-519.5 758.5,-525.5 752.5,-525.5"/>
<text text-anchor="middle" x="704" y="-506.5" font-family="Helvetica,sans-Serif" font-size="10.00">thermal/fan_tach.py</text>
<text text-anchor="middle" x="704" y="-495.5" font-family="Helvetica,sans-Serif" font-size="10.00">(lgpio edge cb)</text>
</g>
<!-- hw_fan&#45;&gt;drv_tach -->
<g id="edge3" class="edge">
<title>hw_fan&#45;&gt;drv_tach</title>
<path fill="none" stroke="#555555" d="M733.57,-597.87C727.72,-579.41 719.92,-554.76 713.79,-535.43"/>
<polygon fill="#555555" stroke="#555555" points="717.12,-534.34 710.76,-525.86 710.45,-536.45 717.12,-534.34"/>
<text text-anchor="middle" x="735.5" y="-569.6" font-family="Helvetica,sans-Serif" font-size="8.00">tach</text>
</g>
<!-- hw_servo -->
<g id="node3" class="node">
<title>hw_servo</title>
<path fill="#ffd6a5" stroke="black" d="M455,-647.5C455,-647.5 379,-647.5 379,-647.5 373,-647.5 367,-641.5 367,-635.5 367,-635.5 367,-615.5 367,-615.5 367,-609.5 373,-603.5 379,-603.5 379,-603.5 455,-603.5 455,-603.5 461,-603.5 467,-609.5 467,-615.5 467,-615.5 467,-635.5 467,-635.5 467,-641.5 461,-647.5 455,-647.5"/>
<text text-anchor="middle" x="417" y="-628.5" font-family="Helvetica,sans-Serif" font-size="10.00">DS3218 Servo</text>
<text text-anchor="middle" x="417" y="-617.5" font-family="Helvetica,sans-Serif" font-size="10.00">(PCA9685 ch15)</text>
</g>
<!-- drv_servo -->
<g id="node12" class="node">
<title>drv_servo</title>
<path fill="#a5c8ff" stroke="black" d="M292.5,-521.5C292.5,-521.5 163.5,-521.5 163.5,-521.5 157.5,-521.5 151.5,-515.5 151.5,-509.5 151.5,-509.5 151.5,-497.5 151.5,-497.5 151.5,-491.5 157.5,-485.5 163.5,-485.5 163.5,-485.5 292.5,-485.5 292.5,-485.5 298.5,-485.5 304.5,-491.5 304.5,-497.5 304.5,-497.5 304.5,-509.5 304.5,-509.5 304.5,-515.5 298.5,-521.5 292.5,-521.5"/>
<text text-anchor="middle" x="228" y="-501" font-family="Helvetica,sans-Serif" font-size="10.00">motion/servo_controller.py</text>
</g>
<!-- hw_servo&#45;&gt;drv_servo -->
<g id="edge4" class="edge">
<title>hw_servo&#45;&gt;drv_servo</title>
<path fill="none" stroke="#555555" d="M383.65,-603.32C349.99,-581.95 298.19,-549.07 263.71,-527.18"/>
<polygon fill="#555555" stroke="#555555" points="265.23,-523.99 254.91,-521.59 261.48,-529.9 265.23,-523.99"/>
<text text-anchor="middle" x="357" y="-569.6" font-family="Helvetica,sans-Serif" font-size="8.00">I²C/PWM</text>
</g>
<!-- hw_cam -->
<g id="node4" class="node">
<title>hw_cam</title>
<path fill="#ffd6a5" stroke="black" d="M325.5,-647.5C325.5,-647.5 216.5,-647.5 216.5,-647.5 210.5,-647.5 204.5,-641.5 204.5,-635.5 204.5,-635.5 204.5,-615.5 204.5,-615.5 204.5,-609.5 210.5,-603.5 216.5,-603.5 216.5,-603.5 325.5,-603.5 325.5,-603.5 331.5,-603.5 337.5,-609.5 337.5,-615.5 337.5,-615.5 337.5,-635.5 337.5,-635.5 337.5,-641.5 331.5,-647.5 325.5,-647.5"/>
<text text-anchor="middle" x="271" y="-628.5" font-family="Helvetica,sans-Serif" font-size="10.00">Pi Cam Module 3 Wide</text>
<text text-anchor="middle" x="271" y="-617.5" font-family="Helvetica,sans-Serif" font-size="10.00">(CSI&#45;0)</text>
</g>
<!-- drv_cam -->
<g id="node13" class="node">
<title>drv_cam</title>
<path fill="#a5c8ff" stroke="black" d="M110.5,-525.5C110.5,-525.5 27.5,-525.5 27.5,-525.5 21.5,-525.5 15.5,-519.5 15.5,-513.5 15.5,-513.5 15.5,-493.5 15.5,-493.5 15.5,-487.5 21.5,-481.5 27.5,-481.5 27.5,-481.5 110.5,-481.5 110.5,-481.5 116.5,-481.5 122.5,-487.5 122.5,-493.5 122.5,-493.5 122.5,-513.5 122.5,-513.5 122.5,-519.5 116.5,-525.5 110.5,-525.5"/>
<text text-anchor="middle" x="69" y="-506.5" font-family="Helvetica,sans-Serif" font-size="10.00">vision/camera.py</text>
<text text-anchor="middle" x="69" y="-495.5" font-family="Helvetica,sans-Serif" font-size="10.00">(picamera2)</text>
</g>
<!-- hw_cam&#45;&gt;drv_cam -->
<g id="edge5" class="edge">
<title>hw_cam&#45;&gt;drv_cam</title>
<path fill="none" stroke="#555555" d="M221.54,-603.5C195.62,-591.72 163.79,-575.99 137,-559 124.46,-551.05 111.53,-541.18 100.37,-532.03"/>
<polygon fill="#555555" stroke="#555555" points="102.5,-529.25 92.58,-525.54 98.02,-534.63 102.5,-529.25"/>
<text text-anchor="middle" x="172.5" y="-569.6" font-family="Helvetica,sans-Serif" font-size="8.00">CSI</text>
</g>
<!-- hw_mic -->
<g id="node5" class="node">
<title>hw_mic</title>
<path fill="#ffd6a5" stroke="black" d="M587.5,-643.5C587.5,-643.5 508.5,-643.5 508.5,-643.5 502.5,-643.5 496.5,-637.5 496.5,-631.5 496.5,-631.5 496.5,-619.5 496.5,-619.5 496.5,-613.5 502.5,-607.5 508.5,-607.5 508.5,-607.5 587.5,-607.5 587.5,-607.5 593.5,-607.5 599.5,-613.5 599.5,-619.5 599.5,-619.5 599.5,-631.5 599.5,-631.5 599.5,-637.5 593.5,-643.5 587.5,-643.5"/>
<text text-anchor="middle" x="548" y="-623" font-family="Helvetica,sans-Serif" font-size="10.00">USB Microphone</text>
</g>
<!-- drv_ain -->
<g id="node15" class="node">
<title>drv_ain</title>
<path fill="#a5c8ff" stroke="black" d="M414,-521.5C414,-521.5 346,-521.5 346,-521.5 340,-521.5 334,-515.5 334,-509.5 334,-509.5 334,-497.5 334,-497.5 334,-491.5 340,-485.5 346,-485.5 346,-485.5 414,-485.5 414,-485.5 420,-485.5 426,-491.5 426,-497.5 426,-497.5 426,-509.5 426,-509.5 426,-515.5 420,-521.5 414,-521.5"/>
<text text-anchor="middle" x="380" y="-501" font-family="Helvetica,sans-Serif" font-size="10.00">audio/input.py</text>
</g>
<!-- hw_mic&#45;&gt;drv_ain -->
<g id="edge6" class="edge">
<title>hw_mic&#45;&gt;drv_ain</title>
<path fill="none" stroke="#555555" d="M516.6,-607.28C494.75,-594.82 465.3,-577.06 441,-559 428.53,-549.73 415.57,-538.42 404.82,-528.52"/>
<polygon fill="#555555" stroke="#555555" points="407.12,-525.88 397.43,-521.6 402.34,-530.99 407.12,-525.88"/>
<text text-anchor="middle" x="471.5" y="-569.6" font-family="Helvetica,sans-Serif" font-size="8.00">USB</text>
</g>
<!-- hw_spk -->
<g id="node6" class="node">
<title>hw_spk</title>
<path fill="#ffd6a5" stroke="black" d="M1227.5,-647.5C1227.5,-647.5 1126.5,-647.5 1126.5,-647.5 1120.5,-647.5 1114.5,-641.5 1114.5,-635.5 1114.5,-635.5 1114.5,-615.5 1114.5,-615.5 1114.5,-609.5 1120.5,-603.5 1126.5,-603.5 1126.5,-603.5 1227.5,-603.5 1227.5,-603.5 1233.5,-603.5 1239.5,-609.5 1239.5,-615.5 1239.5,-615.5 1239.5,-635.5 1239.5,-635.5 1239.5,-641.5 1233.5,-647.5 1227.5,-647.5"/>
<text text-anchor="middle" x="1177" y="-628.5" font-family="Helvetica,sans-Serif" font-size="10.00">Sabrent USB Audio →</text>
<text text-anchor="middle" x="1177" y="-617.5" font-family="Helvetica,sans-Serif" font-size="10.00">8 Ω stereo speakers</text>
</g>
<!-- drv_aout -->
<g id="node14" class="node">
<title>drv_aout</title>
<path fill="#a5c8ff" stroke="black" d="M977.5,-308C977.5,-308 902.5,-308 902.5,-308 896.5,-308 890.5,-302 890.5,-296 890.5,-296 890.5,-284 890.5,-284 890.5,-278 896.5,-272 902.5,-272 902.5,-272 977.5,-272 977.5,-272 983.5,-272 989.5,-278 989.5,-284 989.5,-284 989.5,-296 989.5,-296 989.5,-302 983.5,-308 977.5,-308"/>
<text text-anchor="middle" x="940" y="-287.5" font-family="Helvetica,sans-Serif" font-size="10.00">audio/output.py</text>
</g>
<!-- hw_spk&#45;&gt;drv_aout -->
<g id="edge7" class="edge">
<title>hw_spk&#45;&gt;drv_aout</title>
<path fill="none" stroke="#555555" d="M1203.38,-603.49C1215.82,-591.87 1229.36,-576.29 1236,-559 1249.22,-524.56 1253.88,-508.26 1236,-476 1185.71,-385.26 1070.3,-333.15 999.37,-308.58"/>
<polygon fill="#555555" stroke="#555555" points="1000.26,-305.19 989.66,-305.3 998.01,-311.82 1000.26,-305.19"/>
<text text-anchor="middle" x="1228.5" y="-447.6" font-family="Helvetica,sans-Serif" font-size="8.00">USB</text>
</g>
<!-- hw_hailo -->
<g id="node7" class="node">
<title>hw_hailo</title>
<path fill="#ffd6a5" stroke="black" d="M973.5,-647.5C973.5,-647.5 896.5,-647.5 896.5,-647.5 890.5,-647.5 884.5,-641.5 884.5,-635.5 884.5,-635.5 884.5,-615.5 884.5,-615.5 884.5,-609.5 890.5,-603.5 896.5,-603.5 896.5,-603.5 973.5,-603.5 973.5,-603.5 979.5,-603.5 985.5,-609.5 985.5,-615.5 985.5,-615.5 985.5,-635.5 985.5,-635.5 985.5,-641.5 979.5,-647.5 973.5,-647.5"/>
<text text-anchor="middle" x="935" y="-628.5" font-family="Helvetica,sans-Serif" font-size="10.00">Hailo&#45;8 AI HAT+</text>
<text text-anchor="middle" x="935" y="-617.5" font-family="Helvetica,sans-Serif" font-size="10.00">(26 TOPS, PCIe)</text>
</g>
<!-- drv_hailo -->
<g id="node18" class="node">
<title>drv_hailo</title>
<path fill="#a5c8ff" stroke="black" stroke-dasharray="5,2" d="M1064.5,-521.5C1064.5,-521.5 939.5,-521.5 939.5,-521.5 933.5,-521.5 927.5,-515.5 927.5,-509.5 927.5,-509.5 927.5,-497.5 927.5,-497.5 927.5,-491.5 933.5,-485.5 939.5,-485.5 939.5,-485.5 1064.5,-485.5 1064.5,-485.5 1070.5,-485.5 1076.5,-491.5 1076.5,-497.5 1076.5,-497.5 1076.5,-509.5 1076.5,-509.5 1076.5,-515.5 1070.5,-521.5 1064.5,-521.5"/>
<text text-anchor="middle" x="1002" y="-501" font-family="Helvetica,sans-Serif" font-size="10.00">perception/hailo_probe.py</text>
</g>
<!-- hw_hailo&#45;&gt;drv_hailo -->
<g id="edge8" class="edge">
<title>hw_hailo&#45;&gt;drv_hailo</title>
<path fill="none" stroke="#555555" d="M946.82,-603.32C958.2,-582.95 975.41,-552.12 987.58,-530.32"/>
<polygon fill="#555555" stroke="#555555" points="990.64,-532.02 992.46,-521.59 984.53,-528.61 990.64,-532.02"/>
<text text-anchor="middle" x="975" y="-569.6" font-family="Helvetica,sans-Serif" font-size="8.00">PCIe</text>
</g>
<!-- drv_thmgr -->
<g id="node11" class="node">
<title>drv_thmgr</title>
<path fill="#a5c8ff" stroke="black" d="M916.5,-419C916.5,-419 775.5,-419 775.5,-419 769.5,-419 763.5,-413 763.5,-407 763.5,-407 763.5,-395 763.5,-395 763.5,-389 769.5,-383 775.5,-383 775.5,-383 916.5,-383 916.5,-383 922.5,-383 928.5,-389 928.5,-395 928.5,-395 928.5,-407 928.5,-407 928.5,-413 922.5,-419 916.5,-419"/>
<text text-anchor="middle" x="846" y="-398.5" font-family="Helvetica,sans-Serif" font-size="10.00">thermal/thermal_manager.py</text>
</g>
<!-- drv_tmp117&#45;&gt;drv_thmgr -->
<g id="edge9" class="edge">
<title>drv_tmp117&#45;&gt;drv_thmgr</title>
<path fill="none" stroke="#555555" d="M1117.82,-485.41C1108.96,-482.19 1099.72,-478.92 1091,-476 1032.36,-456.37 965.08,-436.22 915.88,-421.91"/>
<polygon fill="#555555" stroke="#555555" points="916.55,-418.46 905.97,-419.04 914.6,-425.18 916.55,-418.46"/>
</g>
<!-- drv_fan&#45;&gt;drv_thmgr -->
<g id="edge10" class="edge">
<title>drv_fan&#45;&gt;drv_thmgr</title>
<path fill="none" stroke="#555555" d="M846,-475.83C846,-461.56 846,-444 846,-429.59"/>
<polygon fill="#555555" stroke="#555555" points="849.5,-429.29 846,-419.29 842.5,-429.29 849.5,-429.29"/>
</g>
<!-- drv_tach&#45;&gt;drv_thmgr -->
<g id="edge11" class="edge">
<title>drv_tach&#45;&gt;drv_thmgr</title>
<path fill="none" stroke="#555555" d="M733.77,-481.43C757.09,-464.93 789.5,-441.99 813.49,-425.01"/>
<polygon fill="#555555" stroke="#555555" points="815.78,-427.67 821.92,-419.04 811.74,-421.96 815.78,-427.67"/>
</g>
<!-- svc_thermal -->
<g id="node22" class="node">
<title>svc_thermal</title>
<path fill="#f4a3a3" stroke="black" d="M950,-215C950,-215 864,-215 864,-215 858,-215 852,-209 852,-203 852,-203 852,-139 852,-139 852,-133 858,-127 864,-127 864,-127 950,-127 950,-127 956,-127 962,-133 962,-139 962,-139 962,-203 962,-203 962,-209 956,-215 950,-215"/>
<text text-anchor="middle" x="907" y="-196" font-family="Helvetica,sans-Serif" font-size="10.00">ThermalService</text>
<text text-anchor="middle" x="907" y="-185" font-family="Helvetica,sans-Serif" font-size="10.00">— thermal.temp</text>
<text text-anchor="middle" x="907" y="-174" font-family="Helvetica,sans-Serif" font-size="10.00">— thermal.fan</text>
<text text-anchor="middle" x="907" y="-163" font-family="Helvetica,sans-Serif" font-size="10.00">— thermal.rpm</text>
<text text-anchor="middle" x="907" y="-152" font-family="Helvetica,sans-Serif" font-size="10.00">— thermal.critical</text>
<text text-anchor="middle" x="907" y="-141" font-family="Helvetica,sans-Serif" font-size="10.00">— thermal.error</text>
</g>
<!-- drv_thmgr&#45;&gt;svc_thermal -->
<g id="edge15" class="edge">
<title>drv_thmgr&#45;&gt;svc_thermal</title>
<path fill="none" stroke="#555555" d="M848.99,-382.58C853.74,-355.93 863.72,-303.54 876,-260 879.26,-248.43 883.24,-236.17 887.24,-224.6"/>
<polygon fill="#555555" stroke="#555555" points="890.58,-225.66 890.6,-215.07 883.98,-223.34 890.58,-225.66"/>
</g>
<!-- svc_motion -->
<g id="node23" class="node">
<title>svc_motion</title>
<path fill="#a8d88d" stroke="black" d="M316,-198.5C316,-198.5 172,-198.5 172,-198.5 166,-198.5 160,-192.5 160,-186.5 160,-186.5 160,-155.5 160,-155.5 160,-149.5 166,-143.5 172,-143.5 172,-143.5 316,-143.5 316,-143.5 322,-143.5 328,-149.5 328,-155.5 328,-155.5 328,-186.5 328,-186.5 328,-192.5 322,-198.5 316,-198.5"/>
<text text-anchor="middle" x="244" y="-179.5" font-family="Helvetica,sans-Serif" font-size="10.00">MotionService</text>
<text text-anchor="middle" x="244" y="-168.5" font-family="Helvetica,sans-Serif" font-size="10.00">← motion.pan_to / relax / stop</text>
<text text-anchor="middle" x="244" y="-157.5" font-family="Helvetica,sans-Serif" font-size="10.00">→ motion.position / moved</text>
</g>
<!-- drv_servo&#45;&gt;svc_motion -->
<g id="edge16" class="edge">
<title>drv_servo&#45;&gt;svc_motion</title>
<path fill="none" stroke="#555555" d="M228.84,-485.2C231.33,-433.65 238.76,-280.31 242.2,-209.1"/>
<polygon fill="#555555" stroke="#555555" points="245.71,-208.97 242.7,-198.81 238.72,-208.63 245.71,-208.97"/>
</g>
<!-- svc_vision -->
<g id="node24" class="node">
<title>svc_vision</title>
<path fill="#a8d88d" stroke="black" d="M119,-204C119,-204 15,-204 15,-204 9,-204 3,-198 3,-192 3,-192 3,-150 3,-150 3,-144 9,-138 15,-138 15,-138 119,-138 119,-138 125,-138 131,-144 131,-150 131,-150 131,-192 131,-192 131,-198 125,-204 119,-204"/>
<text text-anchor="middle" x="67" y="-185" font-family="Helvetica,sans-Serif" font-size="10.00">VisionService</text>
<text text-anchor="middle" x="67" y="-174" font-family="Helvetica,sans-Serif" font-size="10.00">→ vision.frame_ready</text>
<text text-anchor="middle" x="67" y="-163" font-family="Helvetica,sans-Serif" font-size="10.00">← vision.capture_still</text>
<text text-anchor="middle" x="67" y="-152" font-family="Helvetica,sans-Serif" font-size="10.00">+ latest_frame()</text>
</g>
<!-- drv_cam&#45;&gt;svc_vision -->
<g id="edge17" class="edge">
<title>drv_cam&#45;&gt;svc_vision</title>
<path fill="none" stroke="#555555" d="M68.87,-481.32C68.55,-427.73 67.69,-285.9 67.26,-214.43"/>
<polygon fill="#555555" stroke="#555555" points="70.75,-213.98 67.19,-204 63.75,-214.03 70.75,-213.98"/>
</g>
<!-- svc_av -->
<g id="node26" class="node">
<title>svc_av</title>
<path fill="#a8d88d" stroke="black" d="M810.5,-198.5C810.5,-198.5 583.5,-198.5 583.5,-198.5 577.5,-198.5 571.5,-192.5 571.5,-186.5 571.5,-186.5 571.5,-155.5 571.5,-155.5 571.5,-149.5 577.5,-143.5 583.5,-143.5 583.5,-143.5 810.5,-143.5 810.5,-143.5 816.5,-143.5 822.5,-149.5 822.5,-155.5 822.5,-155.5 822.5,-186.5 822.5,-186.5 822.5,-192.5 816.5,-198.5 810.5,-198.5"/>
<text text-anchor="middle" x="697" y="-179.5" font-family="Helvetica,sans-Serif" font-size="10.00">AVService</text>
<text text-anchor="middle" x="697" y="-168.5" font-family="Helvetica,sans-Serif" font-size="10.00">← av.say / beep / utterance / announce_version</text>
<text text-anchor="middle" x="697" y="-157.5" font-family="Helvetica,sans-Serif" font-size="10.00">→ av.spoke / version_announced</text>
</g>
<!-- drv_aout&#45;&gt;svc_av -->
<g id="edge19" class="edge">
<title>drv_aout&#45;&gt;svc_av</title>
<path fill="none" stroke="#555555" d="M904.67,-271.99C867.23,-253.96 807.31,-225.11 761.43,-203.02"/>
<polygon fill="#555555" stroke="#555555" points="762.69,-199.74 752.16,-198.56 759.65,-206.05 762.69,-199.74"/>
</g>
<!-- svc_audio -->
<g id="node25" class="node">
<title>svc_audio</title>
<path fill="#a8d88d" stroke="black" d="M471,-198.5C471,-198.5 369,-198.5 369,-198.5 363,-198.5 357,-192.5 357,-186.5 357,-186.5 357,-155.5 357,-155.5 357,-149.5 363,-143.5 369,-143.5 369,-143.5 471,-143.5 471,-143.5 477,-143.5 483,-149.5 483,-155.5 483,-155.5 483,-186.5 483,-186.5 483,-192.5 477,-198.5 471,-198.5"/>
<text text-anchor="middle" x="420" y="-179.5" font-family="Helvetica,sans-Serif" font-size="10.00">AudioCaptureService</text>
<text text-anchor="middle" x="420" y="-168.5" font-family="Helvetica,sans-Serif" font-size="10.00">→ audio.level / chunk</text>
<text text-anchor="middle" x="420" y="-157.5" font-family="Helvetica,sans-Serif" font-size="10.00">+ latest_chunk()</text>
</g>
<!-- drv_ain&#45;&gt;svc_audio -->
<g id="edge18" class="edge">
<title>drv_ain&#45;&gt;svc_audio</title>
<path fill="none" stroke="#555555" d="M382.09,-485.2C388.33,-433.65 406.89,-280.31 415.51,-209.1"/>
<polygon fill="#555555" stroke="#555555" points="419.03,-209.16 416.76,-198.81 412.08,-208.32 419.03,-209.16"/>
</g>
<!-- drv_tts -->
<g id="node16" class="node">
<title>drv_tts</title>
<path fill="#a5c8ff" stroke="black" d="M722.5,-423C722.5,-423 665.5,-423 665.5,-423 659.5,-423 653.5,-417 653.5,-411 653.5,-411 653.5,-391 653.5,-391 653.5,-385 659.5,-379 665.5,-379 665.5,-379 722.5,-379 722.5,-379 728.5,-379 734.5,-385 734.5,-391 734.5,-391 734.5,-411 734.5,-411 734.5,-417 728.5,-423 722.5,-423"/>
<text text-anchor="middle" x="694" y="-404" font-family="Helvetica,sans-Serif" font-size="10.00">audio/tts.py</text>
<text text-anchor="middle" x="694" y="-393" font-family="Helvetica,sans-Serif" font-size="10.00">(espeak&#45;ng)</text>
</g>
<!-- drv_tts&#45;&gt;drv_aout -->
<g id="edge12" class="edge">
<title>drv_tts&#45;&gt;drv_aout</title>
<path fill="none" stroke="#555555" stroke-dasharray="5,2" d="M734.62,-382C777.81,-362.86 846.08,-332.61 891.92,-312.3"/>
<polygon fill="#555555" stroke="#555555" points="893.62,-315.38 901.35,-308.13 890.79,-308.98 893.62,-315.38"/>
<text text-anchor="middle" x="830.5" y="-350.6" font-family="Helvetica,sans-Serif" font-size="8.00">renders to</text>
</g>
<!-- drv_tts&#45;&gt;svc_av -->
<g id="edge20" class="edge">
<title>drv_tts&#45;&gt;svc_av</title>
<path fill="none" stroke="#555555" d="M694.28,-378.96C694.79,-340.14 695.88,-256.81 696.52,-208.57"/>
<polygon fill="#555555" stroke="#555555" points="700.02,-208.59 696.65,-198.54 693.02,-208.5 700.02,-208.59"/>
</g>
<!-- drv_van -->
<g id="node17" class="node">
<title>drv_van</title>
<path fill="#a5c8ff" stroke="black" d="M602.5,-521.5C602.5,-521.5 467.5,-521.5 467.5,-521.5 461.5,-521.5 455.5,-515.5 455.5,-509.5 455.5,-509.5 455.5,-497.5 455.5,-497.5 455.5,-491.5 461.5,-485.5 467.5,-485.5 467.5,-485.5 602.5,-485.5 602.5,-485.5 608.5,-485.5 614.5,-491.5 614.5,-497.5 614.5,-497.5 614.5,-509.5 614.5,-509.5 614.5,-515.5 608.5,-521.5 602.5,-521.5"/>
<text text-anchor="middle" x="535" y="-501" font-family="Helvetica,sans-Serif" font-size="10.00">audio/version_announcer.py</text>
</g>
<!-- drv_van&#45;&gt;drv_tts -->
<g id="edge13" class="edge">
<title>drv_van&#45;&gt;drv_tts</title>
<path fill="none" stroke="#555555" d="M561.97,-485.45C586.62,-469.87 623.47,-446.58 651.98,-428.56"/>
<polygon fill="#555555" stroke="#555555" points="653.95,-431.45 660.53,-423.15 650.21,-425.54 653.95,-431.45"/>
</g>
<!-- core_ver -->
<g id="node21" class="node">
<title>core_ver</title>
<path fill="#bdb1f5" stroke="black" d="M595.5,-60C595.5,-60 512.5,-60 512.5,-60 506.5,-60 500.5,-54 500.5,-48 500.5,-48 500.5,-28 500.5,-28 500.5,-22 506.5,-16 512.5,-16 512.5,-16 595.5,-16 595.5,-16 601.5,-16 607.5,-22 607.5,-28 607.5,-28 607.5,-48 607.5,-48 607.5,-54 601.5,-60 595.5,-60"/>
<text text-anchor="middle" x="554" y="-41" font-family="Helvetica,sans-Serif" font-size="10.00">version.py</text>
<text text-anchor="middle" x="554" y="-30" font-family="Helvetica,sans-Serif" font-size="10.00">(reads /VERSION)</text>
</g>
<!-- drv_van&#45;&gt;core_ver -->
<g id="edge14" class="edge">
<title>drv_van&#45;&gt;core_ver</title>
<path fill="none" stroke="#555555" stroke-dasharray="5,2" d="M539.38,-485.11C541.5,-475.93 543.82,-464.42 545,-454 553.39,-379.74 554.09,-153.4 554.06,-70.15"/>
<polygon fill="#555555" stroke="#555555" points="557.56,-70.05 554.05,-60.05 550.56,-70.06 557.56,-70.05"/>
</g>
<!-- drv_van&#45;&gt;svc_av -->
<g id="edge21" class="edge">
<title>drv_van&#45;&gt;svc_av</title>
<path fill="none" stroke="#555555" d="M532.91,-485.09C530.64,-460.59 528.9,-414.91 542,-379 567.31,-309.6 624.11,-243.9 661.47,-205.82"/>
<polygon fill="#555555" stroke="#555555" points="664.1,-208.13 668.67,-198.57 659.14,-203.2 664.1,-208.13"/>
</g>
<!-- core_bus -->
<g id="node19" class="node">
<title>core_bus</title>
<path fill="#bdb1f5" stroke="black" d="M459,-60C459,-60 361,-60 361,-60 355,-60 349,-54 349,-48 349,-48 349,-28 349,-28 349,-22 355,-16 361,-16 361,-16 459,-16 459,-16 465,-16 471,-22 471,-28 471,-28 471,-48 471,-48 471,-54 465,-60 459,-60"/>
<text text-anchor="middle" x="410" y="-41" font-family="Helvetica,sans-Serif" font-size="10.00">MessageBus</text>
<text text-anchor="middle" x="410" y="-30" font-family="Helvetica,sans-Serif" font-size="10.00">(in&#45;process pub/sub)</text>
</g>
<!-- core_bus&#45;&gt;svc_motion -->
<g id="edge23" class="edge">
<title>core_bus&#45;&gt;svc_motion</title>
<path fill="none" stroke="#226622" d="M383.29,-60.08C356.9,-80.9 316.16,-113.06 285.54,-137.22"/>
<polygon fill="#226622" stroke="#226622" points="283.27,-134.55 277.59,-143.49 287.61,-140.04 283.27,-134.55"/>
</g>
<!-- core_bus&#45;&gt;svc_vision -->
<g id="edge25" class="edge">
<title>core_bus&#45;&gt;svc_vision</title>
<path fill="none" stroke="#226622" d="M348.83,-55.84C294.34,-71.65 212.96,-97.28 145,-127 140.54,-128.95 136,-131.07 131.46,-133.29"/>
<polygon fill="#226622" stroke="#226622" points="129.55,-130.34 122.19,-137.96 132.7,-136.59 129.55,-130.34"/>
</g>
<!-- core_bus&#45;&gt;svc_audio -->
<g id="edge27" class="edge">
<title>core_bus&#45;&gt;svc_audio</title>
<path fill="none" stroke="#226622" d="M411.62,-60.28C413.13,-80.06 415.41,-109.91 417.21,-133.49"/>
<polygon fill="#226622" stroke="#226622" points="413.73,-133.79 417.98,-143.49 420.7,-133.25 413.73,-133.79"/>
</g>
<!-- core_bus&#45;&gt;svc_av -->
<g id="edge29" class="edge">
<title>core_bus&#45;&gt;svc_av</title>
<path fill="none" stroke="#226622" d="M435.77,-60.12C449.77,-70.38 467.88,-81.8 486,-88 524.83,-101.29 539.06,-83.03 578,-96 605.71,-105.23 633.61,-122.08 655.41,-137.37"/>
<polygon fill="#226622" stroke="#226622" points="653.6,-140.37 663.76,-143.36 657.68,-134.69 653.6,-140.37"/>
</g>
<!-- svc_ipc -->
<g id="node27" class="node">
<title>svc_ipc</title>
<path fill="#a8d88d" stroke="black" d="M1208.5,-198.5C1208.5,-198.5 1003.5,-198.5 1003.5,-198.5 997.5,-198.5 991.5,-192.5 991.5,-186.5 991.5,-186.5 991.5,-155.5 991.5,-155.5 991.5,-149.5 997.5,-143.5 1003.5,-143.5 1003.5,-143.5 1208.5,-143.5 1208.5,-143.5 1214.5,-143.5 1220.5,-149.5 1220.5,-155.5 1220.5,-155.5 1220.5,-186.5 1220.5,-186.5 1220.5,-192.5 1214.5,-198.5 1208.5,-198.5"/>
<text text-anchor="middle" x="1106" y="-179.5" font-family="Helvetica,sans-Serif" font-size="10.00">IPCBridge</text>
<text text-anchor="middle" x="1106" y="-168.5" font-family="Helvetica,sans-Serif" font-size="10.00">ZMQ PUB ipc:///tmp/desktop&#45;assistant.pub</text>
<text text-anchor="middle" x="1106" y="-157.5" font-family="Helvetica,sans-Serif" font-size="10.00">ZMQ REP ipc:///tmp/desktop&#45;assistant.rep</text>
</g>
<!-- core_bus&#45;&gt;svc_ipc -->
<g id="edge31" class="edge">
<title>core_bus&#45;&gt;svc_ipc</title>
<path fill="none" stroke="#226622" d="M435.31,-60.24C449.32,-70.66 467.58,-82.2 486,-88 508.8,-95.18 677.16,-94.22 701,-96 762.55,-100.6 916.73,-113.72 977,-127 992.85,-130.49 1009.48,-135.21 1025.34,-140.24"/>
<polygon fill="#226622" stroke="#226622" points="1024.51,-143.65 1035.1,-143.4 1026.67,-136.99 1024.51,-143.65"/>
</g>
<!-- core_svc -->
<g id="node20" class="node">
<title>core_svc</title>
<path fill="#bdb1f5" stroke="black" d="M723,-60C723,-60 649,-60 649,-60 643,-60 637,-54 637,-48 637,-48 637,-28 637,-28 637,-22 643,-16 649,-16 649,-16 723,-16 723,-16 729,-16 735,-22 735,-28 735,-28 735,-48 735,-48 735,-54 729,-60 723,-60"/>
<text text-anchor="middle" x="686" y="-41" font-family="Helvetica,sans-Serif" font-size="10.00">Service base</text>
<text text-anchor="middle" x="686" y="-30" font-family="Helvetica,sans-Serif" font-size="10.00">(start/tick/stop)</text>
</g>
<!-- svc_thermal&#45;&gt;core_bus -->
<g id="edge22" class="edge">
<title>svc_thermal&#45;&gt;core_bus</title>
<path fill="none" stroke="#cc3333" d="M851.87,-133.33C846.96,-130.94 841.97,-128.78 837,-127 741.12,-92.73 711.32,-106.17 610,-96 582.53,-93.24 512.22,-96.65 486,-88 471.1,-83.09 456.25,-74.54 443.68,-65.95"/>
<polygon fill="#cc3333" stroke="#cc3333" points="445.55,-62.98 435.38,-60.04 441.49,-68.69 445.55,-62.98"/>
</g>
<!-- svc_thermal&#45;&gt;core_svc -->
<g id="edge33" class="edge">
<title>svc_thermal&#45;&gt;core_svc</title>
<path fill="none" stroke="#555555" stroke-dasharray="1,5" d="M851.67,-135.85C846.72,-132.84 841.77,-129.86 837,-127 801.84,-105.96 761.76,-82.63 731.73,-65.28"/>
<polygon fill="#555555" stroke="#555555" points="733.17,-62.07 722.75,-60.1 729.67,-68.13 733.17,-62.07"/>
<text text-anchor="middle" x="815.5" y="-98.6" font-family="Helvetica,sans-Serif" font-size="8.00">extends</text>
</g>
<!-- svc_motion&#45;&gt;core_bus -->
<g id="edge24" class="edge">
<title>svc_motion&#45;&gt;core_bus</title>
<path fill="none" stroke="#226622" d="M268.8,-143.26C283.09,-128.53 301.79,-110.38 320,-96 333.7,-85.18 349.54,-74.59 364.07,-65.53"/>
<polygon fill="#226622" stroke="#226622" points="366.23,-68.31 372.92,-60.1 362.57,-62.35 366.23,-68.31"/>
</g>
<!-- svc_motion&#45;&gt;core_svc -->
<g id="edge34" class="edge">
<title>svc_motion&#45;&gt;core_svc</title>
<path fill="none" stroke="#555555" stroke-dasharray="1,5" d="M298.02,-143.4C312.36,-137.21 328.03,-131.21 343,-127 358.07,-122.76 607.56,-94.04 622,-88 634.33,-82.84 646.36,-74.72 656.61,-66.56"/>
<polygon fill="#555555" stroke="#555555" points="658.96,-69.15 664.41,-60.06 654.49,-63.77 658.96,-69.15"/>
</g>
<!-- svc_vision&#45;&gt;core_bus -->
<g id="edge26" class="edge">
<title>svc_vision&#45;&gt;core_bus</title>
<path fill="none" stroke="#226622" d="M115.58,-137.82C138.87,-123.49 167.6,-107.32 195,-96 241.42,-76.83 296.18,-62.42 338.81,-52.89"/>
<polygon fill="#226622" stroke="#226622" points="339.8,-56.25 348.82,-50.69 338.3,-49.42 339.8,-56.25"/>
</g>
<!-- svc_vision&#45;&gt;core_svc -->
<g id="edge35" class="edge">
<title>svc_vision&#45;&gt;core_svc</title>
<path fill="none" stroke="#555555" stroke-dasharray="1,5" d="M118.11,-137.93C126.82,-133.61 135.97,-129.74 145,-127 299.52,-80.11 346.01,-108.49 507,-96 532.54,-94.02 598.04,-97.06 622,-88 634.7,-83.2 646.97,-74.99 657.31,-66.66"/>
<polygon fill="#555555" stroke="#555555" points="659.8,-69.14 665.16,-60.01 655.27,-63.8 659.8,-69.14"/>
</g>
<!-- svc_audio&#45;&gt;core_bus -->
<g id="edge28" class="edge">
<title>svc_audio&#45;&gt;core_bus</title>
<path fill="none" stroke="#226622" d="M416.77,-143.47C415.43,-131.7 413.97,-117.67 413,-105 412.13,-93.65 411.49,-81.17 411.02,-70.16"/>
<polygon fill="#226622" stroke="#226622" points="414.52,-69.98 410.63,-60.12 407.52,-70.25 414.52,-69.98"/>
</g>
<!-- svc_audio&#45;&gt;core_svc -->
<g id="edge36" class="edge">
<title>svc_audio&#45;&gt;core_svc</title>
<path fill="none" stroke="#555555" stroke-dasharray="1,5" d="M483.45,-149.2C524.3,-134.62 577.81,-113.27 622,-88 632.82,-81.81 643.86,-74 653.65,-66.44"/>
<polygon fill="#555555" stroke="#555555" points="655.88,-69.14 661.55,-60.19 651.54,-63.65 655.88,-69.14"/>
</g>
<!-- svc_av&#45;&gt;core_bus -->
<g id="edge30" class="edge">
<title>svc_av&#45;&gt;core_bus</title>
<path fill="none" stroke="#226622" d="M617.69,-143.49C577.41,-128.95 528.19,-109.52 486,-88 473.41,-81.58 460.27,-73.61 448.53,-65.98"/>
<polygon fill="#226622" stroke="#226622" points="450.13,-62.84 439.86,-60.24 446.27,-68.68 450.13,-62.84"/>
</g>
<!-- svc_av&#45;&gt;core_svc -->
<g id="edge37" class="edge">
<title>svc_av&#45;&gt;core_svc</title>
<path fill="none" stroke="#555555" stroke-dasharray="1,5" d="M694.77,-143.49C693,-122.32 690.5,-92.61 688.63,-70.28"/>
<polygon fill="#555555" stroke="#555555" points="692.11,-69.96 687.79,-60.28 685.14,-70.54 692.11,-69.96"/>
</g>
<!-- svc_ipc&#45;&gt;core_bus -->
<g id="edge32" class="edge">
<title>svc_ipc&#45;&gt;core_bus</title>
<path fill="none" stroke="#226622" d="M1033.63,-143.47C1015.33,-137.42 995.59,-131.48 977,-127 932.42,-116.27 818.67,-100.09 773,-96 741.23,-93.15 516.47,-97.44 486,-88 470.89,-83.32 455.9,-74.74 443.28,-66.04"/>
<polygon fill="#226622" stroke="#226622" points="445.11,-63.05 434.95,-60.06 441.03,-68.73 445.11,-63.05"/>
</g>
<!-- svc_ipc&#45;&gt;core_svc -->
<g id="edge38" class="edge">
<title>svc_ipc&#45;&gt;core_svc</title>
<path fill="none" stroke="#555555" stroke-dasharray="1,5" d="M1027.66,-143.5C1010.97,-137.96 993.42,-132.22 977,-127 896.88,-101.54 803.8,-73.69 744.91,-56.29"/>
<polygon fill="#555555" stroke="#555555" points="745.63,-52.85 735.04,-53.37 743.64,-59.56 745.63,-52.85"/>
</g>
<!-- ext_cli -->
<g id="node28" class="node">
<title>ext_cli</title>
<path fill="#ffe375" stroke="black" d="M1385,-312C1385,-312 1257,-312 1257,-312 1251,-312 1245,-306 1245,-300 1245,-300 1245,-280 1245,-280 1245,-274 1251,-268 1257,-268 1257,-268 1385,-268 1385,-268 1391,-268 1397,-274 1397,-280 1397,-280 1397,-300 1397,-300 1397,-306 1391,-312 1385,-312"/>
<text text-anchor="middle" x="1321" y="-293" font-family="Helvetica,sans-Serif" font-size="10.00">scripts/desktop&#45;assistant</text>
<text text-anchor="middle" x="1321" y="-282" font-family="Helvetica,sans-Serif" font-size="10.00">(CLI: pan / say / watch / ...)</text>
</g>
<!-- ext_cli&#45;&gt;svc_ipc -->
<g id="edge39" class="edge">
<title>ext_cli&#45;&gt;svc_ipc</title>
<path fill="none" stroke="#aa6600" d="M1282.07,-267.81C1249.02,-249.83 1201.13,-223.77 1163.64,-203.37"/>
<polygon fill="#aa6600" stroke="#aa6600" points="1165.29,-200.28 1154.83,-198.57 1161.94,-206.43 1165.29,-200.28"/>
<text text-anchor="middle" x="1267.5" y="-239.6" font-family="Helvetica,sans-Serif" font-size="8.00">ZMQ REQ/SUB</text>
</g>
<!-- ext_3p -->
<g id="node29" class="node">
<title>ext_3p</title>
<path fill="#ffe375" stroke="black" stroke-dasharray="5,2" d="M1600,-312C1600,-312 1438,-312 1438,-312 1432,-312 1426,-306 1426,-300 1426,-300 1426,-280 1426,-280 1426,-274 1432,-268 1438,-268 1438,-268 1600,-268 1600,-268 1606,-268 1612,-274 1612,-280 1612,-280 1612,-300 1612,-300 1612,-306 1606,-312 1600,-312"/>
<text text-anchor="middle" x="1519" y="-293" font-family="Helvetica,sans-Serif" font-size="10.00">3rd&#45;party subscribers</text>
<text text-anchor="middle" x="1519" y="-282" font-family="Helvetica,sans-Serif" font-size="10.00">(dashboards, future ML pipelines)</text>
</g>
<!-- ext_3p&#45;&gt;svc_ipc -->
<g id="edge40" class="edge">
<title>ext_3p&#45;&gt;svc_ipc</title>
<path fill="none" stroke="#aa6600" stroke-dasharray="5,2" d="M1444.69,-267.95C1379.01,-249.34 1282.56,-222.02 1209.36,-201.28"/>
<polygon fill="#aa6600" stroke="#aa6600" points="1210.22,-197.89 1199.65,-198.53 1208.32,-204.62 1210.22,-197.89"/>
<text text-anchor="middle" x="1379.5" y="-239.6" font-family="Helvetica,sans-Serif" font-size="8.00">ZMQ SUB</text>
</g>
</g>
</svg>
