<?xml version="1.0" encoding="UTF-8" standalone="no"?>
<!DOCTYPE svg PUBLIC "-//W3C//DTD SVG 1.1//EN"
 "http://www.w3.org/Graphics/SVG/1.1/DTD/svg11.dtd">
<!-- Generated by graphviz version 2.42.4 (0)
 -->
<!-- Title: DesktopAssistant Pages: 1 -->
<svg width="3999pt" height="930pt"
 viewBox="0.00 0.00 3999.01 930.00" xmlns="http://www.w3.org/2000/svg" xmlns:xlink="http://www.w3.org/1999/xlink">
<g id="graph0" class="graph" transform="scale(1 1) rotate(0) translate(4 926)">
<title>DesktopAssistant</title>
<polygon fill="white" stroke="transparent" points="-4,4 -4,-926 3995.01,-926 3995.01,4 -4,4"/>
<text text-anchor="start" x="1808.5" y="-906.2" font-family="Helvetica,sans-Serif" font-weight="bold" font-size="16.00">Desktop Assistant — System Architecture</text>
<text text-anchor="start" x="1755" y="-895" font-family="Helvetica,sans-Serif" font-size="10.00">v1.12.0 — 4 new skills · NotificationService · audio&#45;reactive head motion · speaking_motion config</text>
<g id="clust1" class="cluster">
<title>cluster_hw</title>
<path fill="#f5e9d8" stroke="black" d="M1754.51,-769C1754.51,-769 2781.51,-769 2781.51,-769 2787.51,-769 2793.51,-775 2793.51,-781 2793.51,-781 2793.51,-868 2793.51,-868 2793.51,-874 2787.51,-880 2781.51,-880 2781.51,-880 1754.51,-880 1754.51,-880 1748.51,-880 1742.51,-874 1742.51,-868 1742.51,-868 1742.51,-781 1742.51,-781 1742.51,-775 1748.51,-769 1754.51,-769"/>
<text text-anchor="middle" x="2268.01" y="-867.2" font-family="Helvetica,sans-Serif" font-size="11.00">Hardware (Raspberry Pi 5)</text>
</g>
<g id="clust2" class="cluster">
<title>cluster_drv</title>
<path fill="#dfeefc" stroke="black" d="M1745.51,-392C1745.51,-392 2960.51,-392 2960.51,-392 2966.51,-392 2972.51,-398 2972.51,-404 2972.51,-404 2972.51,-726 2972.51,-726 2972.51,-732 2966.51,-738 2960.51,-738 2960.51,-738 1745.51,-738 1745.51,-738 1739.51,-738 1733.51,-732 1733.51,-726 1733.51,-726 1733.51,-404 1733.51,-404 1733.51,-398 1739.51,-392 1745.51,-392"/>
<text text-anchor="middle" x="2353.01" y="-725.2" font-family="Helvetica,sans-Serif" font-size="11.00">Drivers (src/)</text>
</g>
<g id="clust3" class="cluster">
<title>cluster_core</title>
<path fill="#e7e3fb" stroke="black" d="M1477.51,-8C1477.51,-8 2243.51,-8 2243.51,-8 2249.51,-8 2255.51,-14 2255.51,-20 2255.51,-20 2255.51,-107 2255.51,-107 2255.51,-113 2249.51,-119 2243.51,-119 2243.51,-119 1477.51,-119 1477.51,-119 1471.51,-119 1465.51,-113 1465.51,-107 1465.51,-107 1465.51,-20 1465.51,-20 1465.51,-14 1471.51,-8 1477.51,-8"/>
<text text-anchor="middle" x="1860.51" y="-106.2" font-family="Helvetica,sans-Serif" font-size="11.00">Core (src/core/)</text>
</g>
<g id="clust4" class="cluster">
<title>cluster_svc_thermal</title>
<path fill="#fde0e0" stroke="black" d="M1529.51,-214C1529.51,-214 1767.51,-214 1767.51,-214 1773.51,-214 1779.51,-220 1779.51,-226 1779.51,-226 1779.51,-313 1779.51,-313 1779.51,-319 1773.51,-325 1767.51,-325 1767.51,-325 1529.51,-325 1529.51,-325 1523.51,-325 1517.51,-319 1517.51,-313 1517.51,-313 1517.51,-226 1517.51,-226 1517.51,-220 1523.51,-214 1529.51,-214"/>
<text text-anchor="middle" x="1648.51" y="-312.2" font-family="Helvetica,sans-Serif" font-size="11.00">systemd: desktop&#45;assistant&#45;thermal.service</text>
</g>
<g id="clust6" class="cluster">
<title>cluster_ext</title>
<path fill="#fff7c2" stroke="black" d="M939.51,-377C939.51,-377 1713.51,-377 1713.51,-377 1719.51,-377 1725.51,-383 1725.51,-389 1725.51,-389 1725.51,-487 1725.51,-487 1725.51,-493 1719.51,-499 1713.51,-499 1713.51,-499 939.51,-499 939.51,-499 933.51,-499 927.51,-493 927.51,-487 927.51,-487 927.51,-389 927.51,-389 927.51,-383 933.51,-377 939.51,-377"/>
<text text-anchor="middle" x="1326.51" y="-486.2" font-family="Helvetica,sans-Serif" font-size="11.00">External processes</text>
</g>
<!-- hw_tmp117 -->
<g id="node1" class="node">
<title>hw_tmp117</title>
<path fill="#ffd6a5" stroke="black" d="M2489.01,-826.5C2489.01,-826.5 2442.01,-826.5 2442.01,-826.5 2436.01,-826.5 2430.01,-820.5 2430.01,-814.5 2430.01,-814.5 2430.01,-794.5 2430.01,-794.5 2430.01,-788.5 2436.01,-782.5 2442.01,-782.5 2442.01,-782.5 2489.01,-782.5 2489.01,-782.5 2495.01,-782.5 2501.01,-788.5 2501.01,-794.5 2501.01,-794.5 2501.01,-814.5 2501.01,-814.5 2501.01,-820.5 2495.01,-826.5 2489.01,-826.5"/>
<text text-anchor="middle" x="2465.51" y="-807.5" font-family="Helvetica,sans-Serif" font-size="10.00">TMP117</text>
<text text-anchor="middle" x="2465.51" y="-796.5" font-family="Helvetica,sans-Serif" font-size="10.00">(I²C 0x48)</text>
</g>
<!-- drv_tmp117 -->
<g id="node8" class="node">
<title>drv_tmp117</title>
<path fill="#a5c8ff" stroke="black" d="M2568.51,-680.5C2568.51,-680.5 2476.51,-680.5 2476.51,-680.5 2470.51,-680.5 2464.51,-674.5 2464.51,-668.5 2464.51,-668.5 2464.51,-656.5 2464.51,-656.5 2464.51,-650.5 2470.51,-644.5 2476.51,-644.5 2476.51,-644.5 2568.51,-644.5 2568.51,-644.5 2574.51,-644.5 2580.51,-650.5 2580.51,-656.5 2580.51,-656.5 2580.51,-668.5 2580.51,-668.5 2580.51,-674.5 2574.51,-680.5 2568.51,-680.5"/>
<text text-anchor="middle" x="2522.51" y="-660" font-family="Helvetica,sans-Serif" font-size="10.00">thermal/tmp117.py</text>
</g>
<!-- hw_tmp117&#45;&gt;drv_tmp117 -->
<g id="edge1" class="edge">
<title>hw_tmp117&#45;&gt;drv_tmp117</title>
<path fill="none" stroke="#555555" d="M2474.16,-782.24C2484.21,-757.55 2500.8,-716.8 2511.69,-690.05"/>
<polygon fill="#555555" stroke="#555555" points="2515.03,-691.13 2515.56,-680.55 2508.55,-688.49 2515.03,-691.13"/>
<text text-anchor="middle" x="2494.01" y="-748.6" font-family="Helvetica,sans-Serif" font-size="8.00">I²C</text>
</g>
<!-- hw_fan -->
<g id="node2" class="node">
<title>hw_fan</title>
<path fill="#ffd6a5" stroke="black" d="M2388.51,-832C2388.51,-832 2186.51,-832 2186.51,-832 2180.51,-832 2174.51,-826 2174.51,-820 2174.51,-820 2174.51,-789 2174.51,-789 2174.51,-783 2180.51,-777 2186.51,-777 2186.51,-777 2388.51,-777 2388.51,-777 2394.51,-777 2400.51,-783 2400.51,-789 2400.51,-789 2400.51,-820 2400.51,-820 2400.51,-826 2394.51,-832 2388.51,-832"/>
<text text-anchor="middle" x="2287.51" y="-813" font-family="Helvetica,sans-Serif" font-size="10.00">NF&#45;A6x25 PWM Fan</text>
<text text-anchor="middle" x="2287.51" y="-802" font-family="Helvetica,sans-Serif" font-size="10.00">PWM ← GPIO13 (kernel HW PWM, 25 kHz)</text>
<text text-anchor="middle" x="2287.51" y="-791" font-family="Helvetica,sans-Serif" font-size="10.00">TACH → GPIO6 (2 ppr)</text>
</g>
<!-- drv_fan -->
<g id="node9" class="node">
<title>drv_fan</title>
<path fill="#a5c8ff" stroke="black" d="M2423.51,-690C2423.51,-690 2343.51,-690 2343.51,-690 2337.51,-690 2331.51,-684 2331.51,-678 2331.51,-678 2331.51,-647 2331.51,-647 2331.51,-641 2337.51,-635 2343.51,-635 2343.51,-635 2423.51,-635 2423.51,-635 2429.51,-635 2435.51,-641 2435.51,-647 2435.51,-647 2435.51,-678 2435.51,-678 2435.51,-684 2429.51,-690 2423.51,-690"/>
<text text-anchor="middle" x="2383.51" y="-671" font-family="Helvetica,sans-Serif" font-size="10.00">thermal/fan.py</text>
<text text-anchor="middle" x="2383.51" y="-660" font-family="Helvetica,sans-Serif" font-size="10.00">(sysfs HW PWM</text>
<text text-anchor="middle" x="2383.51" y="-649" font-family="Helvetica,sans-Serif" font-size="10.00">+ lgpio fallback)</text>
</g>
<!-- hw_fan&#45;&gt;drv_fan -->
<g id="edge2" class="edge">
<title>hw_fan&#45;&gt;drv_fan</title>
<path fill="none" stroke="#555555" d="M2305.79,-776.84C2321.07,-754.55 2342.97,-722.61 2359.64,-698.31"/>
<polygon fill="#555555" stroke="#555555" points="2362.52,-700.29 2365.29,-690.06 2356.75,-696.33 2362.52,-700.29"/>
<text text-anchor="middle" x="2336.51" y="-748.6" font-family="Helvetica,sans-Serif" font-size="8.00">PWM</text>
</g>
<!-- drv_tach -->
<g id="node10" class="node">
<title>drv_tach</title>
<path fill="#a5c8ff" stroke="black" d="M2290.01,-684.5C2290.01,-684.5 2193.01,-684.5 2193.01,-684.5 2187.01,-684.5 2181.01,-678.5 2181.01,-672.5 2181.01,-672.5 2181.01,-652.5 2181.01,-652.5 2181.01,-646.5 2187.01,-640.5 2193.01,-640.5 2193.01,-640.5 2290.01,-640.5 2290.01,-640.5 2296.01,-640.5 2302.01,-646.5 2302.01,-652.5 2302.01,-652.5 2302.01,-672.5 2302.01,-672.5 2302.01,-678.5 2296.01,-684.5 2290.01,-684.5"/>
<text text-anchor="middle" x="2241.51" y="-665.5" font-family="Helvetica,sans-Serif" font-size="10.00">thermal/fan_tach.py</text>
<text text-anchor="middle" x="2241.51" y="-654.5" font-family="Helvetica,sans-Serif" font-size="10.00">(lgpio edge cb)</text>
</g>
<!-- hw_fan&#45;&gt;drv_tach -->
<g id="edge3" class="edge">
<title>hw_fan&#45;&gt;drv_tach</title>
<path fill="none" stroke="#555555" d="M2278.74,-776.84C2271,-753.27 2259.71,-718.9 2251.59,-694.19"/>
<polygon fill="#555555" stroke="#555555" points="2254.88,-692.99 2248.43,-684.58 2248.23,-695.17 2254.88,-692.99"/>
<text text-anchor="middle" x="2280.01" y="-748.6" font-family="Helvetica,sans-Serif" font-size="8.00">tach</text>
</g>
<!-- hw_servo -->
<g id="node3" class="node">
<title>hw_servo</title>
<path fill="#ffd6a5" stroke="black" d="M2133.51,-826.5C2133.51,-826.5 2057.51,-826.5 2057.51,-826.5 2051.51,-826.5 2045.51,-820.5 2045.51,-814.5 2045.51,-814.5 2045.51,-794.5 2045.51,-794.5 2045.51,-788.5 2051.51,-782.5 2057.51,-782.5 2057.51,-782.5 2133.51,-782.5 2133.51,-782.5 2139.51,-782.5 2145.51,-788.5 2145.51,-794.5 2145.51,-794.5 2145.51,-814.5 2145.51,-814.5 2145.51,-820.5 2139.51,-826.5 2133.51,-826.5"/>
<text text-anchor="middle" x="2095.51" y="-807.5" font-family="Helvetica,sans-Serif" font-size="10.00">DS3218 Servo</text>
<text text-anchor="middle" x="2095.51" y="-796.5" font-family="Helvetica,sans-Serif" font-size="10.00">(PCA9685 ch15)</text>
</g>
<!-- drv_servo -->
<g id="node12" class="node">
<title>drv_servo</title>
<path fill="#a5c8ff" stroke="black" d="M2140.01,-680.5C2140.01,-680.5 2011.01,-680.5 2011.01,-680.5 2005.01,-680.5 1999.01,-674.5 1999.01,-668.5 1999.01,-668.5 1999.01,-656.5 1999.01,-656.5 1999.01,-650.5 2005.01,-644.5 2011.01,-644.5 2011.01,-644.5 2140.01,-644.5 2140.01,-644.5 2146.01,-644.5 2152.01,-650.5 2152.01,-656.5 2152.01,-656.5 2152.01,-668.5 2152.01,-668.5 2152.01,-674.5 2146.01,-680.5 2140.01,-680.5"/>
<text text-anchor="middle" x="2075.51" y="-660" font-family="Helvetica,sans-Serif" font-size="10.00">motion/servo_controller.py</text>
</g>
<!-- hw_servo&#45;&gt;drv_servo -->
<g id="edge4" class="edge">
<title>hw_servo&#45;&gt;drv_servo</title>
<path fill="none" stroke="#555555" d="M2092.47,-782.24C2088.97,-757.77 2083.22,-717.52 2079.4,-690.76"/>
<polygon fill="#555555" stroke="#555555" points="2082.82,-689.95 2077.94,-680.55 2075.89,-690.94 2082.82,-689.95"/>
<text text-anchor="middle" x="2104.51" y="-748.6" font-family="Helvetica,sans-Serif" font-size="8.00">I²C/PWM</text>
</g>
<!-- hw_cam -->
<g id="node4" class="node">
<title>hw_cam</title>
<path fill="#ffd6a5" stroke="black" d="M1872.01,-826.5C1872.01,-826.5 1763.01,-826.5 1763.01,-826.5 1757.01,-826.5 1751.01,-820.5 1751.01,-814.5 1751.01,-814.5 1751.01,-794.5 1751.01,-794.5 1751.01,-788.5 1757.01,-782.5 1763.01,-782.5 1763.01,-782.5 1872.01,-782.5 1872.01,-782.5 1878.01,-782.5 1884.01,-788.5 1884.01,-794.5 1884.01,-794.5 1884.01,-814.5 1884.01,-814.5 1884.01,-820.5 1878.01,-826.5 1872.01,-826.5"/>
<text text-anchor="middle" x="1817.51" y="-807.5" font-family="Helvetica,sans-Serif" font-size="10.00">Pi Cam Module 3 Wide</text>
<text text-anchor="middle" x="1817.51" y="-796.5" font-family="Helvetica,sans-Serif" font-size="10.00">(CSI&#45;0)</text>
</g>
<!-- drv_cam -->
<g id="node13" class="node">
<title>drv_cam</title>
<path fill="#a5c8ff" stroke="black" d="M1836.01,-684.5C1836.01,-684.5 1753.01,-684.5 1753.01,-684.5 1747.01,-684.5 1741.01,-678.5 1741.01,-672.5 1741.01,-672.5 1741.01,-652.5 1741.01,-652.5 1741.01,-646.5 1747.01,-640.5 1753.01,-640.5 1753.01,-640.5 1836.01,-640.5 1836.01,-640.5 1842.01,-640.5 1848.01,-646.5 1848.01,-652.5 1848.01,-652.5 1848.01,-672.5 1848.01,-672.5 1848.01,-678.5 1842.01,-684.5 1836.01,-684.5"/>
<text text-anchor="middle" x="1794.51" y="-665.5" font-family="Helvetica,sans-Serif" font-size="10.00">vision/camera.py</text>
<text text-anchor="middle" x="1794.51" y="-654.5" font-family="Helvetica,sans-Serif" font-size="10.00">(picamera2)</text>
</g>
<!-- hw_cam&#45;&gt;drv_cam -->
<g id="edge5" class="edge">
<title>hw_cam&#45;&gt;drv_cam</title>
<path fill="none" stroke="#555555" d="M1814.01,-782.24C1810.17,-758.87 1803.97,-721.12 1799.59,-694.47"/>
<polygon fill="#555555" stroke="#555555" points="1803.03,-693.8 1797.96,-684.5 1796.12,-694.94 1803.03,-693.8"/>
<text text-anchor="middle" x="1815.01" y="-748.6" font-family="Helvetica,sans-Serif" font-size="8.00">CSI</text>
</g>
<!-- hw_mic -->
<g id="node5" class="node">
<title>hw_mic</title>
<path fill="#ffd6a5" stroke="black" d="M2004.01,-822.5C2004.01,-822.5 1925.01,-822.5 1925.01,-822.5 1919.01,-822.5 1913.01,-816.5 1913.01,-810.5 1913.01,-810.5 1913.01,-798.5 1913.01,-798.5 1913.01,-792.5 1919.01,-786.5 1925.01,-786.5 1925.01,-786.5 2004.01,-786.5 2004.01,-786.5 2010.01,-786.5 2016.01,-792.5 2016.01,-798.5 2016.01,-798.5 2016.01,-810.5 2016.01,-810.5 2016.01,-816.5 2010.01,-822.5 2004.01,-822.5"/>
<text text-anchor="middle" x="1964.51" y="-802" font-family="Helvetica,sans-Serif" font-size="10.00">USB Microphone</text>
</g>
<!-- drv_ain -->
<g id="node15" class="node">
<title>drv_ain</title>
<path fill="#a5c8ff" stroke="black" d="M1957.51,-680.5C1957.51,-680.5 1889.51,-680.5 1889.51,-680.5 1883.51,-680.5 1877.51,-674.5 1877.51,-668.5 1877.51,-668.5 1877.51,-656.5 1877.51,-656.5 1877.51,-650.5 1883.51,-644.5 1889.51,-644.5 1889.51,-644.5 1957.51,-644.5 1957.51,-644.5 1963.51,-644.5 1969.51,-650.5 1969.51,-656.5 1969.51,-656.5 1969.51,-668.5 1969.51,-668.5 1969.51,-674.5 1963.51,-680.5 1957.51,-680.5"/>
<text text-anchor="middle" x="1923.51" y="-660" font-family="Helvetica,sans-Serif" font-size="10.00">audio/input.py</text>
</g>
<!-- hw_mic&#45;&gt;drv_ain -->
<g id="edge6" class="edge">
<title>hw_mic&#45;&gt;drv_ain</title>
<path fill="none" stroke="#555555" d="M1959.48,-786.33C1952.47,-762.4 1939.69,-718.78 1931.41,-690.48"/>
<polygon fill="#555555" stroke="#555555" points="1934.74,-689.42 1928.57,-680.81 1928.03,-691.39 1934.74,-689.42"/>
<text text-anchor="middle" x="1958.01" y="-748.6" font-family="Helvetica,sans-Serif" font-size="8.00">USB</text>
</g>
<!-- hw_spk -->
<g id="node6" class="node">
<title>hw_spk</title>
<path fill="#ffd6a5" stroke="black" d="M2773.01,-826.5C2773.01,-826.5 2672.01,-826.5 2672.01,-826.5 2666.01,-826.5 2660.01,-820.5 2660.01,-814.5 2660.01,-814.5 2660.01,-794.5 2660.01,-794.5 2660.01,-788.5 2666.01,-782.5 2672.01,-782.5 2672.01,-782.5 2773.01,-782.5 2773.01,-782.5 2779.01,-782.5 2785.01,-788.5 2785.01,-794.5 2785.01,-794.5 2785.01,-814.5 2785.01,-814.5 2785.01,-820.5 2779.01,-826.5 2773.01,-826.5"/>
<text text-anchor="middle" x="2722.51" y="-807.5" font-family="Helvetica,sans-Serif" font-size="10.00">Sabrent USB Audio →</text>
<text text-anchor="middle" x="2722.51" y="-796.5" font-family="Helvetica,sans-Serif" font-size="10.00">8 Ω stereo speakers</text>
</g>
<!-- drv_aout -->
<g id="node14" class="node">
<title>drv_aout</title>
<path fill="#a5c8ff" stroke="black" d="M2942.01,-436C2942.01,-436 2867.01,-436 2867.01,-436 2861.01,-436 2855.01,-430 2855.01,-424 2855.01,-424 2855.01,-412 2855.01,-412 2855.01,-406 2861.01,-400 2867.01,-400 2867.01,-400 2942.01,-400 2942.01,-400 2948.01,-400 2954.01,-406 2954.01,-412 2954.01,-412 2954.01,-424 2954.01,-424 2954.01,-430 2948.01,-436 2942.01,-436"/>
<text text-anchor="middle" x="2904.51" y="-415.5" font-family="Helvetica,sans-Serif" font-size="10.00">audio/output.py</text>
</g>
<!-- hw_spk&#45;&gt;drv_aout -->
<g id="edge7" class="edge">
<title>hw_spk&#45;&gt;drv_aout</title>
<path fill="none" stroke="#555555" d="M2785.23,-796.3C2853.43,-787.04 2955.88,-768.4 2979.51,-738 3049.57,-647.84 2963.68,-502.98 2923.3,-444.61"/>
<polygon fill="#555555" stroke="#555555" points="2926.09,-442.48 2917.47,-436.32 2920.36,-446.51 2926.09,-442.48"/>
<text text-anchor="middle" x="3009.01" y="-606.6" font-family="Helvetica,sans-Serif" font-size="8.00">USB</text>
</g>
<!-- hw_hailo -->
<g id="node7" class="node">
<title>hw_hailo</title>
<path fill="#ffd6a5" stroke="black" d="M2619.01,-826.5C2619.01,-826.5 2542.01,-826.5 2542.01,-826.5 2536.01,-826.5 2530.01,-820.5 2530.01,-814.5 2530.01,-814.5 2530.01,-794.5 2530.01,-794.5 2530.01,-788.5 2536.01,-782.5 2542.01,-782.5 2542.01,-782.5 2619.01,-782.5 2619.01,-782.5 2625.01,-782.5 2631.01,-788.5 2631.01,-794.5 2631.01,-794.5 2631.01,-814.5 2631.01,-814.5 2631.01,-820.5 2625.01,-826.5 2619.01,-826.5"/>
<text text-anchor="middle" x="2580.51" y="-807.5" font-family="Helvetica,sans-Serif" font-size="10.00">Hailo&#45;8 AI HAT+</text>
<text text-anchor="middle" x="2580.51" y="-796.5" font-family="Helvetica,sans-Serif" font-size="10.00">(26 TOPS, PCIe)</text>
</g>
<!-- drv_hailo -->
<g id="node18" class="node">
<title>drv_hailo</title>
<path fill="#a5c8ff" stroke="black" d="M2765.01,-684.5C2765.01,-684.5 2622.01,-684.5 2622.01,-684.5 2616.01,-684.5 2610.01,-678.5 2610.01,-672.5 2610.01,-672.5 2610.01,-652.5 2610.01,-652.5 2610.01,-646.5 2616.01,-640.5 2622.01,-640.5 2622.01,-640.5 2765.01,-640.5 2765.01,-640.5 2771.01,-640.5 2777.01,-646.5 2777.01,-652.5 2777.01,-652.5 2777.01,-672.5 2777.01,-672.5 2777.01,-678.5 2771.01,-684.5 2765.01,-684.5"/>
<text text-anchor="middle" x="2693.51" y="-665.5" font-family="Helvetica,sans-Serif" font-size="10.00">perception/hailo_inference.py</text>
<text text-anchor="middle" x="2693.51" y="-654.5" font-family="Helvetica,sans-Serif" font-size="10.00">(VDevice wrapper)</text>
</g>
<!-- hw_hailo&#45;&gt;drv_hailo -->
<g id="edge8" class="edge">
<title>hw_hailo&#45;&gt;drv_hailo</title>
<path fill="none" stroke="#555555" d="M2597.67,-782.24C2617.03,-758.25 2648.62,-719.11 2670.2,-692.37"/>
<polygon fill="#555555" stroke="#555555" points="2672.99,-694.48 2676.55,-684.5 2667.55,-690.09 2672.99,-694.48"/>
<text text-anchor="middle" x="2635.51" y="-748.6" font-family="Helvetica,sans-Serif" font-size="8.00">PCIe</text>
</g>
<!-- drv_thmgr -->
<g id="node11" class="node">
<title>drv_thmgr</title>
<path fill="#a5c8ff" stroke="black" d="M2321.01,-578C2321.01,-578 2180.01,-578 2180.01,-578 2174.01,-578 2168.01,-572 2168.01,-566 2168.01,-566 2168.01,-554 2168.01,-554 2168.01,-548 2174.01,-542 2180.01,-542 2180.01,-542 2321.01,-542 2321.01,-542 2327.01,-542 2333.01,-548 2333.01,-554 2333.01,-554 2333.01,-566 2333.01,-566 2333.01,-572 2327.01,-578 2321.01,-578"/>
<text text-anchor="middle" x="2250.51" y="-557.5" font-family="Helvetica,sans-Serif" font-size="10.00">thermal/thermal_manager.py</text>
</g>
<!-- drv_tmp117&#45;&gt;drv_thmgr -->
<g id="edge11" class="edge">
<title>drv_tmp117&#45;&gt;drv_thmgr</title>
<path fill="none" stroke="#555555" d="M2476.36,-644.45C2429.38,-627.09 2356.48,-600.16 2306.28,-581.61"/>
<polygon fill="#555555" stroke="#555555" points="2307.47,-578.31 2296.87,-578.13 2305.04,-584.88 2307.47,-578.31"/>
</g>
<!-- drv_fan&#45;&gt;drv_thmgr -->
<g id="edge12" class="edge">
<title>drv_fan&#45;&gt;drv_thmgr</title>
<path fill="none" stroke="#555555" d="M2348.21,-634.83C2327.47,-619.16 2301.5,-599.53 2281.54,-584.45"/>
<polygon fill="#555555" stroke="#555555" points="2283.48,-581.53 2273.39,-578.29 2279.26,-587.11 2283.48,-581.53"/>
</g>
<!-- drv_tach&#45;&gt;drv_thmgr -->
<g id="edge13" class="edge">
<title>drv_tach&#45;&gt;drv_thmgr</title>
<path fill="none" stroke="#555555" d="M2243.41,-640.19C2244.77,-625.06 2246.6,-604.63 2248.06,-588.31"/>
<polygon fill="#555555" stroke="#555555" points="2251.55,-588.55 2248.96,-578.28 2244.58,-587.92 2251.55,-588.55"/>
</g>
<!-- svc_thermal -->
<g id="node26" class="node">
<title>svc_thermal</title>
<path fill="#f4a3a3" stroke="black" d="M141.51,-293.5C141.51,-293.5 55.51,-293.5 55.51,-293.5 49.51,-293.5 43.51,-287.5 43.51,-281.5 43.51,-281.5 43.51,-217.5 43.51,-217.5 43.51,-211.5 49.51,-205.5 55.51,-205.5 55.51,-205.5 141.51,-205.5 141.51,-205.5 147.51,-205.5 153.51,-211.5 153.51,-217.5 153.51,-217.5 153.51,-281.5 153.51,-281.5 153.51,-287.5 147.51,-293.5 141.51,-293.5"/>
<text text-anchor="middle" x="98.51" y="-274.5" font-family="Helvetica,sans-Serif" font-size="10.00">ThermalService</text>
<text text-anchor="middle" x="98.51" y="-263.5" font-family="Helvetica,sans-Serif" font-size="10.00">— thermal.temp</text>
<text text-anchor="middle" x="98.51" y="-252.5" font-family="Helvetica,sans-Serif" font-size="10.00">— thermal.fan</text>
<text text-anchor="middle" x="98.51" y="-241.5" font-family="Helvetica,sans-Serif" font-size="10.00">— thermal.rpm</text>
<text text-anchor="middle" x="98.51" y="-230.5" font-family="Helvetica,sans-Serif" font-size="10.00">— thermal.critical</text>
<text text-anchor="middle" x="98.51" y="-219.5" font-family="Helvetica,sans-Serif" font-size="10.00">— thermal.error</text>
</g>
<!-- drv_thmgr&#45;&gt;svc_thermal -->
<g id="edge17" class="edge">
<title>drv_thmgr&#45;&gt;svc_thermal</title>
<path fill="none" stroke="#555555" d="M2168,-557.7C1856.06,-552.56 758.57,-532.27 605.51,-499 401.92,-454.75 337.52,-452.42 167.51,-332 155.58,-323.55 144.46,-312.59 134.78,-301.45"/>
<polygon fill="#555555" stroke="#555555" points="137.42,-299.15 128.31,-293.74 132.05,-303.65 137.42,-299.15"/>
</g>
<!-- svc_motion -->
<g id="node28" class="node">
<title>svc_motion</title>
<path fill="#a8d88d" stroke="black" d="M650.51,-277C650.51,-277 506.51,-277 506.51,-277 500.51,-277 494.51,-271 494.51,-265 494.51,-265 494.51,-234 494.51,-234 494.51,-228 500.51,-222 506.51,-222 506.51,-222 650.51,-222 650.51,-222 656.51,-222 662.51,-228 662.51,-234 662.51,-234 662.51,-265 662.51,-265 662.51,-271 656.51,-277 650.51,-277"/>
<text text-anchor="middle" x="578.51" y="-258" font-family="Helvetica,sans-Serif" font-size="10.00">MotionService</text>
<text text-anchor="middle" x="578.51" y="-247" font-family="Helvetica,sans-Serif" font-size="10.00">← motion.pan_to / relax / stop</text>
<text text-anchor="middle" x="578.51" y="-236" font-family="Helvetica,sans-Serif" font-size="10.00">→ motion.position / moved</text>
</g>
<!-- drv_servo&#45;&gt;svc_motion -->
<g id="edge18" class="edge">
<title>drv_servo&#45;&gt;svc_motion</title>
<path fill="none" stroke="#555555" d="M2023.47,-644.47C2010.83,-640.86 1997.28,-637.41 1984.51,-635 1404.37,-525.51 1241.01,-628.78 661.51,-516 635.97,-511.03 622.19,-518.95 605.51,-499 555.39,-439.08 562.4,-340.57 570.98,-287.36"/>
<polygon fill="#555555" stroke="#555555" points="574.46,-287.79 572.7,-277.34 567.56,-286.61 574.46,-287.79"/>
</g>
<!-- svc_vision -->
<g id="node29" class="node">
<title>svc_vision</title>
<path fill="#a8d88d" stroke="black" d="M298.51,-282.5C298.51,-282.5 194.51,-282.5 194.51,-282.5 188.51,-282.5 182.51,-276.5 182.51,-270.5 182.51,-270.5 182.51,-228.5 182.51,-228.5 182.51,-222.5 188.51,-216.5 194.51,-216.5 194.51,-216.5 298.51,-216.5 298.51,-216.5 304.51,-216.5 310.51,-222.5 310.51,-228.5 310.51,-228.5 310.51,-270.5 310.51,-270.5 310.51,-276.5 304.51,-282.5 298.51,-282.5"/>
<text text-anchor="middle" x="246.51" y="-263.5" font-family="Helvetica,sans-Serif" font-size="10.00">VisionService</text>
<text text-anchor="middle" x="246.51" y="-252.5" font-family="Helvetica,sans-Serif" font-size="10.00">→ vision.frame_ready</text>
<text text-anchor="middle" x="246.51" y="-241.5" font-family="Helvetica,sans-Serif" font-size="10.00">← vision.capture_still</text>
<text text-anchor="middle" x="246.51" y="-230.5" font-family="Helvetica,sans-Serif" font-size="10.00">+ latest_frame()</text>
</g>
<!-- drv_cam&#45;&gt;svc_vision -->
<g id="edge21" class="edge">
<title>drv_cam&#45;&gt;svc_vision</title>
<path fill="none" stroke="#555555" d="M1740.82,-661.19C1538.63,-659.52 823.54,-648.91 607.51,-582 533.61,-559.11 514.39,-547.97 454.51,-499 378.59,-436.92 309.63,-344.18 273.34,-291.31"/>
<polygon fill="#555555" stroke="#555555" points="276.11,-289.16 267.59,-282.86 270.33,-293.1 276.11,-289.16"/>
</g>
<!-- svc_av -->
<g id="node31" class="node">
<title>svc_av</title>
<path fill="#a8d88d" stroke="black" d="M3130.01,-277C3130.01,-277 2867.01,-277 2867.01,-277 2861.01,-277 2855.01,-271 2855.01,-265 2855.01,-265 2855.01,-234 2855.01,-234 2855.01,-228 2861.01,-222 2867.01,-222 2867.01,-222 3130.01,-222 3130.01,-222 3136.01,-222 3142.01,-228 3142.01,-234 3142.01,-234 3142.01,-265 3142.01,-265 3142.01,-271 3136.01,-277 3130.01,-277"/>
<text text-anchor="middle" x="2998.51" y="-258" font-family="Helvetica,sans-Serif" font-size="10.00">AVService</text>
<text text-anchor="middle" x="2998.51" y="-247" font-family="Helvetica,sans-Serif" font-size="10.00">← av.say / beep / utterance / announce_version</text>
<text text-anchor="middle" x="2998.51" y="-236" font-family="Helvetica,sans-Serif" font-size="10.00">→ av.spoke / av.speaking_started / version_announced</text>
</g>
<!-- drv_aout&#45;&gt;svc_av -->
<g id="edge23" class="edge">
<title>drv_aout&#45;&gt;svc_av</title>
<path fill="none" stroke="#555555" d="M2892.37,-399.78C2884.88,-386.9 2877.86,-369 2884.51,-354 2897.28,-325.14 2922.53,-300.88 2946.02,-283.12"/>
<polygon fill="#555555" stroke="#555555" points="2948.23,-285.84 2954.23,-277.12 2944.09,-280.19 2948.23,-285.84"/>
</g>
<!-- svc_audio -->
<g id="node30" class="node">
<title>svc_audio</title>
<path fill="#a8d88d" stroke="black" d="M453.51,-277C453.51,-277 351.51,-277 351.51,-277 345.51,-277 339.51,-271 339.51,-265 339.51,-265 339.51,-234 339.51,-234 339.51,-228 345.51,-222 351.51,-222 351.51,-222 453.51,-222 453.51,-222 459.51,-222 465.51,-228 465.51,-234 465.51,-234 465.51,-265 465.51,-265 465.51,-271 459.51,-277 453.51,-277"/>
<text text-anchor="middle" x="402.51" y="-258" font-family="Helvetica,sans-Serif" font-size="10.00">AudioCaptureService</text>
<text text-anchor="middle" x="402.51" y="-247" font-family="Helvetica,sans-Serif" font-size="10.00">→ audio.level / chunk</text>
<text text-anchor="middle" x="402.51" y="-236" font-family="Helvetica,sans-Serif" font-size="10.00">+ latest_chunk()</text>
</g>
<!-- drv_ain&#45;&gt;svc_audio -->
<g id="edge22" class="edge">
<title>drv_ain&#45;&gt;svc_audio</title>
<path fill="none" stroke="#555555" d="M1890.05,-644.4C1881.3,-640.65 1871.73,-637.15 1862.51,-635 1393.65,-525.52 1252.12,-678.89 780.51,-582 676.92,-560.72 639.42,-565.88 557.51,-499 486.13,-440.72 438.13,-340.43 416.18,-286.81"/>
<polygon fill="#555555" stroke="#555555" points="419.36,-285.33 412.39,-277.36 412.87,-287.94 419.36,-285.33"/>
</g>
<!-- drv_tts -->
<g id="node16" class="node">
<title>drv_tts</title>
<path fill="#a5c8ff" stroke="black" d="M2914.01,-582C2914.01,-582 2857.01,-582 2857.01,-582 2851.01,-582 2845.01,-576 2845.01,-570 2845.01,-570 2845.01,-550 2845.01,-550 2845.01,-544 2851.01,-538 2857.01,-538 2857.01,-538 2914.01,-538 2914.01,-538 2920.01,-538 2926.01,-544 2926.01,-550 2926.01,-550 2926.01,-570 2926.01,-570 2926.01,-576 2920.01,-582 2914.01,-582"/>
<text text-anchor="middle" x="2885.51" y="-563" font-family="Helvetica,sans-Serif" font-size="10.00">audio/tts.py</text>
<text text-anchor="middle" x="2885.51" y="-552" font-family="Helvetica,sans-Serif" font-size="10.00">(espeak&#45;ng)</text>
</g>
<!-- drv_tts&#45;&gt;drv_aout -->
<g id="edge14" class="edge">
<title>drv_tts&#45;&gt;drv_aout</title>
<path fill="none" stroke="#555555" stroke-dasharray="5,2" d="M2888.39,-537.74C2891.71,-513.27 2897.17,-473.02 2900.81,-446.26"/>
<polygon fill="#555555" stroke="#555555" points="2904.31,-446.43 2902.19,-436.05 2897.38,-445.49 2904.31,-446.43"/>
<text text-anchor="middle" x="2913.01" y="-509.6" font-family="Helvetica,sans-Serif" font-size="8.00">renders to</text>
</g>
<!-- drv_tts&#45;&gt;svc_av -->
<g id="edge24" class="edge">
<title>drv_tts&#45;&gt;svc_av</title>
<path fill="none" stroke="#555555" d="M2864.37,-537.92C2855.14,-527.23 2845.32,-513.45 2840.51,-499 2823.36,-447.56 2817.03,-425.88 2840.51,-377 2860.28,-335.83 2900.71,-303.85 2935.72,-282.35"/>
<polygon fill="#555555" stroke="#555555" points="2937.7,-285.25 2944.49,-277.11 2934.11,-279.24 2937.7,-285.25"/>
</g>
<!-- drv_van -->
<g id="node17" class="node">
<title>drv_van</title>
<path fill="#a5c8ff" stroke="black" d="M2953.01,-680.5C2953.01,-680.5 2818.01,-680.5 2818.01,-680.5 2812.01,-680.5 2806.01,-674.5 2806.01,-668.5 2806.01,-668.5 2806.01,-656.5 2806.01,-656.5 2806.01,-650.5 2812.01,-644.5 2818.01,-644.5 2818.01,-644.5 2953.01,-644.5 2953.01,-644.5 2959.01,-644.5 2965.01,-650.5 2965.01,-656.5 2965.01,-656.5 2965.01,-668.5 2965.01,-668.5 2965.01,-674.5 2959.01,-680.5 2953.01,-680.5"/>
<text text-anchor="middle" x="2885.51" y="-660" font-family="Helvetica,sans-Serif" font-size="10.00">audio/version_announcer.py</text>
</g>
<!-- drv_van&#45;&gt;drv_tts -->
<g id="edge15" class="edge">
<title>drv_van&#45;&gt;drv_tts</title>
<path fill="none" stroke="#555555" d="M2885.51,-644.45C2885.51,-630.26 2885.51,-609.67 2885.51,-592.5"/>
<polygon fill="#555555" stroke="#555555" points="2889.01,-592.33 2885.51,-582.33 2882.01,-592.33 2889.01,-592.33"/>
</g>
<!-- core_ver -->
<g id="node24" class="node">
<title>core_ver</title>
<path fill="#bdb1f5" stroke="black" d="M1568.01,-65.5C1568.01,-65.5 1485.01,-65.5 1485.01,-65.5 1479.01,-65.5 1473.01,-59.5 1473.01,-53.5 1473.01,-53.5 1473.01,-33.5 1473.01,-33.5 1473.01,-27.5 1479.01,-21.5 1485.01,-21.5 1485.01,-21.5 1568.01,-21.5 1568.01,-21.5 1574.01,-21.5 1580.01,-27.5 1580.01,-33.5 1580.01,-33.5 1580.01,-53.5 1580.01,-53.5 1580.01,-59.5 1574.01,-65.5 1568.01,-65.5"/>
<text text-anchor="middle" x="1526.51" y="-46.5" font-family="Helvetica,sans-Serif" font-size="10.00">version.py</text>
<text text-anchor="middle" x="1526.51" y="-35.5" font-family="Helvetica,sans-Serif" font-size="10.00">(reads /VERSION)</text>
</g>
<!-- drv_van&#45;&gt;core_ver -->
<g id="edge16" class="edge">
<title>drv_van&#45;&gt;core_ver</title>
<path fill="none" stroke="#555555" stroke-dasharray="5,2" d="M2832.78,-644.42C2819.44,-640.72 2805.06,-637.24 2791.51,-635 2228.79,-541.94 759.36,-707.57 228.51,-499 120.72,-456.65 77.57,-436.89 28.51,-332 -2.57,-265.57 -15.37,-225.76 28.51,-167 65.95,-116.86 101.87,-137.85 163.51,-127 418.29,-82.15 1229.34,-53.81 1462.97,-46.43"/>
<polygon fill="#555555" stroke="#555555" points="1463.12,-49.92 1473,-46.11 1462.9,-42.93 1463.12,-49.92"/>
</g>
<!-- drv_van&#45;&gt;svc_av -->
<g id="edge25" class="edge">
<title>drv_van&#45;&gt;svc_av</title>
<path fill="none" stroke="#555555" d="M2899.46,-644.39C2911.59,-628.86 2928.98,-604.95 2940.51,-582 2989.82,-483.77 2997.98,-350.9 2998.84,-287.35"/>
<polygon fill="#555555" stroke="#555555" points="3002.34,-287.06 2998.92,-277.03 2995.34,-287 3002.34,-287.06"/>
</g>
<!-- drv_facedet -->
<g id="node19" class="node">
<title>drv_facedet</title>
<path fill="#a5c8ff" stroke="black" d="M2742.01,-582C2742.01,-582 2585.01,-582 2585.01,-582 2579.01,-582 2573.01,-576 2573.01,-570 2573.01,-570 2573.01,-550 2573.01,-550 2573.01,-544 2579.01,-538 2585.01,-538 2585.01,-538 2742.01,-538 2742.01,-538 2748.01,-538 2754.01,-544 2754.01,-550 2754.01,-550 2754.01,-570 2754.01,-570 2754.01,-576 2748.01,-582 2742.01,-582"/>
<text text-anchor="middle" x="2663.51" y="-563" font-family="Helvetica,sans-Serif" font-size="10.00">perception/face_detector.py</text>
<text text-anchor="middle" x="2663.51" y="-552" font-family="Helvetica,sans-Serif" font-size="10.00">(SCRFD decode + Haar fallback)</text>
</g>
<!-- drv_hailo&#45;&gt;drv_facedet -->
<g id="edge9" class="edge">
<title>drv_hailo&#45;&gt;drv_facedet</title>
<path fill="none" stroke="#555555" d="M2687.14,-640.19C2682.97,-626.2 2677.44,-607.67 2672.77,-592.05"/>
<polygon fill="#555555" stroke="#555555" points="2676.07,-590.86 2669.86,-582.28 2669.36,-592.87 2676.07,-590.86"/>
</g>
<!-- drv_objdet -->
<g id="node20" class="node">
<title>drv_objdet</title>
<path fill="#a5c8ff" stroke="black" d="M2519.01,-582C2519.01,-582 2376.01,-582 2376.01,-582 2370.01,-582 2364.01,-576 2364.01,-570 2364.01,-570 2364.01,-550 2364.01,-550 2364.01,-544 2370.01,-538 2376.01,-538 2376.01,-538 2519.01,-538 2519.01,-538 2525.01,-538 2531.01,-544 2531.01,-550 2531.01,-550 2531.01,-570 2531.01,-570 2531.01,-576 2525.01,-582 2519.01,-582"/>
<text text-anchor="middle" x="2447.51" y="-563" font-family="Helvetica,sans-Serif" font-size="10.00">perception/object_detector.py</text>
<text text-anchor="middle" x="2447.51" y="-552" font-family="Helvetica,sans-Serif" font-size="10.00">(YOLOv8s + letterbox cache)</text>
</g>
<!-- drv_hailo&#45;&gt;drv_objdet -->
<g id="edge10" class="edge">
<title>drv_hailo&#45;&gt;drv_objdet</title>
<path fill="none" stroke="#555555" d="M2641.94,-640.43C2602.98,-624.52 2549.41,-602.63 2508.36,-585.86"/>
<polygon fill="#555555" stroke="#555555" points="2509.59,-582.58 2499.01,-582.04 2506.94,-589.06 2509.59,-582.58"/>
</g>
<!-- svc_perception -->
<g id="node32" class="node">
<title>svc_perception</title>
<path fill="#a8d88d" stroke="black" d="M1168.51,-282.5C1168.51,-282.5 962.51,-282.5 962.51,-282.5 956.51,-282.5 950.51,-276.5 950.51,-270.5 950.51,-270.5 950.51,-228.5 950.51,-228.5 950.51,-222.5 956.51,-216.5 962.51,-216.5 962.51,-216.5 1168.51,-216.5 1168.51,-216.5 1174.51,-216.5 1180.51,-222.5 1180.51,-228.5 1180.51,-228.5 1180.51,-270.5 1180.51,-270.5 1180.51,-276.5 1174.51,-282.5 1168.51,-282.5"/>
<text text-anchor="middle" x="1065.51" y="-263.5" font-family="Helvetica,sans-Serif" font-size="10.00">PerceptionService</text>
<text text-anchor="middle" x="1065.51" y="-252.5" font-family="Helvetica,sans-Serif" font-size="10.00">← vision.frame_ready</text>
<text text-anchor="middle" x="1065.51" y="-241.5" font-family="Helvetica,sans-Serif" font-size="10.00">→ perception.faces / perception.error</text>
<text text-anchor="middle" x="1065.51" y="-230.5" font-family="Helvetica,sans-Serif" font-size="10.00">+ FaceEmbedder (ArcFace) + FaceRegistry</text>
</g>
<!-- drv_facedet&#45;&gt;svc_perception -->
<g id="edge19" class="edge">
<title>drv_facedet&#45;&gt;svc_perception</title>
<path fill="none" stroke="#555555" d="M2572.86,-541.43C2563.65,-540.08 2554.41,-538.89 2545.51,-538 2500.58,-533.49 952.05,-531.31 920.51,-499 882.63,-460.2 898.06,-426.36 920.51,-377 937.19,-340.31 970.35,-310.1 1000.76,-288.42"/>
<polygon fill="#555555" stroke="#555555" points="1003.03,-291.11 1009.25,-282.53 999.04,-285.36 1003.03,-291.11"/>
</g>
<!-- svc_object -->
<g id="node39" class="node">
<title>svc_object</title>
<path fill="#a8d88d" stroke="black" d="M909.51,-282.5C909.51,-282.5 703.51,-282.5 703.51,-282.5 697.51,-282.5 691.51,-276.5 691.51,-270.5 691.51,-270.5 691.51,-228.5 691.51,-228.5 691.51,-222.5 697.51,-216.5 703.51,-216.5 703.51,-216.5 909.51,-216.5 909.51,-216.5 915.51,-216.5 921.51,-222.5 921.51,-228.5 921.51,-228.5 921.51,-270.5 921.51,-270.5 921.51,-276.5 915.51,-282.5 909.51,-282.5"/>
<text text-anchor="middle" x="806.51" y="-263.5" font-family="Helvetica,sans-Serif" font-size="10.00">ObjectService</text>
<text text-anchor="middle" x="806.51" y="-252.5" font-family="Helvetica,sans-Serif" font-size="10.00">← vision.frame_ready / object.set_enabled</text>
<text text-anchor="middle" x="806.51" y="-241.5" font-family="Helvetica,sans-Serif" font-size="10.00">→ object.detections</text>
<text text-anchor="middle" x="806.51" y="-230.5" font-family="Helvetica,sans-Serif" font-size="10.00">2fps · max_objects cap · BGR→RGB fix</text>
</g>
<!-- drv_objdet&#45;&gt;svc_object -->
<g id="edge20" class="edge">
<title>drv_objdet&#45;&gt;svc_object</title>
<path fill="none" stroke="#555555" d="M2363.94,-540.22C2358.4,-539.36 2352.88,-538.6 2347.51,-538 2042.04,-503.81 1269.64,-553.06 964.51,-516 791.52,-494.99 696.68,-510.26 603.51,-363 580.06,-325.94 579.02,-376.28 676.51,-332 702.96,-319.99 730.47,-303.41 753.33,-288.35"/>
<polygon fill="#555555" stroke="#555555" points="755.48,-291.13 761.85,-282.66 751.59,-285.3 755.48,-291.13"/>
</g>
<!-- core_bus -->
<g id="node21" class="node">
<title>core_bus</title>
<path fill="#bdb1f5" stroke="black" d="M2000.51,-65.5C2000.51,-65.5 1902.51,-65.5 1902.51,-65.5 1896.51,-65.5 1890.51,-59.5 1890.51,-53.5 1890.51,-53.5 1890.51,-33.5 1890.51,-33.5 1890.51,-27.5 1896.51,-21.5 1902.51,-21.5 1902.51,-21.5 2000.51,-21.5 2000.51,-21.5 2006.51,-21.5 2012.51,-27.5 2012.51,-33.5 2012.51,-33.5 2012.51,-53.5 2012.51,-53.5 2012.51,-59.5 2006.51,-65.5 2000.51,-65.5"/>
<text text-anchor="middle" x="1951.51" y="-46.5" font-family="Helvetica,sans-Serif" font-size="10.00">core MessageBus</text>
<text text-anchor="middle" x="1951.51" y="-35.5" font-family="Helvetica,sans-Serif" font-size="10.00">(in&#45;process pub/sub)</text>
</g>
<!-- core_bus&#45;&gt;svc_motion -->
<g id="edge30" class="edge">
<title>core_bus&#45;&gt;svc_motion</title>
<path fill="none" stroke="#226622" d="M1936.16,-65.74C1922.51,-82.95 1900.96,-106.36 1876.51,-119 1858.07,-128.53 1850.28,-120.72 1830.51,-127 1812.69,-132.65 1810.7,-140.72 1792.51,-145 1671.89,-173.38 793.72,-124.02 677.51,-167 651.2,-176.73 626.8,-196.63 608.81,-214.32"/>
<polygon fill="#226622" stroke="#226622" points="606.03,-212.16 601.51,-221.74 611.02,-217.07 606.03,-212.16"/>
</g>
<!-- core_bus&#45;&gt;svc_vision -->
<g id="edge32" class="edge">
<title>core_bus&#45;&gt;svc_vision</title>
<path fill="none" stroke="#226622" d="M1937.38,-65.58C1924.05,-83.46 1902.3,-107.9 1876.51,-119 1866.6,-123.26 334.35,-162.61 324.51,-167 304.7,-175.82 287.44,-192.26 274.22,-208.07"/>
<polygon fill="#226622" stroke="#226622" points="271.2,-206.24 267.69,-216.24 276.67,-210.61 271.2,-206.24"/>
</g>
<!-- core_bus&#45;&gt;svc_audio -->
<g id="edge34" class="edge">
<title>core_bus&#45;&gt;svc_audio</title>
<path fill="none" stroke="#226622" d="M1937.01,-65.7C1923.59,-83.38 1901.91,-107.49 1876.51,-119 1852.97,-129.66 1785.5,-120.47 1760.51,-127 1742.42,-131.73 1740.7,-140.74 1722.51,-145 1655.31,-160.74 543.73,-139.33 480.51,-167 458.3,-176.72 439.34,-196.08 425.67,-213.5"/>
<polygon fill="#226622" stroke="#226622" points="422.61,-211.75 419.39,-221.84 428.2,-215.96 422.61,-211.75"/>
</g>
<!-- core_bus&#45;&gt;svc_av -->
<g id="edge36" class="edge">
<title>core_bus&#45;&gt;svc_av</title>
<path fill="none" stroke="#226622" d="M1965.85,-65.67C1979.38,-83.59 2001.44,-108.07 2027.51,-119 2070.96,-137.23 2405.63,-116.23 2451.51,-127 2469.7,-131.27 2471.41,-140.33 2489.51,-145 2640.86,-184.05 2689.84,-125.4 2840.51,-167 2879.36,-177.73 2919.7,-198.72 2949.89,-216.72"/>
<polygon fill="#226622" stroke="#226622" points="2948.15,-219.76 2958.52,-221.95 2951.78,-213.77 2948.15,-219.76"/>
</g>
<!-- core_bus&#45;&gt;svc_perception -->
<g id="edge38" class="edge">
<title>core_bus&#45;&gt;svc_perception</title>
<path fill="none" stroke="#226622" d="M1963.83,-65.64C1975.3,-88.39 1987.82,-124.1 1967.51,-145 1937.6,-175.77 1236.57,-154.56 1195.51,-167 1165.76,-176.01 1136.13,-193.74 1112.68,-210.36"/>
<polygon fill="#226622" stroke="#226622" points="1110.37,-207.71 1104.33,-216.42 1114.48,-213.38 1110.37,-207.71"/>
</g>
<!-- svc_telemetry -->
<g id="node33" class="node">
<title>svc_telemetry</title>
<path fill="#a8d88d" stroke="black" d="M2814.01,-282.5C2814.01,-282.5 2609.01,-282.5 2609.01,-282.5 2603.01,-282.5 2597.01,-276.5 2597.01,-270.5 2597.01,-270.5 2597.01,-228.5 2597.01,-228.5 2597.01,-222.5 2603.01,-216.5 2609.01,-216.5 2609.01,-216.5 2814.01,-216.5 2814.01,-216.5 2820.01,-216.5 2826.01,-222.5 2826.01,-228.5 2826.01,-228.5 2826.01,-270.5 2826.01,-270.5 2826.01,-276.5 2820.01,-282.5 2814.01,-282.5"/>
<text text-anchor="middle" x="2711.51" y="-263.5" font-family="Helvetica,sans-Serif" font-size="10.00">TelemetryService</text>
<text text-anchor="middle" x="2711.51" y="-252.5" font-family="Helvetica,sans-Serif" font-size="10.00">← thermal.* / motion.position / audio.level</text>
<text text-anchor="middle" x="2711.51" y="-241.5" font-family="Helvetica,sans-Serif" font-size="10.00">→ telemetry.flush</text>
<text text-anchor="middle" x="2711.51" y="-230.5" font-family="Helvetica,sans-Serif" font-size="10.00">SQLite ring buffer</text>
</g>
<!-- core_bus&#45;&gt;svc_telemetry -->
<g id="edge41" class="edge">
<title>core_bus&#45;&gt;svc_telemetry</title>
<path fill="none" stroke="#226622" d="M1965.87,-65.63C1979.41,-83.53 2001.47,-107.98 2027.51,-119 2060.16,-132.82 2312.01,-118.79 2346.51,-127 2364.68,-131.33 2366.53,-139.9 2384.51,-145 2469.68,-169.17 2498.95,-137.72 2582.51,-167 2611.12,-177.03 2639.93,-194.38 2663.04,-210.5"/>
<polygon fill="#226622" stroke="#226622" points="2661.11,-213.42 2671.29,-216.37 2665.17,-207.72 2661.11,-213.42"/>
</g>
<!-- svc_ipc -->
<g id="node34" class="node">
<title>svc_ipc</title>
<path fill="#a8d88d" stroke="black" d="M1421.51,-288C1421.51,-288 1221.51,-288 1221.51,-288 1215.51,-288 1209.51,-282 1209.51,-276 1209.51,-276 1209.51,-223 1209.51,-223 1209.51,-217 1215.51,-211 1221.51,-211 1221.51,-211 1421.51,-211 1421.51,-211 1427.51,-211 1433.51,-217 1433.51,-223 1433.51,-223 1433.51,-276 1433.51,-276 1433.51,-282 1427.51,-288 1421.51,-288"/>
<text text-anchor="middle" x="1321.51" y="-269" font-family="Helvetica,sans-Serif" font-size="10.00">IPCBridge (core)</text>
<text text-anchor="middle" x="1321.51" y="-258" font-family="Helvetica,sans-Serif" font-size="10.00">PUB ipc:///tmp/desktop&#45;assistant.pub</text>
<text text-anchor="middle" x="1321.51" y="-247" font-family="Helvetica,sans-Serif" font-size="10.00">REP ipc:///tmp/desktop&#45;assistant.rep</text>
<text text-anchor="middle" x="1321.51" y="-236" font-family="Helvetica,sans-Serif" font-size="10.00">SUB ← thermal.pub (upstream)</text>
<text text-anchor="middle" x="1321.51" y="-225" font-family="Helvetica,sans-Serif" font-size="10.00">cmds: ping / topics / last / publish / status</text>
</g>
<!-- core_bus&#45;&gt;svc_ipc -->
<g id="edge43" class="edge">
<title>core_bus&#45;&gt;svc_ipc</title>
<path fill="none" stroke="#226622" d="M1975.53,-65.53C1997.84,-87.51 2024.55,-121.95 2002.51,-145 1964.69,-184.55 1563.84,-154.74 1510.51,-167 1473.26,-175.56 1434.15,-191.19 1401.23,-206.49"/>
<polygon fill="#226622" stroke="#226622" points="1399.67,-203.36 1392.12,-210.79 1402.66,-209.69 1399.67,-203.36"/>
</g>
<!-- svc_face -->
<g id="node35" class="node">
<title>svc_face</title>
<path fill="#a8d88d" stroke="black" d="M3332.01,-288C3332.01,-288 3183.01,-288 3183.01,-288 3177.01,-288 3171.01,-282 3171.01,-276 3171.01,-276 3171.01,-223 3171.01,-223 3171.01,-217 3177.01,-211 3183.01,-211 3183.01,-211 3332.01,-211 3332.01,-211 3338.01,-211 3344.01,-217 3344.01,-223 3344.01,-223 3344.01,-276 3344.01,-276 3344.01,-282 3338.01,-288 3332.01,-288"/>
<text text-anchor="middle" x="3257.51" y="-269" font-family="Helvetica,sans-Serif" font-size="10.00">FaceService</text>
<text text-anchor="middle" x="3257.51" y="-258" font-family="Helvetica,sans-Serif" font-size="10.00">← perception.faces / face.meet</text>
<text text-anchor="middle" x="3257.51" y="-247" font-family="Helvetica,sans-Serif" font-size="10.00">→ av.say (greetings)</text>
<text text-anchor="middle" x="3257.51" y="-236" font-family="Helvetica,sans-Serif" font-size="10.00">→ face.identified</text>
<text text-anchor="middle" x="3257.51" y="-225" font-family="Helvetica,sans-Serif" font-size="10.00">cooldown&#45;based re&#45;greet</text>
</g>
<!-- core_bus&#45;&gt;svc_face -->
<g id="edge45" class="edge">
<title>core_bus&#45;&gt;svc_face</title>
<path fill="none" stroke="#226622" d="M1965.85,-65.67C1979.37,-83.61 2001.43,-108.08 2027.51,-119 2051.03,-128.85 2461.67,-121.19 2486.51,-127 2504.7,-131.26 2506.35,-140.58 2524.51,-145 2661.05,-178.21 3024.83,-117.91 3156.51,-167 3177.73,-174.91 3197.87,-189.18 3214.49,-203.6"/>
<polygon fill="#226622" stroke="#226622" points="3212.58,-206.58 3222.36,-210.66 3217.25,-201.37 3212.58,-206.58"/>
</g>
<!-- svc_track -->
<g id="node36" class="node">
<title>svc_track</title>
<path fill="#a8d88d" stroke="black" d="M3545.51,-293.5C3545.51,-293.5 3385.51,-293.5 3385.51,-293.5 3379.51,-293.5 3373.51,-287.5 3373.51,-281.5 3373.51,-281.5 3373.51,-217.5 3373.51,-217.5 3373.51,-211.5 3379.51,-205.5 3385.51,-205.5 3385.51,-205.5 3545.51,-205.5 3545.51,-205.5 3551.51,-205.5 3557.51,-211.5 3557.51,-217.5 3557.51,-217.5 3557.51,-281.5 3557.51,-281.5 3557.51,-287.5 3551.51,-293.5 3545.51,-293.5"/>
<text text-anchor="middle" x="3465.51" y="-274.5" font-family="Helvetica,sans-Serif" font-size="10.00">TrackingService</text>
<text text-anchor="middle" x="3465.51" y="-263.5" font-family="Helvetica,sans-Serif" font-size="10.00">← perception.faces</text>
<text text-anchor="middle" x="3465.51" y="-252.5" font-family="Helvetica,sans-Serif" font-size="10.00">→ motion.pan_to</text>
<text text-anchor="middle" x="3465.51" y="-241.5" font-family="Helvetica,sans-Serif" font-size="10.00">← av.speaking_started / av.spoke</text>
<text text-anchor="middle" x="3465.51" y="-230.5" font-family="Helvetica,sans-Serif" font-size="10.00">20Hz spring&#45;damper tracking</text>
<text text-anchor="middle" x="3465.51" y="-219.5" font-family="Helvetica,sans-Serif" font-size="10.00">idle random gaze · speaking nod</text>
</g>
<!-- core_bus&#45;&gt;svc_track -->
<g id="edge47" class="edge">
<title>core_bus&#45;&gt;svc_track</title>
<path fill="none" stroke="#226622" d="M1965.84,-65.7C1979.36,-83.64 2001.41,-108.13 2027.51,-119 2056.43,-131.05 2560.47,-122.68 2591.51,-127 2622.04,-131.25 2628,-140.49 2658.51,-145 2735.48,-156.39 3285.17,-140.96 3358.51,-167 3378.36,-174.05 3397.51,-186.26 3413.99,-199.11"/>
<polygon fill="#226622" stroke="#226622" points="3411.87,-201.9 3421.86,-205.45 3416.27,-196.45 3411.87,-201.9"/>
</g>
<!-- svc_web -->
<g id="node37" class="node">
<title>svc_web</title>
<path fill="#a8d88d" stroke="black" d="M3979.01,-332C3979.01,-332 3790.01,-332 3790.01,-332 3784.01,-332 3778.01,-326 3778.01,-320 3778.01,-320 3778.01,-179 3778.01,-179 3778.01,-173 3784.01,-167 3790.01,-167 3790.01,-167 3979.01,-167 3979.01,-167 3985.01,-167 3991.01,-173 3991.01,-179 3991.01,-179 3991.01,-320 3991.01,-320 3991.01,-326 3985.01,-332 3979.01,-332"/>
<text text-anchor="middle" x="3884.51" y="-313" font-family="Helvetica,sans-Serif" font-size="10.00">WebService (FastAPI)</text>
<text text-anchor="middle" x="3884.51" y="-302" font-family="Helvetica,sans-Serif" font-size="10.00">GET / — dashboard SPA</text>
<text text-anchor="middle" x="3884.51" y="-291" font-family="Helvetica,sans-Serif" font-size="10.00">GET /stream — MJPEG 640×360 feed</text>
<text text-anchor="middle" x="3884.51" y="-280" font-family="Helvetica,sans-Serif" font-size="10.00">WS /ws — live JSON status</text>
<text text-anchor="middle" x="3884.51" y="-269" font-family="Helvetica,sans-Serif" font-size="10.00">GET /api/faces — list (has_thumb flag)</text>
<text text-anchor="middle" x="3884.51" y="-258" font-family="Helvetica,sans-Serif" font-size="10.00">GET /api/skills — registered skills</text>
<text text-anchor="middle" x="3884.51" y="-247" font-family="Helvetica,sans-Serif" font-size="10.00">GET /api/faces/{id}/thumb — face JPEG</text>
<text text-anchor="middle" x="3884.51" y="-236" font-family="Helvetica,sans-Serif" font-size="10.00">PUT /api/faces/{id} — rename</text>
<text text-anchor="middle" x="3884.51" y="-225" font-family="Helvetica,sans-Serif" font-size="10.00">DEL /api/faces/{id} — delete one</text>
<text text-anchor="middle" x="3884.51" y="-214" font-family="Helvetica,sans-Serif" font-size="10.00">DEL /api/faces — delete all</text>
<text text-anchor="middle" x="3884.51" y="-203" font-family="Helvetica,sans-Serif" font-size="10.00">GET|PUT /api/settings/quiet&#45;hours</text>
<text text-anchor="middle" x="3884.51" y="-192" font-family="Helvetica,sans-Serif" font-size="10.00">POST /api/say|pan|version|utterance</text>
<text text-anchor="middle" x="3884.51" y="-181" font-family="Helvetica,sans-Serif" font-size="10.00">port 8080</text>
</g>
<!-- core_bus&#45;&gt;svc_web -->
<g id="edge49" class="edge">
<title>core_bus&#45;&gt;svc_web</title>
<path fill="none" stroke="#226622" d="M1965.82,-65.75C1979.32,-83.73 2001.36,-108.24 2027.51,-119 2047.2,-127.1 3539.32,-124.88 3560.51,-127 3606.25,-131.58 3721.04,-149.36 3763.51,-167 3765.15,-167.68 3766.8,-168.39 3768.45,-169.12"/>
<polygon fill="#226622" stroke="#226622" points="3767.34,-172.47 3777.88,-173.54 3770.31,-166.13 3767.34,-172.47"/>
</g>
<!-- svc_clock -->
<g id="node38" class="node">
<title>svc_clock</title>
<path fill="#a8d88d" stroke="black" d="M3736.51,-282.5C3736.51,-282.5 3598.51,-282.5 3598.51,-282.5 3592.51,-282.5 3586.51,-276.5 3586.51,-270.5 3586.51,-270.5 3586.51,-228.5 3586.51,-228.5 3586.51,-222.5 3592.51,-216.5 3598.51,-216.5 3598.51,-216.5 3736.51,-216.5 3736.51,-216.5 3742.51,-216.5 3748.51,-222.5 3748.51,-228.5 3748.51,-228.5 3748.51,-270.5 3748.51,-270.5 3748.51,-276.5 3742.51,-282.5 3736.51,-282.5"/>
<text text-anchor="middle" x="3667.51" y="-263.5" font-family="Helvetica,sans-Serif" font-size="10.00">ClockService</text>
<text text-anchor="middle" x="3667.51" y="-252.5" font-family="Helvetica,sans-Serif" font-size="10.00">+ ClockAnnouncer</text>
<text text-anchor="middle" x="3667.51" y="-241.5" font-family="Helvetica,sans-Serif" font-size="10.00">→ av.say (hourly/half&#45;hourly)</text>
<text text-anchor="middle" x="3667.51" y="-230.5" font-family="Helvetica,sans-Serif" font-size="10.00">respects QuietHours</text>
</g>
<!-- core_bus&#45;&gt;svc_clock -->
<g id="edge51" class="edge">
<title>core_bus&#45;&gt;svc_clock</title>
<path fill="none" stroke="#226622" d="M1965.84,-65.71C1979.35,-83.66 2001.4,-108.16 2027.51,-119 2061.83,-133.26 2660.29,-118.63 2696.51,-127 2714.71,-131.21 2716.33,-140.66 2734.51,-145 2825.1,-166.63 3485.59,-133.52 3572.51,-167 3595.37,-175.81 3616.52,-192.66 3633.03,-208.77"/>
<polygon fill="#226622" stroke="#226622" points="3630.75,-211.44 3640.28,-216.08 3635.72,-206.52 3630.75,-211.44"/>
</g>
<!-- core_bus&#45;&gt;svc_object -->
<g id="edge53" class="edge">
<title>core_bus&#45;&gt;svc_object</title>
<path fill="none" stroke="#226622" d="M1940.03,-65.68C1925.57,-89.92 1898.23,-128.41 1862.51,-145 1769.17,-188.36 1035.07,-137.39 936.51,-167 906.74,-175.94 877.1,-193.66 853.66,-210.3"/>
<polygon fill="#226622" stroke="#226622" points="851.35,-207.65 845.32,-216.36 855.46,-213.32 851.35,-207.65"/>
</g>
<!-- svc_music -->
<g id="node40" class="node">
<title>svc_music</title>
<path fill="#a8d88d" stroke="black" d="M2051.01,-282.5C2051.01,-282.5 1812.01,-282.5 1812.01,-282.5 1806.01,-282.5 1800.01,-276.5 1800.01,-270.5 1800.01,-270.5 1800.01,-228.5 1800.01,-228.5 1800.01,-222.5 1806.01,-216.5 1812.01,-216.5 1812.01,-216.5 2051.01,-216.5 2051.01,-216.5 2057.01,-216.5 2063.01,-222.5 2063.01,-228.5 2063.01,-228.5 2063.01,-270.5 2063.01,-270.5 2063.01,-276.5 2057.01,-282.5 2051.01,-282.5"/>
<text text-anchor="middle" x="1931.51" y="-263.5" font-family="Helvetica,sans-Serif" font-size="10.00">MusicService</text>
<text text-anchor="middle" x="1931.51" y="-252.5" font-family="Helvetica,sans-Serif" font-size="10.00">← music.play / stop / pause / next</text>
<text text-anchor="middle" x="1931.51" y="-241.5" font-family="Helvetica,sans-Serif" font-size="10.00">← music.thumbs_up / thumbs_down / set_volume</text>
<text text-anchor="middle" x="1931.51" y="-230.5" font-family="Helvetica,sans-Serif" font-size="10.00">Pandora / audio playback</text>
</g>
<!-- core_bus&#45;&gt;svc_music -->
<g id="edge56" class="edge">
<title>core_bus&#45;&gt;svc_music</title>
<path fill="none" stroke="#226622" d="M1966.22,-65.78C1979.83,-83.53 2001.81,-107.66 2027.51,-119 2042.17,-125.47 2160.49,-115.36 2171.51,-127 2177,-132.81 2176.47,-138.73 2171.51,-145 2145.15,-178.31 2118.12,-151.67 2078.51,-167 2048.07,-178.78 2016.16,-195.83 1989.88,-211.29"/>
<polygon fill="#226622" stroke="#226622" points="1988,-208.33 1981.2,-216.46 1991.58,-214.35 1988,-208.33"/>
</g>
<!-- svc_skills -->
<g id="node41" class="node">
<title>svc_skills</title>
<path fill="#a8d88d" stroke="black" d="M2304.51,-310C2304.51,-310 2104.51,-310 2104.51,-310 2098.51,-310 2092.51,-304 2092.51,-298 2092.51,-298 2092.51,-201 2092.51,-201 2092.51,-195 2098.51,-189 2104.51,-189 2104.51,-189 2304.51,-189 2304.51,-189 2310.51,-189 2316.51,-195 2316.51,-201 2316.51,-201 2316.51,-298 2316.51,-298 2316.51,-304 2310.51,-310 2304.51,-310"/>
<text text-anchor="middle" x="2204.51" y="-291" font-family="Helvetica,sans-Serif" font-size="10.00">SkillsService</text>
<text text-anchor="middle" x="2204.51" y="-280" font-family="Helvetica,sans-Serif" font-size="10.00">← av.utterance / thermal.temp</text>
<text text-anchor="middle" x="2204.51" y="-269" font-family="Helvetica,sans-Serif" font-size="10.00">→ av.say / vision.describe / av.tell_joke</text>
<text text-anchor="middle" x="2204.51" y="-258" font-family="Helvetica,sans-Serif" font-size="10.00">→ face.meet / motion.pan_to / music.*</text>
<text text-anchor="middle" x="2204.51" y="-247" font-family="Helvetica,sans-Serif" font-size="10.00">→ object.set_enabled / music.set_volume</text>
<text text-anchor="middle" x="2204.51" y="-236" font-family="Helvetica,sans-Serif" font-size="10.00">→ tracking.set_face_tracking</text>
<text text-anchor="middle" x="2204.51" y="-225" font-family="Helvetica,sans-Serif" font-size="10.00">SkillRegistry — first&#45;match dispatch</text>
<text text-anchor="middle" x="2204.51" y="-214" font-family="Helvetica,sans-Serif" font-size="10.00">13 skills: help · system_status</text>
<text text-anchor="middle" x="2204.51" y="-203" font-family="Helvetica,sans-Serif" font-size="10.00"> &#160;&#160;volume · quiet_hours + 9 others</text>
</g>
<!-- core_bus&#45;&gt;svc_skills -->
<g id="edge58" class="edge">
<title>core_bus&#45;&gt;svc_skills</title>
<path fill="none" stroke="#226622" d="M1965.9,-65.55C1979.46,-83.4 2001.54,-107.83 2027.51,-119 2049.36,-128.41 2225,-109.86 2241.51,-127 2255.25,-141.26 2254.79,-160.48 2248.41,-179.41"/>
<polygon fill="#226622" stroke="#226622" points="2245.06,-178.37 2244.7,-188.96 2251.58,-180.9 2245.06,-178.37"/>
</g>
<!-- svc_notif -->
<g id="node42" class="node">
<title>svc_notif</title>
<path fill="#a8d88d" stroke="black" d="M2555.51,-288C2555.51,-288 2357.51,-288 2357.51,-288 2351.51,-288 2345.51,-282 2345.51,-276 2345.51,-276 2345.51,-223 2345.51,-223 2345.51,-217 2351.51,-211 2357.51,-211 2357.51,-211 2555.51,-211 2555.51,-211 2561.51,-211 2567.51,-217 2567.51,-223 2567.51,-223 2567.51,-276 2567.51,-276 2567.51,-282 2561.51,-288 2555.51,-288"/>
<text text-anchor="middle" x="2456.51" y="-269" font-family="Helvetica,sans-Serif" font-size="10.00">NotificationService</text>
<text text-anchor="middle" x="2456.51" y="-258" font-family="Helvetica,sans-Serif" font-size="10.00">← thermal.temp / perception.faces</text>
<text text-anchor="middle" x="2456.51" y="-247" font-family="Helvetica,sans-Serif" font-size="10.00">← av.speaking_started / av.spoke</text>
<text text-anchor="middle" x="2456.51" y="-236" font-family="Helvetica,sans-Serif" font-size="10.00">→ av.say (thermal alerts, absence alerts)</text>
<text text-anchor="middle" x="2456.51" y="-225" font-family="Helvetica,sans-Serif" font-size="10.00">rate&#45;limited · quiet&#45;hours aware</text>
</g>
<!-- core_bus&#45;&gt;svc_notif -->
<g id="edge60" class="edge">
<title>core_bus&#45;&gt;svc_notif</title>
<path fill="none" stroke="#226622" d="M1965.89,-65.57C1979.45,-83.44 2001.52,-107.88 2027.51,-119 2052.03,-129.5 2241.98,-119.22 2267.51,-127 2318.84,-142.65 2369.59,-176.58 2405.56,-204.61"/>
<polygon fill="#226622" stroke="#226622" points="2403.44,-207.4 2413.46,-210.86 2407.79,-201.91 2403.44,-207.4"/>
</g>
<!-- thermal_bus -->
<g id="node22" class="node">
<title>thermal_bus</title>
<path fill="#bdb1f5" stroke="black" d="M1722.01,-65.5C1722.01,-65.5 1621.01,-65.5 1621.01,-65.5 1615.01,-65.5 1609.01,-59.5 1609.01,-53.5 1609.01,-53.5 1609.01,-33.5 1609.01,-33.5 1609.01,-27.5 1615.01,-21.5 1621.01,-21.5 1621.01,-21.5 1722.01,-21.5 1722.01,-21.5 1728.01,-21.5 1734.01,-27.5 1734.01,-33.5 1734.01,-33.5 1734.01,-53.5 1734.01,-53.5 1734.01,-59.5 1728.01,-65.5 1722.01,-65.5"/>
<text text-anchor="middle" x="1671.51" y="-46.5" font-family="Helvetica,sans-Serif" font-size="10.00">thermal MessageBus</text>
<text text-anchor="middle" x="1671.51" y="-35.5" font-family="Helvetica,sans-Serif" font-size="10.00">(in&#45;process pub/sub)</text>
</g>
<!-- svc_thermal_ipc -->
<g id="node27" class="node">
<title>svc_thermal_ipc</title>
<path fill="#f4a3a3" stroke="black" d="M1759.01,-277C1759.01,-277 1538.01,-277 1538.01,-277 1532.01,-277 1526.01,-271 1526.01,-265 1526.01,-265 1526.01,-234 1526.01,-234 1526.01,-228 1532.01,-222 1538.01,-222 1538.01,-222 1759.01,-222 1759.01,-222 1765.01,-222 1771.01,-228 1771.01,-234 1771.01,-234 1771.01,-265 1771.01,-265 1771.01,-271 1765.01,-277 1759.01,-277"/>
<text text-anchor="middle" x="1648.51" y="-258" font-family="Helvetica,sans-Serif" font-size="10.00">IPCBridge (thermal)</text>
<text text-anchor="middle" x="1648.51" y="-247" font-family="Helvetica,sans-Serif" font-size="10.00">PUB ipc:///tmp/desktop&#45;assistant&#45;thermal.pub</text>
<text text-anchor="middle" x="1648.51" y="-236" font-family="Helvetica,sans-Serif" font-size="10.00">REP ipc:///tmp/desktop&#45;assistant&#45;thermal.rep</text>
</g>
<!-- thermal_bus&#45;&gt;svc_thermal_ipc -->
<g id="edge27" class="edge">
<title>thermal_bus&#45;&gt;svc_thermal_ipc</title>
<path fill="none" stroke="#cc3333" d="M1656.86,-65.56C1643.08,-83.41 1620.69,-107.85 1594.51,-119 1572.1,-128.54 1392.41,-109.47 1375.51,-127 1349.83,-153.63 1413.63,-154.67 1448.51,-167 1492.01,-182.38 1539.91,-201.81 1577.92,-217.84"/>
<polygon fill="#cc3333" stroke="#cc3333" points="1576.79,-221.16 1587.36,-221.84 1579.52,-214.71 1576.79,-221.16"/>
</g>
<!-- core_svc -->
<g id="node23" class="node">
<title>core_svc</title>
<path fill="#bdb1f5" stroke="black" d="M1849.51,-65.5C1849.51,-65.5 1775.51,-65.5 1775.51,-65.5 1769.51,-65.5 1763.51,-59.5 1763.51,-53.5 1763.51,-53.5 1763.51,-33.5 1763.51,-33.5 1763.51,-27.5 1769.51,-21.5 1775.51,-21.5 1775.51,-21.5 1849.51,-21.5 1849.51,-21.5 1855.51,-21.5 1861.51,-27.5 1861.51,-33.5 1861.51,-33.5 1861.51,-53.5 1861.51,-53.5 1861.51,-59.5 1855.51,-65.5 1849.51,-65.5"/>
<text text-anchor="middle" x="1812.51" y="-46.5" font-family="Helvetica,sans-Serif" font-size="10.00">Service base</text>
<text text-anchor="middle" x="1812.51" y="-35.5" font-family="Helvetica,sans-Serif" font-size="10.00">(start/tick/stop)</text>
</g>
<!-- core_qh -->
<g id="node25" class="node">
<title>core_qh</title>
<path fill="#bdb1f5" stroke="black" d="M2235.51,-71C2235.51,-71 2053.51,-71 2053.51,-71 2047.51,-71 2041.51,-65 2041.51,-59 2041.51,-59 2041.51,-28 2041.51,-28 2041.51,-22 2047.51,-16 2053.51,-16 2053.51,-16 2235.51,-16 2235.51,-16 2241.51,-16 2247.51,-22 2247.51,-28 2247.51,-28 2247.51,-59 2247.51,-59 2247.51,-65 2241.51,-71 2235.51,-71"/>
<text text-anchor="middle" x="2144.51" y="-52" font-family="Helvetica,sans-Serif" font-size="10.00">QuietHours</text>
<text text-anchor="middle" x="2144.51" y="-41" font-family="Helvetica,sans-Serif" font-size="10.00">(enabled / start / end</text>
<text text-anchor="middle" x="2144.51" y="-30" font-family="Helvetica,sans-Serif" font-size="10.00">loaded from config/quiet_hours.yaml)</text>
</g>
<!-- core_qh&#45;&gt;svc_face -->
<g id="edge63" class="edge">
<title>core_qh&#45;&gt;svc_face</title>
<path fill="none" stroke="#888888" stroke-dasharray="5,2" d="M2247.71,-49.78C2471.44,-62.37 2994.09,-98.39 3156.51,-167 3177.02,-175.67 3196.74,-189.79 3213.24,-203.86"/>
<polygon fill="#888888" stroke="#888888" points="3211.24,-206.76 3221.06,-210.74 3215.86,-201.51 3211.24,-206.76"/>
<text text-anchor="middle" x="3100.51" y="-138.6" font-family="Helvetica,sans-Serif" font-size="8.00">suppresses</text>
<text text-anchor="middle" x="3100.51" y="-129.6" font-family="Helvetica,sans-Serif" font-size="8.00">greetings</text>
</g>
<!-- core_qh&#45;&gt;svc_web -->
<g id="edge64" class="edge">
<title>core_qh&#45;&gt;svc_web</title>
<path fill="none" stroke="#888888" stroke-dasharray="5,2" d="M2247.54,-44.57C2546.69,-45.63 3411.33,-55 3683.51,-127 3712.81,-134.75 3742.05,-148.25 3768.79,-163.5"/>
<polygon fill="#888888" stroke="#888888" points="3767.35,-166.72 3777.75,-168.73 3770.88,-160.67 3767.35,-166.72"/>
<text text-anchor="middle" x="3753.01" y="-134.1" font-family="Helvetica,sans-Serif" font-size="8.00">config R/W</text>
</g>
<!-- core_qh&#45;&gt;svc_clock -->
<g id="edge62" class="edge">
<title>core_qh&#45;&gt;svc_clock</title>
<path fill="none" stroke="#888888" stroke-dasharray="5,2" d="M2247.52,-45.14C2533.72,-48.21 3333.13,-65.86 3572.51,-167 3594.9,-176.46 3615.86,-193.22 3632.37,-209.08"/>
<polygon fill="#888888" stroke="#888888" points="3630.06,-211.73 3639.63,-216.28 3634.99,-206.76 3630.06,-211.73"/>
<text text-anchor="middle" x="3520.01" y="-138.6" font-family="Helvetica,sans-Serif" font-size="8.00">suppresses</text>
<text text-anchor="middle" x="3520.01" y="-129.6" font-family="Helvetica,sans-Serif" font-size="8.00">announcements</text>
</g>
<!-- core_qh&#45;&gt;svc_notif -->
<g id="edge65" class="edge">
<title>core_qh&#45;&gt;svc_notif</title>
<path fill="none" stroke="#888888" stroke-dasharray="5,2" d="M2238.97,-71.07C2276.4,-84.29 2318.52,-102.73 2352.51,-127 2381.13,-147.44 2406.89,-177.41 2425.61,-202.46"/>
<polygon fill="#888888" stroke="#888888" points="2422.95,-204.75 2431.69,-210.75 2428.6,-200.61 2422.95,-204.75"/>
<text text-anchor="middle" x="2396.51" y="-138.6" font-family="Helvetica,sans-Serif" font-size="8.00">suppresses</text>
<text text-anchor="middle" x="2396.51" y="-129.6" font-family="Helvetica,sans-Serif" font-size="8.00">alerts</text>
</g>
<!-- svc_thermal&#45;&gt;thermal_bus -->
<g id="edge26" class="edge">
<title>svc_thermal&#45;&gt;thermal_bus</title>
<path fill="none" stroke="#cc3333" d="M119.64,-205.22C135.87,-177.3 161.16,-143.27 194.51,-127 229.46,-109.95 1558.5,-133.69 1594.51,-119 1617.15,-109.76 1636.85,-90.36 1650.65,-73.67"/>
<polygon fill="#cc3333" stroke="#cc3333" points="1653.46,-75.76 1656.94,-65.76 1647.98,-71.41 1653.46,-75.76"/>
</g>
<!-- svc_thermal&#45;&gt;core_svc -->
<g id="edge66" class="edge">
<title>svc_thermal&#45;&gt;core_svc</title>
<path fill="none" stroke="#555555" stroke-dasharray="1,5" d="M126.54,-205.39C137.72,-191.25 151.7,-176.7 167.51,-167 233.29,-126.63 259.87,-136.17 336.51,-127 355.98,-124.67 1730.71,-127.24 1748.51,-119 1768.48,-109.76 1784.59,-90.89 1795.64,-74.46"/>
<polygon fill="#555555" stroke="#555555" points="1798.83,-75.97 1801.26,-65.66 1792.93,-72.2 1798.83,-75.97"/>
<text text-anchor="middle" x="353.01" y="-134.1" font-family="Helvetica,sans-Serif" font-size="8.00">extends</text>
</g>
<!-- svc_thermal_ipc&#45;&gt;core_svc -->
<g id="edge67" class="edge">
<title>svc_thermal_ipc&#45;&gt;core_svc</title>
<path fill="none" stroke="#555555" stroke-dasharray="1,5" d="M1574.34,-221.95C1502.95,-194.44 1409.11,-152.02 1433.51,-127 1445.73,-114.47 1732.69,-126.51 1748.51,-119 1768.39,-109.56 1784.5,-90.7 1795.58,-74.31"/>
<polygon fill="#555555" stroke="#555555" points="1798.75,-75.85 1801.21,-65.54 1792.86,-72.07 1798.75,-75.85"/>
</g>
<!-- svc_thermal_ipc&#45;&gt;svc_ipc -->
<g id="edge28" class="edge">
<title>svc_thermal_ipc&#45;&gt;svc_ipc</title>
<path fill="none" stroke="#aa6600" stroke-width="2" d="M1525.94,-249.5C1499.08,-249.5 1470.64,-249.5 1443.79,-249.5"/>
<polygon fill="#aa6600" stroke="#aa6600" stroke-width="2" points="1443.58,-246 1433.58,-249.5 1443.58,-253 1443.58,-246"/>
<text text-anchor="middle" x="1479.76" y="-264.1" font-family="Helvetica,sans-Serif" font-size="8.00">ZMQ PUB→SUB</text>
<text text-anchor="middle" x="1479.76" y="-255.1" font-family="Helvetica,sans-Serif" font-size="8.00">(cross&#45;process)</text>
</g>
<!-- svc_motion&#45;&gt;core_bus -->
<g id="edge31" class="edge">
<title>svc_motion&#45;&gt;core_bus</title>
<path fill="none" stroke="#226622" d="M601.51,-221.73C619.87,-202.51 647.43,-178.11 677.51,-167 797.38,-122.7 1703.79,-177.05 1827.51,-145 1839.44,-141.91 1866.58,-126.31 1876.51,-119 1894.62,-105.65 1912.59,-88 1926.4,-73.22"/>
<polygon fill="#226622" stroke="#226622" points="1929.03,-75.53 1933.22,-65.8 1923.88,-70.8 1929.03,-75.53"/>
</g>
<!-- svc_motion&#45;&gt;core_svc -->
<g id="edge68" class="edge">
<title>svc_motion&#45;&gt;core_svc</title>
<path fill="none" stroke="#555555" stroke-dasharray="1,5" d="M602.63,-221.82C621.17,-203.17 648.45,-179.46 677.51,-167 812.48,-109.13 858.97,-136.69 1005.51,-127 1026.1,-125.64 1729.8,-127.72 1748.51,-119 1768.46,-109.71 1784.56,-90.84 1795.63,-74.42"/>
<polygon fill="#555555" stroke="#555555" points="1798.81,-75.94 1801.25,-65.63 1792.91,-72.17 1798.81,-75.94"/>
</g>
<!-- svc_vision&#45;&gt;core_bus -->
<g id="edge33" class="edge">
<title>svc_vision&#45;&gt;core_bus</title>
<path fill="none" stroke="#226622" d="M267.65,-216.15C281.45,-198.1 301.2,-177.25 324.51,-167 377.82,-143.56 1314.31,-147.11 1372.51,-145 1373.38,-144.97 1875.7,-119.35 1876.51,-119 1898.23,-109.38 1917.16,-90.45 1930.56,-74.07"/>
<polygon fill="#226622" stroke="#226622" points="1933.63,-75.83 1937.06,-65.8 1928.13,-71.51 1933.63,-75.83"/>
</g>
<!-- svc_vision&#45;&gt;core_svc -->
<g id="edge69" class="edge">
<title>svc_vision&#45;&gt;core_svc</title>
<path fill="none" stroke="#555555" stroke-dasharray="1,5" d="M269.34,-216.36C283.32,-199.09 302.68,-178.94 324.51,-167 405.57,-122.67 436.57,-136.23 528.51,-127 545.37,-125.31 1733.13,-126.12 1748.51,-119 1768.48,-109.75 1784.58,-90.88 1795.64,-74.45"/>
<polygon fill="#555555" stroke="#555555" points="1798.83,-75.96 1801.26,-65.65 1792.93,-72.2 1798.83,-75.96"/>
</g>
<!-- svc_vision&#45;&gt;svc_perception -->
<g id="edge40" class="edge">
<title>svc_vision&#45;&gt;svc_perception</title>
<path fill="none" stroke="#888888" stroke-dasharray="5,2" d="M267.93,-282.57C281.69,-300.7 301.32,-321.57 324.51,-332 418.78,-374.4 686.23,-349.56 789.51,-345 855.03,-342.11 874.43,-353.17 936.51,-332 965.19,-322.22 993.91,-304.79 1016.94,-288.46"/>
<polygon fill="#888888" stroke="#888888" points="1019.11,-291.21 1025.16,-282.51 1015.01,-285.54 1019.11,-291.21"/>
<text text-anchor="middle" x="760.51" y="-356.6" font-family="Helvetica,sans-Serif" font-size="8.00">latest_frame()</text>
</g>
<!-- svc_vision&#45;&gt;svc_web -->
<g id="edge50" class="edge">
<title>svc_vision&#45;&gt;svc_web</title>
<path fill="none" stroke="#888888" stroke-dasharray="5,2" d="M267.87,-282.7C281.61,-300.89 301.23,-321.75 324.51,-332 406.78,-368.23 1043.61,-344.28 1133.51,-345 1279.61,-346.17 3623.99,-375.42 3763.51,-332 3765.17,-331.48 3766.84,-330.93 3768.5,-330.35"/>
<polygon fill="#888888" stroke="#888888" points="3769.9,-333.56 3777.98,-326.72 3767.39,-327.03 3769.9,-333.56"/>
<text text-anchor="middle" x="1162.51" y="-356.6" font-family="Helvetica,sans-Serif" font-size="8.00">latest_frame()</text>
</g>
<!-- svc_vision&#45;&gt;svc_object -->
<g id="edge55" class="edge">
<title>svc_vision&#45;&gt;svc_object</title>
<path fill="none" stroke="#888888" stroke-dasharray="5,2" d="M268.3,-282.86C282.07,-300.86 301.57,-321.48 324.51,-332 392.83,-363.33 590.54,-366.7 662.51,-345 699.21,-333.94 735.15,-310.12 761.94,-289.05"/>
<polygon fill="#888888" stroke="#888888" points="764.35,-291.6 769.95,-282.61 759.96,-286.14 764.35,-291.6"/>
<text text-anchor="middle" x="633.51" y="-356.6" font-family="Helvetica,sans-Serif" font-size="8.00">latest_frame()</text>
</g>
<!-- svc_audio&#45;&gt;core_bus -->
<g id="edge35" class="edge">
<title>svc_audio&#45;&gt;core_bus</title>
<path fill="none" stroke="#226622" d="M419.39,-221.84C433.22,-202.68 454.67,-178.3 480.51,-167 545.51,-138.57 1688.42,-161.16 1757.51,-145 1775.7,-140.74 1777.5,-131.99 1795.51,-127 1830.37,-117.34 1843.78,-134.42 1876.51,-119 1898,-108.88 1916.93,-89.94 1930.39,-73.7"/>
<polygon fill="#226622" stroke="#226622" points="1933.43,-75.51 1936.92,-65.51 1927.95,-71.15 1933.43,-75.51"/>
</g>
<!-- svc_audio&#45;&gt;core_svc -->
<g id="edge70" class="edge">
<title>svc_audio&#45;&gt;core_svc</title>
<path fill="none" stroke="#555555" stroke-dasharray="1,5" d="M420.77,-221.68C434.85,-203.21 456.03,-179.79 480.51,-167 582.18,-113.88 621.17,-136.37 735.51,-127 763.55,-124.7 1722.98,-130.85 1748.51,-119 1768.47,-109.73 1784.58,-90.87 1795.64,-74.44"/>
<polygon fill="#555555" stroke="#555555" points="1798.82,-75.95 1801.25,-65.64 1792.92,-72.19 1798.82,-75.95"/>
</g>
<!-- svc_av&#45;&gt;core_bus -->
<g id="edge37" class="edge">
<title>svc_av&#45;&gt;core_bus</title>
<path fill="none" stroke="#226622" d="M2958.54,-221.88C2927.7,-202.86 2883.23,-178.67 2840.51,-167 2674.74,-121.73 2621.01,-187.45 2454.51,-145 2436.4,-140.38 2434.69,-131.29 2416.51,-127 2374.43,-117.08 2067.36,-135.76 2027.51,-119 2005.11,-109.58 1985.67,-90.19 1972.06,-73.55"/>
<polygon fill="#226622" stroke="#226622" points="1974.79,-71.36 1965.86,-65.65 1969.28,-75.68 1974.79,-71.36"/>
</g>
<!-- svc_av&#45;&gt;core_svc -->
<g id="edge71" class="edge">
<title>svc_av&#45;&gt;core_svc</title>
<path fill="none" stroke="#555555" stroke-dasharray="1,5" d="M2959.63,-221.99C2928.83,-202.63 2883.9,-177.94 2840.51,-167 2806.7,-158.48 1609.94,-169.87 1585.51,-145 1579.9,-139.29 1579.99,-132.79 1585.51,-127 1598.01,-113.87 1732.22,-126.97 1748.51,-119 1768.15,-109.39 1784.17,-90.71 1795.27,-74.46"/>
<polygon fill="#555555" stroke="#555555" points="1798.42,-76.05 1800.93,-65.76 1792.54,-72.24 1798.42,-76.05"/>
</g>
<!-- svc_perception&#45;&gt;core_bus -->
<g id="edge39" class="edge">
<title>svc_perception&#45;&gt;core_bus</title>
<path fill="none" stroke="#226622" d="M1104.34,-216.44C1128.86,-198.25 1162.12,-177.14 1195.51,-167 1234.7,-155.09 1901.36,-171.6 1932.51,-145 1951.97,-128.37 1955.54,-98.6 1954.94,-75.76"/>
<polygon fill="#226622" stroke="#226622" points="1958.42,-75.31 1954.39,-65.51 1951.43,-75.68 1958.42,-75.31"/>
</g>
<!-- svc_perception&#45;&gt;core_svc -->
<g id="edge72" class="edge">
<title>svc_perception&#45;&gt;core_svc</title>
<path fill="none" stroke="#555555" stroke-dasharray="1,5" d="M1107.93,-216.47C1132.38,-199.44 1164.36,-179.5 1195.51,-167 1277.21,-134.21 1302.03,-136.91 1389.51,-127 1409.33,-124.75 1730.47,-127.53 1748.51,-119 1768.41,-109.59 1784.51,-90.73 1795.59,-74.34"/>
<polygon fill="#555555" stroke="#555555" points="1798.76,-75.87 1801.21,-65.56 1792.87,-72.09 1798.76,-75.87"/>
</g>
<!-- ext_db -->
<g id="node46" class="node">
<title>ext_db</title>
<path fill="#ffe375" stroke="black" d="M1107.51,-451C1107.51,-451 947.51,-451 947.51,-451 941.51,-451 935.51,-445 935.51,-439 935.51,-439 935.51,-397 935.51,-397 935.51,-391 941.51,-385 947.51,-385 947.51,-385 1107.51,-385 1107.51,-385 1113.51,-385 1119.51,-391 1119.51,-397 1119.51,-397 1119.51,-439 1119.51,-439 1119.51,-445 1113.51,-451 1107.51,-451"/>
<text text-anchor="middle" x="1027.51" y="-432" font-family="Helvetica,sans-Serif" font-size="10.00">~/.local/share/desktop&#45;assistant/</text>
<text text-anchor="middle" x="1027.51" y="-421" font-family="Helvetica,sans-Serif" font-size="10.00">telemetry.db (SQLite ring)</text>
<text text-anchor="middle" x="1027.51" y="-410" font-family="Helvetica,sans-Serif" font-size="10.00">faces.db (identity registry)</text>
<text text-anchor="middle" x="1027.51" y="-399" font-family="Helvetica,sans-Serif" font-size="10.00">thumbs/ (64×64 JPEG face crops)</text>
</g>
<!-- svc_perception&#45;&gt;ext_db -->
<g id="edge86" class="edge">
<title>svc_perception&#45;&gt;ext_db</title>
<path fill="none" stroke="#aa6600" stroke-dasharray="5,2" d="M1058.2,-282.5C1052.19,-308.85 1043.62,-346.4 1037.06,-375.13"/>
<polygon fill="#aa6600" stroke="#aa6600" points="1033.64,-374.37 1034.83,-384.9 1040.47,-375.93 1033.64,-374.37"/>
<text text-anchor="middle" x="1072.01" y="-356.6" font-family="Helvetica,sans-Serif" font-size="8.00">writes faces.db</text>
</g>
<!-- svc_telemetry&#45;&gt;core_bus -->
<g id="edge42" class="edge">
<title>svc_telemetry&#45;&gt;core_bus</title>
<path fill="none" stroke="#226622" d="M2670.91,-216.44C2646.62,-198.96 2614.37,-178.59 2582.51,-167 2513.81,-142.02 2489.59,-165.78 2419.51,-145 2401.59,-139.69 2399.69,-131.31 2381.51,-127 2343.22,-117.94 2063.76,-134.29 2027.51,-119 2005.12,-109.56 1985.68,-90.17 1972.07,-73.53"/>
<polygon fill="#226622" stroke="#226622" points="1974.8,-71.34 1965.86,-65.64 1969.29,-75.67 1974.8,-71.34"/>
</g>
<!-- svc_telemetry&#45;&gt;core_svc -->
<g id="edge73" class="edge">
<title>svc_telemetry&#45;&gt;core_svc</title>
<path fill="none" stroke="#555555" stroke-dasharray="1,5" d="M2673.04,-216.34C2648.74,-198.11 2615.74,-177 2582.51,-167 2527.59,-150.47 1590.62,-185.98 1550.51,-145 1544.91,-139.28 1544.96,-132.77 1550.51,-127 1565.76,-111.12 1728.69,-128.59 1748.51,-119 1768.19,-109.47 1784.21,-90.79 1795.3,-74.52"/>
<polygon fill="#555555" stroke="#555555" points="1798.45,-76.1 1800.95,-65.81 1792.58,-72.3 1798.45,-76.1"/>
</g>
<!-- svc_telemetry&#45;&gt;ext_db -->
<g id="edge85" class="edge">
<title>svc_telemetry&#45;&gt;ext_db</title>
<path fill="none" stroke="#aa6600" d="M2673.05,-282.71C2648.75,-300.95 2615.75,-322.06 2582.51,-332 2449.52,-371.76 1471.4,-338.16 1333.51,-354 1314.54,-356.18 1310.38,-360.15 1291.51,-363 1222.24,-373.47 1202.82,-361.48 1134.51,-377 1128.35,-378.4 1122.07,-380.07 1115.79,-381.92"/>
<polygon fill="#aa6600" stroke="#aa6600" points="1114.47,-378.66 1105.95,-384.96 1116.54,-385.35 1114.47,-378.66"/>
<text text-anchor="middle" x="1373.01" y="-356.6" font-family="Helvetica,sans-Serif" font-size="8.00">writes telemetry.db</text>
</g>
<!-- svc_ipc&#45;&gt;core_bus -->
<g id="edge29" class="edge">
<title>svc_ipc&#45;&gt;core_bus</title>
<path fill="none" stroke="#226622" d="M1391.66,-210.95C1426.4,-194.28 1469.57,-176.34 1510.51,-167 1539.07,-160.48 2017.22,-166.15 2037.51,-145 2043.04,-139.23 2040.97,-134.21 2037.51,-127 2035.04,-121.87 2031.77,-122.77 2027.51,-119 2010.9,-104.29 1993.15,-86.99 1978.99,-72.76"/>
<polygon fill="#226622" stroke="#226622" points="1981.45,-70.28 1971.93,-65.63 1976.48,-75.2 1981.45,-70.28"/>
<text text-anchor="middle" x="2055.51" y="-134.1" font-family="Helvetica,sans-Serif" font-size="8.00">re&#45;emit</text>
</g>
<!-- svc_ipc&#45;&gt;core_bus -->
<g id="edge44" class="edge">
<title>svc_ipc&#45;&gt;core_bus</title>
<path fill="none" stroke="#226622" d="M1391.65,-210.9C1426.38,-194.21 1469.56,-176.28 1510.51,-167 1541.25,-160.03 2055.65,-167.72 2077.51,-145 2113.54,-107.54 2054.31,-132.51 2027.51,-119 2006.43,-108.37 1987.47,-89.8 1973.75,-73.86"/>
<polygon fill="#226622" stroke="#226622" points="1976.16,-71.28 1967.08,-65.82 1970.77,-75.75 1976.16,-71.28"/>
</g>
<!-- svc_ipc&#45;&gt;core_svc -->
<g id="edge74" class="edge">
<title>svc_ipc&#45;&gt;core_svc</title>
<path fill="none" stroke="#555555" stroke-dasharray="1,5" d="M1341.11,-210.73C1358.3,-182.03 1386.21,-144.57 1422.51,-127 1455.12,-111.21 1715.77,-134.52 1748.51,-119 1768.39,-109.57 1784.5,-90.7 1795.58,-74.32"/>
<polygon fill="#555555" stroke="#555555" points="1798.75,-75.85 1801.21,-65.55 1792.86,-72.07 1798.75,-75.85"/>
</g>
<!-- svc_face&#45;&gt;core_bus -->
<g id="edge46" class="edge">
<title>svc_face&#45;&gt;core_bus</title>
<path fill="none" stroke="#226622" d="M3222.35,-210.68C3204.42,-194.05 3181.2,-176.23 3156.51,-167 3032.16,-120.5 2688.47,-176.51 2559.51,-145 2541.35,-140.57 2539.7,-131.25 2521.51,-127 2494.78,-120.76 2052.83,-129.58 2027.51,-119 2005.09,-109.63 1985.65,-90.24 1972.05,-73.58"/>
<polygon fill="#226622" stroke="#226622" points="1974.77,-71.39 1965.85,-65.68 1969.27,-75.71 1974.77,-71.39"/>
</g>
<!-- svc_face&#45;&gt;core_svc -->
<g id="edge75" class="edge">
<title>svc_face&#45;&gt;core_svc</title>
<path fill="none" stroke="#555555" stroke-dasharray="1,5" d="M3222.9,-210.86C3204.92,-194.05 3181.51,-176.03 3156.51,-167 3116.37,-152.5 1650.46,-175.39 1620.51,-145 1614.89,-139.3 1615.03,-132.83 1620.51,-127 1630.26,-116.61 1735.75,-125.35 1748.51,-119 1768.08,-109.26 1784.11,-90.58 1795.23,-74.36"/>
<polygon fill="#555555" stroke="#555555" points="1798.36,-75.97 1800.89,-65.68 1792.49,-72.14 1798.36,-75.97"/>
</g>
<!-- svc_track&#45;&gt;core_bus -->
<g id="edge48" class="edge">
<title>svc_track&#45;&gt;core_bus</title>
<path fill="none" stroke="#226622" d="M3421.87,-205.42C3403.78,-190.35 3381.62,-175.17 3358.51,-167 3278.44,-138.69 2677.08,-164.82 2594.51,-145 2576.33,-140.64 2574.71,-131.24 2556.51,-127 2527.88,-120.34 2054.63,-130.32 2027.51,-119 2005.08,-109.65 1985.65,-90.25 1972.04,-73.59"/>
<polygon fill="#226622" stroke="#226622" points="1974.77,-71.4 1965.84,-65.69 1969.26,-75.72 1974.77,-71.4"/>
</g>
<!-- svc_track&#45;&gt;core_svc -->
<g id="edge76" class="edge">
<title>svc_track&#45;&gt;core_svc</title>
<path fill="none" stroke="#555555" stroke-dasharray="1,5" d="M3422.18,-205.48C3404.05,-190.33 3381.78,-175.07 3358.51,-167 3288.79,-142.83 2103.98,-151.77 2030.51,-145 1961.39,-138.63 1936.94,-153.14 1876.51,-119 1857.71,-108.39 1841.86,-90.06 1830.63,-74.24"/>
<polygon fill="#555555" stroke="#555555" points="1833.4,-72.08 1824.88,-65.77 1827.61,-76.01 1833.4,-72.08"/>
</g>
<!-- svc_clock&#45;&gt;core_bus -->
<g id="edge52" class="edge">
<title>svc_clock&#45;&gt;core_bus</title>
<path fill="none" stroke="#226622" d="M3640.68,-216.49C3623.33,-198.32 3599.08,-177.22 3572.51,-167 3481.94,-132.17 2793.9,-167.48 2699.51,-145 2681.33,-140.67 2679.71,-131.21 2661.51,-127 2627.19,-119.06 2060.03,-132.52 2027.51,-119 2005.07,-109.67 1985.64,-90.27 1972.03,-73.61"/>
<polygon fill="#226622" stroke="#226622" points="1974.76,-71.42 1965.84,-65.71 1969.25,-75.73 1974.76,-71.42"/>
</g>
<!-- svc_clock&#45;&gt;core_svc -->
<g id="edge77" class="edge">
<title>svc_clock&#45;&gt;core_svc</title>
<path fill="none" stroke="#555555" stroke-dasharray="1,5" d="M3640.68,-216.48C3623.33,-198.31 3599.08,-177.21 3572.51,-167 3525.4,-148.91 2714.94,-146.44 2664.51,-145 2659.03,-144.84 1881.44,-121.37 1876.51,-119 1856.79,-109.55 1840.76,-90.87 1829.68,-74.58"/>
<polygon fill="#555555" stroke="#555555" points="1832.41,-72.35 1824.04,-65.85 1826.53,-76.15 1832.41,-72.35"/>
</g>
<!-- svc_object&#45;&gt;core_bus -->
<g id="edge54" class="edge">
<title>svc_object&#45;&gt;core_bus</title>
<path fill="none" stroke="#226622" d="M845.31,-216.35C869.82,-198.13 903.08,-177.03 936.51,-167 987.66,-151.66 1851.99,-172.93 1897.51,-145 1922.21,-129.84 1936.32,-99.17 1943.87,-75.68"/>
<polygon fill="#226622" stroke="#226622" points="1947.31,-76.38 1946.8,-65.79 1940.6,-74.38 1947.31,-76.38"/>
</g>
<!-- svc_object&#45;&gt;core_svc -->
<g id="edge78" class="edge">
<title>svc_object&#45;&gt;core_svc</title>
<path fill="none" stroke="#555555" stroke-dasharray="1,5" d="M847.42,-216.35C871.89,-198.84 904.39,-178.47 936.51,-167 1069.83,-119.4 1111.3,-137.05 1252.51,-127 1279.99,-125.04 1723.55,-130.7 1748.51,-119 1768.43,-109.65 1784.54,-90.79 1795.61,-74.38"/>
<polygon fill="#555555" stroke="#555555" points="1798.79,-75.9 1801.23,-65.6 1792.89,-72.13 1798.79,-75.9"/>
</g>
<!-- svc_music&#45;&gt;core_bus -->
<g id="edge57" class="edge">
<title>svc_music&#45;&gt;core_bus</title>
<path fill="none" stroke="#226622" d="M1984.99,-216.41C2012.46,-200.57 2046.74,-181.74 2078.51,-167 2103.51,-155.4 2120.84,-167.69 2136.51,-145 2141.05,-138.42 2141.95,-132.86 2136.51,-127 2119.97,-109.21 2049.64,-129 2027.51,-119 2005.71,-109.15 1986.53,-90.22 1972.88,-73.9"/>
<polygon fill="#226622" stroke="#226622" points="1975.26,-71.27 1966.27,-65.67 1969.81,-75.66 1975.26,-71.27"/>
</g>
<!-- svc_music&#45;&gt;core_svc -->
<g id="edge79" class="edge">
<title>svc_music&#45;&gt;core_svc</title>
<path fill="none" stroke="#555555" stroke-dasharray="1,5" d="M1886.86,-216.46C1859.33,-198.52 1822.5,-177.67 1786.51,-167 1750.1,-156.21 1471.47,-172.7 1445.51,-145 1440.03,-139.16 1439.92,-132.73 1445.51,-127 1457.25,-114.94 1733.3,-126.23 1748.51,-119 1768.39,-109.55 1784.49,-90.69 1795.57,-74.31"/>
<polygon fill="#555555" stroke="#555555" points="1798.74,-75.84 1801.2,-65.54 1792.85,-72.06 1798.74,-75.84"/>
</g>
<!-- svc_skills&#45;&gt;core_bus -->
<g id="edge59" class="edge">
<title>svc_skills&#45;&gt;core_bus</title>
<path fill="none" stroke="#226622" d="M2214.84,-188.93C2215.21,-166.54 2210.79,-142.74 2194.51,-127 2181.15,-114.09 2044.53,-126.43 2027.51,-119 2005.59,-109.43 1986.4,-90.49 1972.79,-74.11"/>
<polygon fill="#226622" stroke="#226622" points="1975.17,-71.47 1966.2,-65.83 1969.7,-75.83 1975.17,-71.47"/>
</g>
<!-- svc_skills&#45;&gt;core_svc -->
<g id="edge80" class="edge">
<title>svc_skills&#45;&gt;core_svc</title>
<path fill="none" stroke="#555555" stroke-dasharray="1,5" d="M2125.39,-188.8C2110.19,-179.97 2093.88,-172.13 2077.51,-167 2045.83,-157.08 1503.54,-168.9 1480.51,-145 1474.95,-139.24 1474.93,-132.74 1480.51,-127 1490.88,-116.31 1735.06,-125.42 1748.51,-119 1768.37,-109.52 1784.47,-90.65 1795.56,-74.28"/>
<polygon fill="#555555" stroke="#555555" points="1798.73,-75.82 1801.19,-65.52 1792.84,-72.04 1798.73,-75.82"/>
</g>
<!-- svc_notif&#45;&gt;core_bus -->
<g id="edge61" class="edge">
<title>svc_notif&#45;&gt;core_bus</title>
<path fill="none" stroke="#226622" d="M2424.03,-210.78C2396.57,-181.9 2354.43,-144.18 2308.51,-127 2279.25,-116.06 2056.25,-131.22 2027.51,-119 2005.15,-109.5 1985.71,-90.1 1972.09,-73.48"/>
<polygon fill="#226622" stroke="#226622" points="1974.82,-71.29 1965.88,-65.6 1969.32,-75.63 1974.82,-71.29"/>
</g>
<!-- svc_notif&#45;&gt;core_svc -->
<g id="edge81" class="edge">
<title>svc_notif&#45;&gt;core_svc</title>
<path fill="none" stroke="#555555" stroke-dasharray="1,5" d="M2412.14,-210.92C2389.53,-194.13 2360.69,-176.1 2331.51,-167 2288.21,-153.5 1547.14,-177.5 1515.51,-145 1509.93,-139.27 1509.95,-132.75 1515.51,-127 1533.51,-108.37 1725.15,-130.21 1748.51,-119 1768.22,-109.53 1784.24,-90.85 1795.33,-74.57"/>
<polygon fill="#555555" stroke="#555555" points="1798.48,-76.14 1800.97,-65.84 1792.6,-72.34 1798.48,-76.14"/>
</g>
<!-- ext_cli -->
<g id="node43" class="node">
<title>ext_cli</title>
<path fill="#ffe375" stroke="black" d="M1572.01,-440C1572.01,-440 1375.01,-440 1375.01,-440 1369.01,-440 1363.01,-434 1363.01,-428 1363.01,-428 1363.01,-408 1363.01,-408 1363.01,-402 1369.01,-396 1375.01,-396 1375.01,-396 1572.01,-396 1572.01,-396 1578.01,-396 1584.01,-402 1584.01,-408 1584.01,-408 1584.01,-428 1584.01,-428 1584.01,-434 1578.01,-440 1572.01,-440"/>
<text text-anchor="middle" x="1473.51" y="-421" font-family="Helvetica,sans-Serif" font-size="10.00">scripts/desktop&#45;assistant</text>
<text text-anchor="middle" x="1473.51" y="-410" font-family="Helvetica,sans-Serif" font-size="10.00">(CLI: ping / status / pan / say / watch / ...)</text>
</g>
<!-- ext_cli&#45;&gt;svc_ipc -->
<g id="edge82" class="edge">
<title>ext_cli&#45;&gt;svc_ipc</title>
<path fill="none" stroke="#aa6600" d="M1454.25,-395.91C1431.4,-370.88 1392.65,-328.43 1362.89,-295.83"/>
<polygon fill="#aa6600" stroke="#aa6600" points="1365.25,-293.22 1355.92,-288.2 1360.08,-297.94 1365.25,-293.22"/>
<text text-anchor="middle" x="1448.01" y="-356.6" font-family="Helvetica,sans-Serif" font-size="8.00">ZMQ REQ/SUB</text>
</g>
<!-- ext_web -->
<g id="node44" class="node">
<title>ext_web</title>
<path fill="#ffe375" stroke="black" d="M1705.51,-440C1705.51,-440 1625.51,-440 1625.51,-440 1619.51,-440 1613.51,-434 1613.51,-428 1613.51,-428 1613.51,-408 1613.51,-408 1613.51,-402 1619.51,-396 1625.51,-396 1625.51,-396 1705.51,-396 1705.51,-396 1711.51,-396 1717.51,-402 1717.51,-408 1717.51,-408 1717.51,-428 1717.51,-428 1717.51,-434 1711.51,-440 1705.51,-440"/>
<text text-anchor="middle" x="1665.51" y="-421" font-family="Helvetica,sans-Serif" font-size="10.00">Web Browser</text>
<text text-anchor="middle" x="1665.51" y="-410" font-family="Helvetica,sans-Serif" font-size="10.00">http://&lt;pi&gt;:8080</text>
</g>
<!-- ext_web&#45;&gt;svc_web -->
<g id="edge84" class="edge">
<title>ext_web&#45;&gt;svc_web</title>
<path fill="none" stroke="#aa6600" d="M1690.59,-396C1701.02,-388.53 1713.69,-380.98 1726.51,-377 1942.7,-309.83 3547.73,-400.51 3763.51,-332 3765.16,-331.47 3766.82,-330.92 3768.48,-330.33"/>
<polygon fill="#aa6600" stroke="#aa6600" points="3769.85,-333.55 3777.91,-326.68 3767.33,-327.02 3769.85,-333.55"/>
<text text-anchor="middle" x="3559.51" y="-356.6" font-family="Helvetica,sans-Serif" font-size="8.00">HTTP/WS :8080</text>
</g>
<!-- ext_3p -->
<g id="node45" class="node">
<title>ext_3p</title>
<path fill="#ffe375" stroke="black" stroke-dasharray="5,2" d="M1322.51,-440C1322.51,-440 1160.51,-440 1160.51,-440 1154.51,-440 1148.51,-434 1148.51,-428 1148.51,-428 1148.51,-408 1148.51,-408 1148.51,-402 1154.51,-396 1160.51,-396 1160.51,-396 1322.51,-396 1322.51,-396 1328.51,-396 1334.51,-402 1334.51,-408 1334.51,-408 1334.51,-428 1334.51,-428 1334.51,-434 1328.51,-440 1322.51,-440"/>
<text text-anchor="middle" x="1241.51" y="-421" font-family="Helvetica,sans-Serif" font-size="10.00">3rd&#45;party subscribers</text>
<text text-anchor="middle" x="1241.51" y="-410" font-family="Helvetica,sans-Serif" font-size="10.00">(dashboards, future ML pipelines)</text>
</g>
<!-- ext_3p&#45;&gt;svc_ipc -->
<g id="edge83" class="edge">
<title>ext_3p&#45;&gt;svc_ipc</title>
<path fill="none" stroke="#aa6600" stroke-dasharray="5,2" d="M1242.55,-395.97C1243.72,-383.43 1246.22,-367.39 1251.51,-354 1259.52,-333.71 1272.03,-313.4 1284.28,-296.2"/>
<polygon fill="#aa6600" stroke="#aa6600" points="1287.18,-298.17 1290.25,-288.03 1281.52,-294.04 1287.18,-298.17"/>
<text text-anchor="middle" x="1270.01" y="-356.6" font-family="Helvetica,sans-Serif" font-size="8.00">ZMQ SUB</text>
</g>
</g>
</svg>
