<svg xmlns="http://www.w3.org/2000/svg" width="210.00mm" height="174.00mm" viewBox="0 0 210.0000 174.0000">
<rect width="210.0000" height="174.0000" fill="white"/>
<rect x="15.0000" y="15.0000" width="18.0000" height="18.0000" fill="black"/>
<rect x="51.0000" y="15.0000" width="18.0000" height="18.0000" fill="black"/>
<rect x="87.0000" y="15.0000" width="18.0000" height="18.0000" fill="black"/>
<rect x="123.0000" y="15.0000" width="18.0000" height="18.0000" fill="black"/>
<rect x="159.0000" y="15.0000" width="18.0000" height="18.0000" fill="black"/>
<rect x="33.0000" y="33.0000" width="18.0000" height="18.0000" fill="black"/>
<rect x="69.0000" y="33.0000" width="18.0000" height="18.0000" fill="black"/>
<rect x="105.0000" y="33.0000" width="18.0000" height="18.0000" fill="black"/>
<rect x="141.0000" y="33.0000" width="18.0000" height="18.0000" fill="black"/>
<rect x="177.0000" y="33.0000" width="18.0000" height="18.0000" fill="black"/>
<rect x="15.0000" y="51.0000" width="18.0000" height="18.0000" fill="black"/>
<rect x="51.0000" y="51.0000" width="18.0000" height="18.0000" fill="black"/>
<rect x="87.0000" y="51.0000" width="18.0000" height="18.0000" fill="black"/>
<rect x="123.0000" y="51.0000" width="18.0000" height="18.0000" fill="black"/>
<rect x="159.0000" y="51.0000" width="18.0000" height="18.0000" fill="black"/>
<rect x="33.0000" y="69.0000" width="18.0000" height="18.0000" fill="black"/>
<rect x="69.0000" y="69.0000" width="18.0000" height="18.0000" fill="black"/>
<rect x="105.0000" y="69.0000" width="18.0000" height="18.0000" fill="black"/>
<rect x="141.0000" y="69.0000" width="18.0000" height="18.0000" fill="black"/>
<rect x="177.0000" y="69.0000" width="18.0000" height="18.0000" fill="black"/>
<rect x="15.0000" y="87.0000" width="18.0000" height="18.0000" fill="black"/>
<rect x="51.0000" y="87.0000" width="18.0000" height="18.0000" fill="black"/>
<rect x="87.0000" y="87.0000" width="18.0000" height="18.0000" fill="black"/>
<rect x="123.0000" y="87.0000" width="18.0000" height="18.0000" fill="black"/>
<rect x="159.0000" y="87.0000" width="18.0000" height="18.0000" fill="black"/>
<rect x="33.0000" y="105.0000" width="18.0000" height="18.0000" fill="black"/>
<rect x="69.0000" y="105.0000" width="18.0000" height="18.0000" fill="black"/>
<rect x="105.0000" y="105.0000" width="18.0000" height="18.0000" fill="black"/>
<rect x="141.0000" y="105.0000" width="18.0000" height="18.0000" fill="black"/>
<rect x="177.0000" y="105.0000" width="18.0000" height="18.0000" fill="black"/>
<rect x="15.0000" y="123.0000" width="18.0000" height="18.0000" fill="black"/>
<rect x="51.0000" y="123.0000" width="18.0000" height="18.0000" fill="black"/>
<rect x="87.0000" y="123.0000" width="18.0000" height="18.0000" fill="black"/>
<rect x="123.0000" y="123.0000" width="18.0000" height="18.0000" fill="black"/>
<rect x="159.0000" y="123.0000" width="18.0000" height="18.0000" fill="black"/>
<rect x="15.0000" y="15.0000" width="180.0000" height="126.0000" fill="none" stroke="black" stroke-width="0.3"/>
<line x1="145.00" y1="147.00" x2="195.00" y2="147.00" stroke="black" stroke-width="0.5"/>
<line x1="145.00" y1="145.00" x2="145.00" y2="149.00" stroke="black" stroke-width="0.5"/>
<line x1="195.00" y1="145.00" x2="195.00" y2="149.00" stroke="black" stroke-width="0.5"/>
<text x="170.00" y="152.00" text-anchor="middle" font-size="3.5" font-family="sans-serif">50 mm</text>
<text x="15.00" y="152.00" font-size="3.2" font-family="sans-serif" fill="#333">9×6 inner corners  |  18 mm squares  |  board 180×126 mm  |  PRINT AT 100% (no fit-to-page)</text>
</svg>